SplineFontDB: 3.0
FontName: BenchTwelve-Black-Italic
FullName: BenchTwelve Black Italic
FamilyName: BenchTwelve
Weight: Black
Copyright: vernon adams (c) 2012
Version: 1
ItalicAngle: 0
UnderlinePosition: 0
UnderlineWidth: 0
Ascent: 1638
Descent: 410
UFOAscent: 1493
UFODescent: -363
LayerCount: 2
Layer: 0 0 "Back"  1
Layer: 1 0 "Fore"  0
OS2Version: 0
OS2_WeightWidthSlopeOnly: 0
OS2_UseTypoMetrics: 0
CreationTime: 1343081851
ModificationTime: 1343082020
PfmFamily: 0
TTFWeight: 900
TTFWidth: 6
LineGap: 0
VLineGap: 0
OS2TypoAscent: 3715
OS2TypoAOffset: 0
OS2TypoDescent: -340
OS2TypoDOffset: 0
OS2TypoLinegap: 0
OS2WinAscent: 2077
OS2WinAOffset: 0
OS2WinDescent: 750
OS2WinDOffset: 0
HheadAscent: 0
HheadAOffset: 1
HheadDescent: 0
HheadDOffset: 1
OS2Vendor: 'newt'
Lookup: 4 0 1 "ligaStandardLigatureslookup0"  {"ligaStandardLigatureslookup0 subtable"  } ['liga' ('latn' <'dflt' > 'grek' <'dflt' > 'DFLT' <'dflt' > ) ]
Lookup: 258 0 0 "'kern' Horizontal Kerning in Latin lookup 0"  {"'kern' Horizontal Kerning in Latin lookup 0 subtable"  } ['kern' ('latn' <'dflt' > ) ]
Lookup: 258 0 0 "kernHorizontalKerninginLatinloo"  {"kernHorizontalKerninginLatinloo per glyph data 0"  "kernHorizontalKerninginLatinloo kerning class 1"  } ['kern' ('latn' <'dflt' > 'DFLT' <'dflt' > ) ]
Lookup: 260 0 0 "diacritics"  {"diacritics subtable"  } ['mark' ('latn' <'dflt' > 'grek' <'dflt' > 'DFLT' <'dflt' > ) ]
MarkAttachClasses: 1
DEI: 91125
KernClass2: 33 27 "kernHorizontalKerninginLatinloo kerning class 1" 
 89 A Aacute Abreve Acircumflex Adieresis Agrave Amacron Aogonek Aring Atilde uni0200 uni0202
 1 B
 1 C
 111 D Dcaron Eth O Oacute Obreve Ocircumflex Odieresis Ograve Ohungarumlaut Omacron Oslash Otilde Q uni020C uni020E
 1 F
 1 G
 1 J
 1 K
 1 L
 1 P
 44 R Racute Rcaron Rcommaaccent uni0210 uni0212
 16 T Tcaron uni021A
 103 U Uacute Ubreve Ucircumflex Udieresis Ugrave Uhungarumlaut Umacron Uogonek Uring Utilde uni0214 uni0216
 1 V
 1 W
 18 Y Yacute Ydieresis
 1 a

StartChar: A
Encoding: 65 65 0
Width: 2264
VWidth: 0
GlyphClass: 2
Flags: HW
PickledData: "(dp1
S'com.typemytype.robofont.layerData'
p2
(dp3
s."
AnchorPoint: "top" 1234 1438 basechar 0
AnchorPoint: "bot" 1951 0 basechar 0
LayerCount: 2
Fore
SplineSet
962 534 m 2
 951 534 943 544 945 555 c 0
 945 558 947 561 948 563 c 2
 1212 1046 l 2
 1215 1051 1219 1054 1224 1054 c 0
 1228 1054 1232 1052 1233 1045 c 2
 1352 564 l 2
 1353 562 1353 558 1353 555 c 0
 1351 544 1341 534 1329 534 c 2
 962 534 l 2
139 0 m 2
 583 0 l 2
 625 0 659 17 682 59 c 2
 745 180 l 1
 755 197 757 209 784 209 c 2
 1399 209 l 2
 1425 209 1424 198 1429 181 c 2
 1461 58 l 1
 1474 16 1504 0 1547 0 c 2
 2122 0 l 2
 2148 0 2170 21 2174 46 c 0
 2175 53 2174 61 2172 69 c 2
 1772 1369 l 2
 1759 1410 1723 1438 1681 1438 c 2
 1000 1438 l 2
 958 1438 914 1410 889 1369 c 2
 111 69 l 2
 105 61 103 53 102 46 c 0
 98 21 113 0 139 0 c 2
EndSplineSet
EndChar

StartChar: AE
Encoding: 198 198 1
Width: 2819
VWidth: 0
GlyphClass: 2
Flags: HW
LayerCount: 2
Fore
SplineSet
962 534 m 2
 950 534 942 544 944 555 c 0
 944 558 946 561 947 563 c 2
 1257 1142 l 2
 1260 1147 1264 1150 1269 1150 c 2
 1289 1150 l 1
 1202 534 l 1
 962 534 l 2
140 0 m 2
 582 0 l 2
 625 0 658 17 681 59 c 2
 745 180 l 2
 755 197 757 209 783 209 c 2
 1156 209 l 1
 1138 76 l 2
 1132 33 1158 0 1198 0 c 2
 2620 0 l 2
 2660 0 2695 34 2701 77 c 2
 2727 262 l 2
 2733 305 2708 339 2668 339 c 2
 1791 339 l 2
 1775 339 1765 347 1767 364 c 2
 1796 572 l 2
 1798 589 1812 598 1828 598 c 2
 2564 598 l 2
 2604 598 2640 632 2646 675 c 2
 2661 786 l 2
 2667 829 2641 863 2601 863 c 2
 1865 863 l 2
 1849 863 1839 873 1841 890 c 2
 1866 1067 l 2
 1869 1087 1880 1094 1899 1094 c 2
 2717 1094 l 2
 2757 1094 2791 1128 2797 1171 c 2
 2824 1361 l 2
 2830 1404 2805 1438 2765 1438 c 2
 1001 1438 l 2
 958 1438 915 1410 890 1369 c 2
 111 69 l 2
 105 61 103 53 102 46 c 0
 98 21 113 0 140 0 c 2
EndSplineSet
EndChar

StartChar: B
Encoding: 66 66 11
Width: 2217
VWidth: 0
GlyphClass: 2
Flags: HW
AnchorPoint: "top" 1065 1438 basechar 0
LayerCount: 2
Fore
SplineSet
922 861 m 2
 903 861 891 879 894 902 c 2
 923 1110 l 2
 926 1130 943 1147 962 1147 c 2
 1273 1147 l 2
 1427 1147 1569 1147 1548 997 c 0
 1533 887 1458 866 1307 861 c 1
 922 861 l 2
848 334 m 2
 829 334 816 351 819 371 c 2
 852 609 l 2
 855 629 873 646 892 646 c 2
 1261 646 l 2
 1457 646 1547 630 1528 496 c 0
 1507 347 1343 334 1169 334 c 2
 848 334 l 2
216 0 m 2
 1263 0 l 2
 1727 0 2108 96 2154 424 c 0
 2177 590 2089 694 1955 757 c 0
 1948 760 1945 767 1946 773 c 0
 1947 779 1950 784 1956 788 c 0
 2059 848 2133 929 2149 1040 c 0
 2191 1339 1904 1438 1506 1438 c 2
 418 1438 l 2
 378 1438 342 1402 336 1359 c 2
 156 77 l 2
 150 34 176 0 216 0 c 2
EndSplineSet
EndChar

StartChar: C
Encoding: 67 67 12
Width: 2296
VWidth: 0
GlyphClass: 2
Flags: HW
AnchorPoint: "top" 1290 1420 basechar 0
AnchorPoint: "bot" 1327 0 basechar 0 {150-150 2} {}
LayerCount: 2
Fore
SplineSet
1219 -41 m 0
 1623 -41 2150 58 2227 435 c 0
 2229 447 2229 461 2230 474 c 1
 2229 496 2215 514 2194 516 c 1
 2172 520 1789 555 1788 555 c 0
 1784 555 1780 556 1776 556 c 0
 1734 556 1707 536 1682 494 c 1
 1613 386 1492 329 1271 329 c 1
 1022 334 860 418 902 719 c 0
 943 1010 1128 1103 1381 1108 c 1
 1587 1108 1694 1058 1741 956 c 0
 1760 915 1783 898 1824 898 c 0
 1829 898 1834 899 1839 899 c 2
 1839 899 2248 929 2273 932 c 1
 2279 934 2285 939 2287 945 c 0
 2287 947 2288 958 2288 959 c 0
 2301 1359 1849 1475 1432 1475 c 0
 894 1475 309 1325 224 719 c 0
 138 105 681 -41 1219 -41 c 0
EndSplineSet
EndChar

StartChar: D
Encoding: 68 68 18
Width: 2245
VWidth: 0
GlyphClass: 2
Flags: HW
AnchorPoint: "top" 1157 1438 basechar 0
LayerCount: 2
Fore
SplineSet
215 0 m 2
 1130 0 l 2
 1668 0 2124 31 2222 731 c 0
 2297 1267 1902 1438 1427 1438 c 2
 417 1438 l 2
 377 1438 342 1404 336 1361 c 2
 155 76 l 2
 149 33 175 0 215 0 c 2
849 346 m 0
 833 346 818 364 820 381 c 2
 917 1065 l 2
 919 1082 938 1099 954 1099 c 2
 1247 1099 l 2
 1459 1099 1652 1047 1607 728 c 0
 1559 384 1380 346 1116 346 c 0
 1082 346 1001 346 933 346 c 0
 899 346 869 346 849 346 c 0
EndSplineSet
EndChar

StartChar: E
Encoding: 69 69 21
Width: 2047
VWidth: 0
GlyphClass: 2
Flags: HW
AnchorPoint: "top" 1120 1438 basechar 0
AnchorPoint: "bot" 1132 0 basechar 0
LayerCount: 2
Fore
SplineSet
215 0 m 2
 1848 0 l 2
 1888 0 1923 34 1929 77 c 2
 1955 262 l 2
 1961 305 1936 339 1896 339 c 2
 877 339 l 2
 861 339 850 347 852 364 c 2
 882 572 l 2
 884 589 898 598 914 598 c 2
 1793 598 l 2
 1833 598 1868 632 1874 675 c 2
 1889 786 l 2
 1895 829 1870 863 1830 863 c 2
 950 863 l 2
 934 863 924 873 926 890 c 2
 951 1067 l 2
 954 1087 966 1094 985 1094 c 2
 1945 1094 l 2
 1985 1094 2019 1128 2025 1171 c 2
 2052 1361 l 2
 2058 1404 2033 1438 1993 1438 c 2
 417 1438 l 2
 377 1438 342 1404 336 1361 c 2
 155 76 l 2
 149 33 175 0 215 0 c 2
EndSplineSet
EndChar

StartChar: Eng
Encoding: 330 330 30
Width: 2357
VWidth: 0
GlyphClass: 2
Flags: HW
LayerCount: 2
Fore
SplineSet
1210 -725 m 0
 1670 -720 2127 -605 2216 27 c 2
 2403 1361 l 2
 2409 1404 2384 1436 2344 1436 c 2
 1938 1436 l 2
 1898 1436 1863 1404 1857 1361 c 2
 1776 787 l 2
 1774 774 1758 766 1751 774 c 2
 1175 1406 l 2
 1149 1433 1108 1452 1067 1452 c 2
 419 1452 l 2
 379 1452 344 1419 338 1376 c 2
 155 76 l 2
 149 33 175 0 215 0 c 2
 630 0 l 2
 670 0 706 33 712 76 c 2
 826 888 l 2
 828 901 844 909 852 901 c 0
 974 770 1576 137 1670 28 c 1
 1665 -7 l 1
 1623 -278 1491 -353 1261 -360 c 0
 1242 -360 1225 -377 1222 -401 c 2
 1182 -685 l 2
 1179 -707 1192 -725 1210 -725 c 0
EndSplineSet
EndChar

StartChar: Eth
Encoding: 208 208 32
Width: 2248
VWidth: 0
GlyphClass: 2
Flags: HW
LayerCount: 2
Fore
SplineSet
219 0 m 2
 1133 0 l 2
 1671 0 2127 31 2225 731 c 0
 2300 1267 1906 1438 1431 1438 c 2
 421 1438 l 2
 381 1438 345 1404 339 1361 c 2
 265 832 l 1
 173 832 l 2
 133 832 112 800 106 757 c 2
 99 707 l 2
 93 664 104 631 144 631 c 2
 237 631 l 1
 159 76 l 2
 153 33 179 0 219 0 c 2
852 346 m 0
 836 346 822 364 824 381 c 2
 859 631 l 1
 1033 631 l 2
 1071 631 1091 661 1098 701 c 1
 1106 757 l 2
 1112 800 1101 832 1061 832 c 2
 887 832 l 1
 919 1063 l 2
 921 1080 941 1097 957 1097 c 0
 1007 1098 1201 1099 1250 1099 c 0
 1462 1099 1655 1047 1610 728 c 0
 1562 384 1383 346 1119 346 c 0
 1085 346 1004 346 936 346 c 0
 902 346 872 346 852 346 c 0
EndSplineSet
EndChar

StartChar: Euro
Encoding: 8364 8364 33
Width: 2298
VWidth: 0
GlyphClass: 2
Flags: HW
LayerCount: 2
Fore
SplineSet
1222 -41 m 0
 1626 -41 2153 58 2230 435 c 0
 2232 447 2232 461 2233 474 c 1
 2232 496 2218 514 2197 516 c 1
 2175 520 1792 555 1791 555 c 0
 1787 555 1783 556 1779 556 c 0
 1737 556 1710 536 1685 494 c 1
 1616 386 1495 329 1274 329 c 1
 1103 332 974 373 922 494 c 1
 1225 494 l 2
 1258 494 1286 522 1291 561 c 2
 1296 599 l 2
 1301 638 1283 666 1250 666 c 2
 899 666 l 1
 900 683 902 701 905 719 c 0
 907 732 908 744 911 756 c 1
 1262 756 l 2
 1295 756 1322 784 1327 823 c 2
 1333 863 l 2
 1338 902 1320 930 1287 930 c 2
 978 930 l 1
 1062 1058 1206 1104 1383 1108 c 1
 1589 1108 1696 1058 1743 956 c 0
 1762 915 1786 898 1827 898 c 0
 1832 898 1836 899 1841 899 c 2
 1841 899 2251 929 2276 932 c 1
 2282 934 2287 939 2289 945 c 0
 2289 947 2291 958 2291 959 c 0
 2304 1359 1852 1475 1435 1475 c 0
 965 1475 460 1361 282 930 c 1
 187 930 l 2
 154 930 126 902 121 863 c 2
 116 823 l 2
 111 784 129 756 162 756 c 2
 233 756 l 1
 230 744 229 732 227 719 c 0
 224 701 222 683 221 666 c 1
 149 666 l 2
 116 666 89 638 84 599 c 2
 79 561 l 2
 74 522 92 494 125 494 c 2
 225 494 l 1
 288 68 757 -41 1222 -41 c 0
EndSplineSet
EndChar

StartChar: F
Encoding: 70 70 34
Width: 1943
VWidth: 0
GlyphClass: 2
Flags: HW
AnchorPoint: "top" 1100 1438 basechar 0
LayerCount: 2
Fore
SplineSet
213 0 m 2
 729 0 l 2
 769 0 803 33 809 76 c 2
 867 490 l 2
 869 507 888 524 904 524 c 2
 1593 524 l 2
 1633 524 1668 558 1674 601 c 2
 1693 732 l 2
 1699 775 1673 809 1633 809 c 2
 943 809 l 2
 927 809 915 825 917 842 c 2
 947 1053 l 2
 950 1073 965 1089 984 1089 c 2
 1961 1089 l 2
 2001 1089 2036 1123 2042 1166 c 2
 2070 1361 l 2
 2076 1404 2050 1438 2010 1438 c 2
 415 1438 l 2
 375 1438 340 1404 334 1361 c 2
 154 76 l 2
 148 33 173 0 213 0 c 2
EndSplineSet
EndChar

StartChar: G
Encoding: 71 71 35
Width: 2305
VWidth: 0
GlyphClass: 2
Flags: HW
AnchorPoint: "top" 1313 1420 basechar 0
AnchorPoint: "bot" 1262 0 basechar 0
LayerCount: 2
Fore
SplineSet
1140 -41 m 0
 1317 -41 1718 -12 1922 275 c 0
 1927 281 1932 285 1937 285 c 0
 1943 285 1948 279 1949 271 c 0
 1950 263 1995 75 1995 70 c 1
 2009 13 2050 0 2093 0 c 0
 2133 0 2167 34 2173 77 c 2
 2261 700 l 2
 2267 743 2240 777 2200 777 c 2
 1469 777 l 2
 1429 777 1393 744 1387 701 c 2
 1377 632 l 2
 1371 589 1398 556 1438 556 c 2
 1672 556 l 2
 1684 556 1692 541 1690 527 c 0
 1685 488 1582 318 1257 318 c 0
 1012 318 861 430 902 719 c 0
 943 1010 1130 1118 1383 1123 c 1
 1585 1123 1694 1064 1742 976 c 0
 1764 936 1786 915 1834 915 c 0
 1841 915 1868 919 2278 950 c 0
 2285 951 2292 956 2293 963 c 0
 2294 971 2295 980 2295 989 c 0
 2296 1368 1840 1475 1432 1475 c 0
 894 1475 309 1325 224 719 c 0
 144 151 621 -41 1140 -41 c 0
EndSplineSet
EndChar

StartChar: H
Encoding: 72 72 40
Width: 2217
VWidth: 0
GlyphClass: 2
Flags: HW
AnchorPoint: "top" 1192 1434 basechar 0
LayerCount: 2
Fore
SplineSet
215 0 m 2
 681 0 l 2
 721 0 756 33 762 76 c 2
 827 538 l 2
 829 555 847 571 863 571 c 2
 1504 571 l 2
 1520 571 1533 554 1531 537 c 2
 1466 76 l 2
 1460 33 1485 0 1525 0 c 2
 2001 0 l 2
 2041 0 2076 33 2082 76 c 2
 2263 1363 l 2
 2269 1406 2243 1438 2203 1438 c 2
 1729 1438 l 2
 1689 1438 1654 1406 1648 1363 c 2
 1588 940 l 2
 1586 923 1568 906 1552 906 c 2
 905 906 l 2
 889 906 876 922 878 939 c 2
 938 1363 l 2
 944 1406 919 1438 879 1438 c 2
 417 1438 l 2
 377 1438 342 1406 336 1363 c 2
 155 76 l 2
 149 33 175 0 215 0 c 2
EndSplineSet
EndChar

StartChar: Hbar
Encoding: 294 294 41
Width: 2223
VWidth: 0
GlyphClass: 2
Flags: HW
LayerCount: 2
Fore
SplineSet
908 906 m 2
 892 906 879 922 881 939 c 2
 903 1089 l 1
 1612 1089 l 1
 1591 940 l 2
 1589 924 1573 908 1558 906 c 1
 908 906 l 2
218 0 m 2
 684 0 l 2
 724 0 759 33 765 76 c 2
 830 538 l 2
 832 555 850 571 866 571 c 2
 1507 571 l 2
 1523 571 1536 554 1534 537 c 2
 1469 76 l 2
 1463 33 1488 0 1528 0 c 2
 2004 0 l 2
 2044 0 2079 33 2085 76 c 2
 2228 1089 l 1
 2320 1089 l 2
 2359 1089 2373 1121 2379 1164 c 2
 2384 1200 l 2
 2390 1243 2385 1275 2346 1275 c 2
 2254 1275 l 1
 2266 1363 l 2
 2272 1406 2246 1438 2206 1438 c 2
 1732 1438 l 2
 1692 1438 1657 1406 1651 1363 c 2
 1638 1275 l 1
 929 1275 l 1
 941 1363 l 2
 947 1406 922 1438 882 1438 c 2
 421 1438 l 2
 381 1438 345 1406 339 1363 c 2
 327 1275 l 1
 230 1275 l 2
 192 1275 178 1243 172 1200 c 2
 167 1164 l 2
 161 1121 166 1089 204 1089 c 2
 301 1089 l 1
 158 76 l 2
 152 33 178 0 218 0 c 2
EndSplineSet
EndChar

StartChar: I
Encoding: 73 73 43
Width: 924
VWidth: 0
GlyphClass: 2
Flags: HW
AnchorPoint: "top" 504 1438 basechar 0
AnchorPoint: "bot" 496 0 basechar 0
LayerCount: 2
Fore
SplineSet
215 0 m 2
 709 0 l 2
 749 0 784 33 790 76 c 2
 971 1363 l 2
 977 1406 951 1438 911 1438 c 2
 417 1438 l 2
 377 1438 342 1406 336 1363 c 2
 155 76 l 2
 149 33 175 0 215 0 c 2
EndSplineSet
EndChar

StartChar: J
Encoding: 74 74 54
Width: 1297
VWidth: 0
GlyphClass: 2
Flags: HW
AnchorPoint: "top" 833 1438 basechar 0
LayerCount: 2
Fore
SplineSet
109 -174 m 0
 583 -169 1146 -54 1235 578 c 2
 1350 1397 l 2
 1353 1420 1339 1438 1317 1438 c 2
 728 1438 l 2
 707 1438 687 1420 684 1397 c 2
 569 578 l 2
 527 277 375 199 160 191 c 0
 141 190 124 174 121 150 c 2
 81 -135 l 2
 78 -157 91 -174 109 -174 c 0
EndSplineSet
EndChar

StartChar: K
Encoding: 75 75 56
Width: 2039
VWidth: 0
GlyphClass: 2
Flags: HW
AnchorPoint: "top" 1055 1438 basechar 0
LayerCount: 2
Fore
SplineSet
215 0 m 2
 709 0 l 2
 749 0 784 33 790 76 c 2
 873 667 l 1
 1221 64 l 2
 1243 26 1280 0 1323 0 c 2
 1894 0 l 2
 1915 0 1932 17 1935 37 c 0
 1936 46 1935 54 1930 63 c 2
 1493 784 l 2
 1486 795 1484 803 1485 810 c 0
 1486 820 1495 829 1511 845 c 2
 2034 1377 l 2
 2042 1385 2046 1394 2047 1403 c 0
 2050 1422 2038 1438 2017 1438 c 2
 1541 1438 l 2
 1498 1438 1450 1412 1419 1378 c 2
 894 820 l 1
 971 1363 l 2
 977 1406 951 1438 911 1438 c 2
 417 1438 l 2
 377 1438 342 1406 336 1363 c 2
 155 76 l 2
 149 33 175 0 215 0 c 2
EndSplineSet
EndChar

StartChar: L
Encoding: 76 76 58
Width: 1851
VWidth: 0
GlyphClass: 2
Flags: HW
AnchorPoint: "top" 778 1438 basechar 0
LayerCount: 2
Fore
SplineSet
215 0 m 2
 1669 0 l 2
 1709 0 1744 33 1750 76 c 2
 1778 274 l 2
 1784 317 1758 350 1718 350 c 2
 885 350 l 2
 866 350 853 367 856 387 c 2
 993 1363 l 2
 999 1406 974 1438 934 1438 c 2
 417 1438 l 2
 377 1438 342 1406 336 1363 c 2
 155 76 l 2
 149 33 175 0 215 0 c 2
EndSplineSet
EndChar

StartChar: Lslash
Encoding: 321 321 63
Width: 1854
VWidth: 0
GlyphClass: 2
Flags: HW
LayerCount: 2
Fore
SplineSet
219 0 m 2
 1672 0 l 2
 1712 0 1747 33 1753 76 c 2
 1781 274 l 2
 1787 317 1761 350 1721 350 c 2
 888 350 l 2
 869 350 856 367 859 387 c 2
 913 775 l 1
 1114 816 l 2
 1148 823 1180 847 1185 885 c 2
 1206 1028 l 2
 1211 1063 1192 1098 1162 1098 c 0
 1159 1098 1157 1098 1154 1097 c 2
 953 1056 l 1
 996 1363 l 2
 1002 1406 977 1438 937 1438 c 2
 421 1438 l 2
 381 1438 345 1406 339 1363 c 2
 277 921 l 1
 188 903 l 2
 154 896 124 872 118 832 c 2
 98 693 l 2
 93 656 111 621 141 621 c 0
 144 621 146 621 149 622 c 2
 238 640 l 1
 159 76 l 2
 153 33 179 0 219 0 c 2
EndSplineSet
EndChar

StartChar: M
Encoding: 77 77 64
Width: 2733
VWidth: 0
GlyphClass: 2
Flags: HW
AnchorPoint: "top" 1470 1406 basechar 0
LayerCount: 2
Fore
SplineSet
204 0 m 2
 619 0 l 2
 659 0 695 33 701 76 c 1
 848 804 l 2
 849 811 853 814 857 814 c 0
 860 814 863 812 864 808 c 2
 1162 67 l 2
 1178 26 1215 0 1258 0 c 2
 1472 0 l 2
 1515 0 1560 26 1587 67 c 2
 2096 810 l 2
 2098 814 2103 816 2106 816 c 0
 2110 816 2113 813 2112 806 c 2
 2053 76 l 1
 2048 33 2074 0 2114 0 c 2
 2529 0 l 2
 2569 0 2603 33 2609 76 c 1
 2712 1363 l 1
 2717 1405 2691 1438 2652 1438 c 2
 2068 1438 l 2
 2024 1438 1981 1411 1955 1371 c 2
 1472 646 l 2
 1466 637 1459 633 1454 633 c 0
 1448 633 1443 638 1440 646 c 2
 1164 1371 l 2
 1149 1411 1113 1438 1070 1438 c 2
 486 1438 l 2
 447 1438 411 1405 405 1363 c 1
 145 76 l 1
 138 33 164 0 204 0 c 2
EndSplineSet
EndChar

StartChar: N
Encoding: 78 78 65
Width: 2357
VWidth: 0
GlyphClass: 2
Flags: HW
AnchorPoint: "top" 1343 1436 basechar 0
AnchorPoint: "bot" 1205 0 basechar 0
LayerCount: 2
Fore
SplineSet
215 0 m 2
 630 0 l 2
 670 0 706 33 712 76 c 2
 820 845 l 2
 821 854 830 861 838 861 c 0
 841 861 844 860 846 858 c 2
 1547 30 l 2
 1572 2 1614 -15 1654 -15 c 2
 2140 -15 l 2
 2180 -15 2215 17 2221 60 c 2
 2403 1361 l 2
 2409 1404 2384 1436 2344 1436 c 2
 1938 1436 l 2
 1898 1436 1863 1404 1857 1361 c 2
 1772 763 l 2
 1771 754 1762 747 1755 747 c 0
 1752 747 1749 748 1747 750 c 2
 1168 1406 l 2
 1142 1434 1108 1452 1067 1452 c 2
 419 1452 l 2
 379 1452 344 1419 338 1376 c 2
 155 76 l 2
 149 33 175 0 215 0 c 2
EndSplineSet
EndChar

StartChar: O
Encoding: 79 79 70
Width: 2474
VWidth: 0
GlyphClass: 2
Flags: HW
AnchorPoint: "top" 1331 1420 basechar 0
AnchorPoint: "bot" 1333 0 basechar 0
LayerCount: 2
Fore
SplineSet
1231 -41 m 0
 1715 -41 2363 77 2454 722 c 0
 2538 1319 1928 1475 1444 1475 c 0
 960 1475 307 1319 223 722 c 0
 132 77 747 -41 1231 -41 c 0
1282 322 m 0
 1041 322 890 407 934 722 c 0
 977 1025 1151 1118 1394 1118 c 0
 1636 1118 1786 1025 1743 722 c 0
 1699 407 1522 322 1282 322 c 0
EndSplineSet
EndChar

StartChar: OE
Encoding: 338 338 71
Width: 3274
VWidth: 0
GlyphClass: 2
Flags: HW
LayerCount: 2
Fore
SplineSet
1324 345 m 2
 1065 345 890 425 932 722 c 0
 972 1009 1159 1096 1430 1096 c 2
 1603 1096 l 2
 1619 1096 1633 1079 1631 1062 c 2
 1535 379 l 2
 1533 362 1515 345 1499 345 c 2
 1324 345 l 2
1319 -1 m 0
 1555 -1 1315 0 3075 0 c 0
 3115 0 3150 34 3156 77 c 2
 3183 268 l 2
 3189 311 3163 345 3123 345 c 2
 2217 345 l 2
 2201 345 2189 362 2191 379 c 2
 2216 557 l 2
 2218 574 2237 591 2253 591 c 2
 2931 591 l 2
 2971 591 3006 625 3012 668 c 2
 3030 795 l 2
 3036 838 3010 872 2970 872 c 2
 2291 872 l 2
 2275 872 2263 891 2265 908 c 2
 2285 1053 l 2
 2288 1073 2305 1089 2324 1089 c 2
 3167 1089 l 2
 3207 1089 3242 1123 3248 1166 c 2
 3275 1361 l 2
 3281 1403 3255 1438 3216 1438 c 2
 1455 1438 l 2
 963 1438 302 1292 222 722 c 0
 131 75 828 -1 1319 -1 c 0
EndSplineSet
EndChar

StartChar: Oslash
Encoding: 216 216 79
Width: 2474
VWidth: 0
GlyphClass: 2
Flags: HW
LayerCount: 2
Fore
SplineSet
1282 322 m 0
 1262 322 1243 322 1225 323 c 1
 1619 1073 l 1
 1719 1019 1770 911 1743 722 c 0
 1699 407 1522 322 1282 322 c 0
1058 367 m 1
 957 419 906 524 934 722 c 0
 977 1025 1151 1118 1394 1118 c 0
 1414 1118 1434 1118 1453 1116 c 1
 1058 367 l 1
919 -202 m 2
 936 -202 956 -189 966 -169 c 2
 1038 -34 l 1
 1103 -39 1168 -41 1231 -41 c 0
 1715 -41 2363 77 2454 722 c 0
 2517 1171 2185 1370 1813 1441 c 1
 1897 1602 l 2
 1905 1617 1899 1635 1886 1635 c 2
 1754 1635 l 2
 1736 1635 1719 1622 1709 1602 c 2
 1637 1466 l 1
 1572 1473 1506 1475 1444 1475 c 0
 960 1475 307 1319 223 722 c 0
 155 238 486 51 859 -13 c 1
 776 -167 l 2
 767 -182 774 -200 788 -200 c 2
 919 -202 l 2
EndSplineSet
EndChar

StartChar: P
Encoding: 80 80 81
Width: 2203
VWidth: 0
GlyphClass: 2
Flags: HW
AnchorPoint: "top" 1106 1420 basechar 0
LayerCount: 2
Fore
SplineSet
902 740 m 2
 886 740 873 758 875 775 c 2
 914 1057 l 2
 916 1074 935 1091 951 1091 c 2
 1345 1091 l 2
 1472 1091 1594 1075 1572 919 c 0
 1550 763 1443 740 1303 740 c 2
 902 740 l 2
215 0 m 2
 695 0 l 2
 735 0 771 33 777 76 c 2
 825 417 l 2
 827 434 845 452 861 452 c 0
 991 453 1199 452 1319 453 c 0
 1787 458 2152 506 2212 935 c 0
 2275 1380 1940 1438 1443 1438 c 0
 1133 1438 726 1436 417 1436 c 0
 377 1436 342 1403 336 1361 c 2
 155 76 l 2
 149 33 175 0 215 0 c 2
EndSplineSet
EndChar

StartChar: Q
Encoding: 81 81 82
Width: 2474
VWidth: 0
GlyphClass: 2
Flags: HW
LayerCount: 2
Fore
SplineSet
1283 324 m 0
 1042 324 890 409 934 723 c 0
 977 1026 1151 1120 1394 1120 c 0
 1636 1120 1786 1026 1743 723 c 0
 1699 409 1523 324 1283 324 c 0
1455 -513 m 1
 1720 -407 l 1
 1745 -393 1762 -369 1766 -343 c 0
 1768 -330 1766 -317 1761 -305 c 2
 1649 -4 l 1
 2027 65 2388 255 2454 723 c 0
 2538 1321 1929 1477 1445 1477 c 0
 961 1477 308 1321 224 723 c 0
 136 95 719 -33 1196 -39 c 1
 1362 -485 l 2
 1372 -510 1393 -523 1417 -523 c 0
 1429 -523 1442 -520 1455 -513 c 1
EndSplineSet
EndChar

StartChar: R
Encoding: 82 82 83
Width: 2230
VWidth: 0
GlyphClass: 2
Flags: HW
AnchorPoint: "top" 1094 1434 basechar 0
LayerCount: 2
Fore
SplineSet
908 789 m 2
 892 789 879 805 881 822 c 2
 914 1057 l 2
 916 1074 935 1090 951 1090 c 2
 1314 1090 l 2
 1449 1090 1605 1083 1585 938 c 0
 1570 832 1480 789 1358 789 c 2
 908 789 l 2
215 0 m 2
 695 0 l 2
 735 0 771 33 777 76 c 2
 832 467 l 2
 834 484 852 502 868 502 c 2
 1239 502 l 2
 1341 502 1399 502 1433 411 c 1
 1461 339 1463 148 1466 68 c 1
 1470 17 1487 0 1543 0 c 2
 2041 0 l 2
 2068 0 2085 18 2088 43 c 0
 2088 45 2089 48 2089 50 c 0
 2092 69 2087 159 2083 209 c 0
 2065 455 2016 603 1812 643 c 0
 1808 643 1808 645 1808 647 c 0
 1808 649 1811 651 1814 652 c 0
 2021 681 2200 787 2232 1012 c 0
 2291 1435 1919 1438 1446 1438 c 2
 417 1438 l 2
 377 1438 342 1406 336 1363 c 2
 155 76 l 2
 149 33 175 0 215 0 c 2
EndSplineSet
EndChar

StartChar: S
Encoding: 83 83 87
Width: 2251
VWidth: 0
GlyphClass: 2
Flags: HW
AnchorPoint: "top" 1169 1426 basechar 0
AnchorPoint: "bot" 1194 3 basechar 0
LayerCount: 2
Fore
SplineSet
1090 -41 m 0
 1853 -41 2144 101 2194 456 c 0
 2250 851 1815 899 1401 926 c 0
 1024 950 931 964 942 1043 c 0
 952 1115 1097 1132 1266 1132 c 0
 1432 1132 1726 1108 1959 1024 c 0
 1966 1022 1974 1021 1981 1021 c 0
 2014 1021 2043 1042 2061 1070 c 0
 2061 1072 2160 1238 2160 1239 c 0
 2165 1247 2168 1256 2169 1265 c 0
 2173 1293 2161 1320 2138 1331 c 0
 1914 1431 1633 1475 1269 1475 c 0
 805 1475 338 1427 276 989 c 0
 213 539 791 539 1321 504 c 0
 1442 497 1504 468 1494 394 c 0
 1485 328 1395 301 1249 301 c 0
 882 301 630 346 377 429 c 0
 370 431 363 432 356 432 c 0
 326 432 296 414 278 383 c 2
 278 383 171 197 171 196 c 0
 167 188 164 180 163 171 c 0
 159 143 171 114 195 105 c 0
 477 -11 778 -41 1090 -41 c 0
EndSplineSet
EndChar

StartChar: T
Encoding: 84 84 93
Width: 1970
VWidth: 0
GlyphClass: 4
Flags: HW
AnchorPoint: "bot" 1060 0 mark 0
AnchorPoint: "top" 1054 1438 basechar 0
LayerCount: 2
Fore
SplineSet
751 0 m 2
 1217 0 l 2
 1257 0 1292 33 1298 76 c 2
 1437 1069 l 2
 1440 1089 1457 1104 1476 1104 c 2
 1956 1104 l 2
 1996 1104 2032 1138 2038 1181 c 2
 2063 1361 l 2
 2069 1404 2043 1438 2003 1438 c 2
 366 1438 l 2
 326 1438 291 1404 285 1361 c 2
 260 1181 l 2
 254 1138 279 1104 319 1104 c 2
 803 1104 l 2
 822 1104 834 1089 831 1069 c 2
 691 76 l 2
 685 33 711 0 751 0 c 2
EndSplineSet
EndChar

StartChar: Tbar
Encoding: 358 358 94
Width: 1970
VWidth: 0
GlyphClass: 2
Flags: HW
LayerCount: 2
Fore
SplineSet
751 0 m 2
 1217 0 l 2
 1257 0 1292 33 1298 76 c 2
 1355 483 l 1
 1674 483 l 2
 1714 483 1747 516 1753 559 c 2
 1771 684 l 2
 1777 727 1753 760 1713 760 c 2
 1394 760 l 1
 1437 1069 l 2
 1440 1089 1457 1104 1476 1104 c 2
 1956 1104 l 2
 1996 1104 2032 1138 2038 1181 c 2
 2063 1361 l 2
 2069 1404 2043 1438 2003 1438 c 2
 366 1438 l 2
 326 1438 291 1404 285 1361 c 2
 260 1181 l 2
 254 1138 279 1104 319 1104 c 2
 803 1104 l 2
 822 1104 834 1089 831 1069 c 2
 787 760 l 1
 475 760 l 2
 435 760 401 727 395 684 c 2
 378 559 l 2
 372 516 396 483 436 483 c 2
 748 483 l 1
 691 76 l 2
 685 33 711 0 751 0 c 2
EndSplineSet
EndChar

StartChar: Thorn
Encoding: 222 222 96
Width: 2177
VWidth: 0
GlyphClass: 2
Flags: HW
LayerCount: 2
Fore
SplineSet
884 614 m 2
 868 614 855 632 857 649 c 2
 895 918 l 2
 897 935 915 952 931 952 c 2
 1190 952 l 2
 1223 952 1259 953 1295 953 c 0
 1424 953 1551 937 1530 787 c 0
 1509 637 1388 614 1249 614 c 2
 884 614 l 2
215 0 m 2
 695 0 l 2
 735 0 771 33 777 76 c 2
 807 290 l 2
 809 307 827 325 843 325 c 0
 973 327 1145 325 1265 327 c 0
 1733 332 2111 380 2170 803 c 0
 2232 1241 1876 1249 1379 1249 c 2
 941 1249 l 1
 957 1363 l 2
 963 1406 937 1438 897 1438 c 2
 417 1438 l 2
 377 1438 342 1406 336 1363 c 2
 155 76 l 2
 149 33 175 0 215 0 c 2
EndSplineSet
EndChar

StartChar: U
Encoding: 85 85 97
Width: 2438
VWidth: 0
GlyphClass: 2
Flags: HW
AnchorPoint: "top" 1327 1414 basechar 0
AnchorPoint: "bot" 1339 -5 basechar 0
LayerCount: 2
Fore
SplineSet
1230 -41 m 0
 1694 -41 2310 66 2401 711 c 2
 2493 1363 l 2
 2499 1406 2473 1438 2433 1438 c 2
 1896 1438 l 2
 1856 1438 1821 1406 1815 1363 c 2
 1723 711 l 2
 1679 397 1512 322 1281 322 c 0
 1050 322 902 397 946 711 c 2
 1038 1363 l 2
 1044 1406 1021 1438 978 1438 c 2
 408 1438 l 2
 371 1438 334 1406 328 1363 c 2
 236 711 l 2
 145 66 753 -41 1230 -41 c 0
EndSplineSet
EndChar

StartChar: V
Encoding: 86 86 108
Width: 2173
VWidth: 0
GlyphClass: 2
Flags: HW
LayerCount: 2
Fore
SplineSet
850 0 m 1
 1343 0 l 1
 1386 1 1430 27 1455 67 c 2
 2293 1371 l 2
 2298 1379 2301 1386 2302 1394 c 0
 2305 1418 2290 1438 2265 1438 c 2
 1835 1438 l 2
 1792 1438 1747 1412 1721 1371 c 2
 1199 550 l 1
 903 1371 l 2
 887 1412 851 1438 808 1438 c 2
 309 1438 l 2
 284 1438 265 1419 262 1396 c 0
 261 1388 262 1379 265 1371 c 2
 755 67 l 2
 770 27 807 1 850 0 c 1
EndSplineSet
EndChar

StartChar: W
Encoding: 87 87 109
Width: 3091
VWidth: 0
GlyphClass: 2
Flags: HW
AnchorPoint: "top" 1682 1393 basechar 0
LayerCount: 2
Fore
SplineSet
720 0 m 1
 1173 0 l 2
 1212 0 1253 30 1275 70 c 2
 1641 723 l 1
 1808 70 l 2
 1819 28 1853 1 1895 0 c 1
 2375 0 l 1
 2417 1 2459 28 2482 70 c 2
 3188 1369 l 2
 3192 1376 3194 1384 3195 1391 c 0
 3199 1417 3184 1438 3156 1438 c 2
 2741 1438 l 2
 2698 1438 2656 1411 2633 1369 c 2
 2249 656 l 1
 2058 1368 l 2
 2048 1408 2016 1436 1976 1438 c 1
 1587 1438 l 2
 1545 1438 1502 1411 1478 1369 c 2
 1085 666 l 1
 918 1367 l 2
 907 1410 874 1438 831 1438 c 2
 334 1438 l 2
 306 1438 285 1417 281 1391 c 0
 280 1384 281 1376 283 1369 c 2
 631 70 l 2
 643 28 678 1 720 0 c 1
EndSplineSet
EndChar

StartChar: X
Encoding: 88 88 114
Width: 2230
VWidth: 0
GlyphClass: 2
Flags: HW
LayerCount: 2
Fore
SplineSet
136 0 m 2
 539 0 l 2
 582 0 632 21 670 53 c 2
 1083 405 l 1
 1353 57 l 2
 1381 22 1424 0 1468 0 c 2
 2098 0 l 2
 2117 0 2132 15 2134 31 c 0
 2135 39 2131 48 2125 57 c 2
 1561 808 l 1
 2242 1385 l 2
 2251 1393 2256 1402 2257 1410 c 0
 2259 1424 2250 1438 2233 1438 c 2
 1825 1438 l 2
 1782 1438 1732 1417 1694 1385 c 2
 1349 1089 l 1
 1128 1381 l 2
 1101 1416 1058 1438 1015 1438 c 2
 352 1438 l 2
 333 1438 320 1424 318 1408 c 0
 317 1400 320 1390 326 1381 c 2
 867 683 l 1
 127 53 l 2
 118 45 113 36 112 29 c 0
 110 14 119 0 136 0 c 2
EndSplineSet
EndChar

StartChar: Y
Encoding: 89 89 115
Width: 2073
VWidth: 0
GlyphClass: 2
Flags: HW
AnchorPoint: "top" 1161 1438 basechar 0
LayerCount: 2
Fore
SplineSet
795 0 m 2
 1288 0 l 2
 1328 0 1363 33 1369 76 c 2
 1425 476 l 1
 2184 1375 l 2
 2192 1384 2197 1393 2198 1402 c 0
 2201 1421 2187 1438 2166 1438 c 2
 1730 1438 l 2
 1686 1438 1640 1413 1608 1374 c 2
 1209 889 l 1
 936 1375 l 2
 915 1414 873 1438 830 1438 c 2
 306 1438 l 2
 285 1438 268 1421 265 1403 c 0
 264 1395 267 1385 272 1376 c 2
 790 473 l 1
 735 76 l 2
 729 33 755 0 795 0 c 2
EndSplineSet
EndChar

StartChar: Z
Encoding: 90 90 120
Width: 1916
VWidth: 0
GlyphClass: 2
Flags: HW
AnchorPoint: "top" 1070 1438 basechar 0
LayerCount: 2
Fore
SplineSet
202 0 m 2
 1717 0 l 2
 1757 0 1791 34 1797 77 c 2
 1825 273 l 2
 1831 316 1806 350 1766 350 c 2
 1021 350 l 2
 1013 350 1008 356 1009 364 c 0
 1010 368 1012 371 1016 375 c 2
 1851 1083 l 2
 1885 1112 1913 1160 1920 1207 c 2
 1941 1361 l 2
 1947 1404 1922 1438 1882 1438 c 2
 432 1438 l 2
 392 1438 357 1404 351 1361 c 2
 324 1167 l 2
 318 1124 343 1090 383 1090 c 2
 1039 1090 l 2
 1049 1090 1053 1083 1052 1075 c 0
 1051 1071 1049 1067 1044 1062 c 2
 231 361 l 1
 196 333 171 287 165 244 c 2
 142 77 l 2
 136 34 162 0 202 0 c 2
EndSplineSet
EndChar

StartChar: a
Encoding: 97 97 124
Width: 1766
VWidth: 0
GlyphClass: 2
Flags: W
HStem: -41 215<493 987.293> 849 204<772.561 1163.54>
VStem: 1396 248<7.91626 169.822>
AnchorPoint: "top" 997 1007 basechar 0
AnchorPoint: "bot" 1712 0 basechar 0
LayerCount: 2
Fore
SplineSet
779 174 m 0
 681 174 639 210 647 271 c 1
 661 369 843 414 1134 454 c 0
 1139 455 1166 456 1169 456 c 0
 1194 456 1191 438 1189 424 c 0
 1169 285 982 174 779 174 c 0
654 -41 m 0
 981 -41 1205 63 1324 215 c 0
 1330 223 1337 230 1341 230 c 0
 1347 230 1349 222 1351 211 c 0
 1354 188 1382 110 1396 66 c 1
 1407 24 1438 0 1474 0 c 2
 1580 0 l 2
 1611 0 1639 29 1644 68 c 2
 1722 622 l 2
 1771 968 1429 1053 1005 1053 c 0
 582 1053 359 989 281 846 c 0
 275 833 267 817 265 802 c 0
 263 785 273 766 288 765 c 2
 620 731 l 2
 628 730 635 729 640 729 c 0
 659 729 673 737 697 758 c 0
 776 827 907 849 982 849 c 0
 1173 849 1228 778 1211 654 c 2
 1209 639 l 2
 1203 596 218 650 160 239 c 0
 135 62 332 -41 654 -41 c 0
EndSplineSet
EndChar

StartChar: acute
Encoding: 180 180 128
Width: 1596
VWidth: 0
GlyphClass: 4
Flags: W
HStem: 1170 448<987.803 1083.5>
AnchorPoint: "top" 869 983 mark 0
LayerCount: 2
Fore
SplineSet
901 1170 m 2
 1023 1170 l 2
 1055 1170 1066 1189 1080 1209 c 2
 1304 1553 l 2
 1312 1565 1318 1579 1320 1590 c 0
 1322 1606 1317 1618 1298 1618 c 2
 1056 1618 l 2
 1015 1618 997 1606 984 1563 c 2
 879 1237 l 2
 874 1223 871 1212 870 1203 c 0
 867 1179 875 1170 901 1170 c 2
EndSplineSet
EndChar

StartChar: ae
Encoding: 230 230 130
Width: 2698
VWidth: 0
GlyphClass: 2
Flags: HW
LayerCount: 2
Fore
SplineSet
1723 611 m 2x38
 1712 611 1716 628 1718 641 c 1
 1742 750 1867 835 2003 835 c 0
 2153 835 2228 743 2226 636 c 1
 2224 624 2223 611 2212 611 c 2
 1723 611 l 2x38
778 174 m 0x78
 681 174 638 210 647 271 c 0
 661 369 852 414 1144 454 c 0
 1149 455 1167 456 1170 456 c 0
 1194 456 1192 438 1190 424 c 0
 1171 289 982 174 778 174 c 0x78
656 -41 m 0
 947 -41 1156 39 1298 176 c 1
 1305 169 1312 162 1319 156 c 1
 1460 8 1708 -41 1922 -41 c 0
 2042 -41 2331 0 2473 49 c 0
 2502 59 2524 88 2528 117 c 0
 2529 124 2528 130 2527 137 c 0
 2521 173 2520 197 2513 233 c 1
 2509 263 2488 281 2460 281 c 0
 2452 281 2444 280 2436 277 c 0
 2337 245 2187 209 2055 209 c 0xb8
 1876 209 1665 270 1687 426 c 0
 1689 441 1698 454 1711 454 c 2
 2594 454 l 2
 2638 454 2647 489 2653 533 c 0
 2700 918 2352 1053 2024 1053 c 0
 1854 1053 1651 1002 1491 906 c 1
 1395 1003 1235 1053 1007 1053 c 0
 582 1053 352 990 279 846 c 0
 273 833 265 817 263 802 c 0
 261 787 269 769 283 766 c 1
 622 731 l 2
 630 730 636 729 641 729 c 0
 660 729 674 737 698 758 c 0
 777 827 907 849 982 849 c 0
 1179 849 1229 772 1213 661 c 0
 1213 658 1210 644 1209 639 c 0
 1203 596 218 650 160 238 c 0
 135 62 332 -41 656 -41 c 0
EndSplineSet
EndChar

StartChar: ampersand
Encoding: 38 38 133
Width: 2930
VWidth: 0
GlyphClass: 2
Flags: HW
LayerCount: 2
Fore
SplineSet
1120 269 m 0
 1002 269 801 278 822 438 c 0
 822 442 823 446 824 450 c 0
 836 539 881 611 1086 612 c 0
 1199 612 1404 612 1579 612 c 0
 1666 612 1747 612 1803 612 c 0
 1822 612 1834 597 1831 577 c 2
 1817 475 l 2
 1811 434 1810 396 1811 360 c 1
 1714 332 1478 269 1120 269 c 0
2410 -41 m 0
 2530 -41 2645 -25 2740 -2 c 0
 2780 8 2814 46 2818 88 c 1
 2837 232 l 1
 2840 266 2824 290 2794 290 c 0
 2788 290 2782 289 2776 287 c 0
 2709 269 2626 254 2550 254 c 0
 2424 254 2326 295 2345 433 c 2
 2365 577 l 2
 2368 597 2383 612 2402 612 c 2
 2748 612 l 2
 2788 612 2824 645 2830 688 c 2
 2846 801 l 2
 2852 844 2826 876 2786 876 c 2
 2440 876 l 2
 2421 876 2409 892 2412 912 c 2
 2473 1348 l 2
 2479 1391 2453 1423 2413 1423 c 2
 2047 1423 l 2
 2007 1423 1974 1391 1966 1348 c 2
 1878 912 l 1
 1875 892 1859 876 1840 876 c 2
 1124 876 l 2
 916 876 889 937 900 1019 c 0
 900 1021 901 1023 901 1025 c 0
 921 1151 1103 1165 1241 1165 c 0
 1436 1165 1644 1129 1667 1126 c 0
 1675 1124 1681 1123 1688 1123 c 0
 1712 1123 1727 1136 1735 1167 c 2
 1781 1352 l 2
 1783 1357 1783 1361 1784 1365 c 0
 1788 1395 1776 1412 1743 1422 c 1
 1679 1439 1431 1475 1284 1475 c 0
 721 1475 326 1367 279 1036 c 0
 254 858 347 758 531 737 c 1
 335 712 222 602 197 424 c 0
 148 76 510 -40 1073 -40 c 0
 1484 -40 1809 59 1931 101 c 1
 2045 -2 2227 -41 2410 -41 c 0
EndSplineSet
EndChar

StartChar: asciicircum
Encoding: 94 94 136
Width: 1212
VWidth: 0
GlyphClass: 2
Flags: HW
LayerCount: 2
Fore
SplineSet
-47 201 m 2
 268 201 l 2
 311 201 353 229 377 270 c 2
 683 802 l 2
 687 809 693 812 699 812 c 0
 705 812 709 809 712 802 c 2
 870 270 l 2
 882 229 916 201 959 201 c 2
 1295 201 l 2
 1320 201 1341 223 1344 247 c 0
 1345 255 1345 262 1342 269 c 2
 1037 1139 l 2
 1022 1180 988 1207 944 1207 c 2
 602 1207 l 2
 558 1207 515 1180 489 1140 c 2
 -75 268 l 2
 -80 261 -83 253 -84 246 c 0
 -87 223 -72 201 -47 201 c 2
EndSplineSet
EndChar

StartChar: asciitilde
Encoding: 126 126 137
Width: 1467
VWidth: 0
GlyphClass: 2
Flags: HW
LayerCount: 2
Fore
SplineSet
602 795 m 0
 783 795 940 911 1112 911 c 0
 1185 911 1265 877 1341 829 c 1
 1351 821 1362 818 1371 818 c 0
 1399 818 1416 845 1428 872 c 0
 1434 885 1485 971 1488 995 c 0
 1491 1018 1479 1033 1457 1045 c 1
 1338 1119 1232 1153 1130 1153 c 0
 937 1153 791 1036 634 1036 c 0
 562 1036 491 1069 407 1129 c 0
 396 1137 386 1143 374 1143 c 0
 356 1143 341 1131 326 1107 c 1
 261 1007 l 2
 254 998 250 990 249 982 c 0
 246 962 259 942 279 928 c 1
 388 838 488 795 602 795 c 0
EndSplineSet
EndChar

StartChar: asterisk
Encoding: 42 42 138
Width: 1222
VWidth: 0
GlyphClass: 2
Flags: HW
LayerCount: 2
Fore
SplineSet
429 407 m 0
 467 407 503 431 525 466 c 2
 719 788 l 1
 822 466 l 2
 834 431 865 407 902 407 c 0
 956 407 1014 456 1022 516 c 0
 1034 600 874 787 821 858 c 1
 1161 936 l 2
 1206 946 1247 988 1254 1038 c 0
 1262 1095 1229 1151 1171 1151 c 0
 1113 1151 889 1022 801 975 c 1
 834 1096 880 1229 897 1348 c 0
 905 1407 866 1451 813 1451 c 0
 764 1451 706 1414 697 1353 c 0
 680 1232 689 1093 688 975 c 1
 611 1024 428 1151 369 1151 c 0
 311 1151 262 1095 254 1038 c 0
 247 988 276 946 319 936 c 2
 636 858 l 1
 559 784 352 600 340 516 c 0
 332 456 374 407 429 407 c 0
EndSplineSet
EndChar

StartChar: at
Encoding: 64 64 139
Width: 2086
VWidth: 0
GlyphClass: 2
Flags: HW
LayerCount: 2
Fore
SplineSet
1080 283 m 0
 890 283 823 412 844 559 c 0
 864 701 953 840 1158 840 c 0
 1312 840 1467 765 1439 564 c 0
 1409 348 1236 283 1080 283 c 0
952 -285 m 0
 1086 -285 1199 -264 1307 -224 c 0
 1323 -218 1341 -193 1338 -168 c 2
 1330 -90 l 2
 1327 -69 1312 -55 1295 -59 c 1
 1213 -87 1112 -106 1003 -106 c 0
 531 -106 383 241 432 590 c 0
 486 971 775 1285 1247 1285 c 0
 1713 1285 1910 975 1857 601 c 0
 1816 306 1758 277 1709 277 c 0
 1663 277 1626 310 1639 403 c 2
 1712 925 l 2
 1717 959 1693 986 1659 986 c 2
 1644 986 l 2
 1607 986 1578 974 1566 936 c 1
 1530 811 l 2
 1527 803 1526 798 1523 798 c 0
 1520 798 1518 802 1515 810 c 0
 1477 927 1346 1031 1153 1031 c 0
 889 1031 656 865 615 573 c 0
 572 264 783 101 1047 101 c 0
 1250 101 1377 208 1457 315 c 0
 1464 324 1473 339 1480 339 c 0
 1487 339 1490 322 1490 301 c 1
 1482 205 1573 127 1685 127 c 0
 1825 127 1995 247 2045 601 c 1
 2108 1061 1846 1475 1270 1475 c 0
 693 1475 279 1089 210 595 c 0
 145 131 375 -285 952 -285 c 0
EndSplineSet
EndChar

StartChar: b
Encoding: 98 98 141
Width: 1824
VWidth: 0
GlyphClass: 2
Flags: W
HStem: 794 118<773 1030>
DStem2: 154 67 703 513 0.139384 0.990238<366.468 680.865 922.983 1383.39>
LayerCount: 2
Fore
SplineSet
949 231 m 0
 765 231 682 361 703 513 c 0
 724 664 846 794 1030 794 c 0
 1204 794 1290 667 1268 513 c 0
 1247 362 1127 231 949 231 c 0
1037 -41 m 0
 1362 -41 1723 129 1775 499 c 0
 1830 889 1524 1053 1219 1053 c 0
 1057 1053 895 1005 783 916 c 0
 779 913 776 912 773 912 c 0
 765 912 760 919 761 929 c 2
 822 1360 l 2
 828 1403 804 1436 766 1436 c 2
 414 1436 l 2
 376 1436 342 1403 336 1360 c 2
 154 67 l 2
 148 24 159 0 197 0 c 2
 288 0 l 2
 328 0 349 29 379 75 c 1
 427 141 452 179 467 201 c 0
 473 209 479 213 484 213 c 0
 489 213 494 210 497 205 c 0
 595 42 812 -41 1037 -41 c 0
EndSplineSet
EndChar

StartChar: backslash
Encoding: 92 92 142
Width: 1297
VWidth: 0
GlyphClass: 2
Flags: HW
LayerCount: 2
Fore
SplineSet
719 -216 m 2
 1163 -215 l 2
 1177 -215 1189 -203 1191 -189 c 0
 1191 -186 1192 -183 1191 -180 c 2
 801 1603 l 1
 797 1624 780 1638 760 1638 c 2
 316 1638 l 2
 302 1638 291 1626 289 1612 c 0
 289 1609 288 1606 289 1603 c 2
 677 -181 l 2
 681 -202 699 -216 719 -216 c 2
EndSplineSet
EndChar

StartChar: bar
Encoding: 124 124 143
Width: 572
VWidth: 0
GlyphClass: 2
Flags: HW
LayerCount: 2
Fore
SplineSet
197 -150 m 2
 333 -150 l 2
 373 -150 409 -119 415 -76 c 2
 634 1481 l 2
 640 1524 612 1555 572 1555 c 2
 437 1555 l 2
 397 1555 361 1524 355 1481 c 2
 136 -76 l 2
 130 -119 157 -150 197 -150 c 2
EndSplineSet
EndChar

StartChar: braceleft
Encoding: 123 123 144
Width: 1084
VWidth: 0
GlyphClass: 2
Flags: HW
LayerCount: 2
Fore
SplineSet
659 -123 m 2
 880 -123 l 2
 919 -123 956 -91 962 -49 c 2
 976 52 l 2
 983 104 964 132 918 141 c 0
 804 165 788 179 806 310 c 2
 820 412 l 2
 835 522 805 654 682 695 c 0
 676 697 674 704 675 710 c 0
 676 716 679 723 686 725 c 0
 825 762 888 896 904 1008 c 2
 918 1110 l 2
 936 1239 956 1255 1077 1279 c 0
 1126 1288 1154 1316 1161 1368 c 2
 1175 1469 l 2
 1181 1511 1153 1543 1114 1543 c 2
 893 1543 l 2
 672 1543 597 1399 544 1228 c 1
 487 1037 451 886 307 851 c 0
 253 837 228 807 214 710 c 0
 202 623 217 583 267 569 c 0
 402 534 395 383 398 192 c 1
 403 21 438 -123 659 -123 c 2
EndSplineSet
EndChar

StartChar: braceright
Encoding: 125 125 145
Width: 1087
VWidth: 0
GlyphClass: 2
Flags: HW
LayerCount: 2
Fore
SplineSet
172 -123 m 2
 392 -123 l 2
 612 -123 688 21 741 192 c 1
 798 383 835 535 978 569 c 1
 1032 583 1056 613 1070 710 c 0
 1082 797 1067 837 1017 851 c 1
 883 885 889 1037 886 1228 c 1
 881 1399 846 1543 626 1543 c 2
 406 1543 l 2
 367 1543 330 1511 324 1469 c 2
 310 1368 l 2
 303 1316 322 1288 368 1279 c 0
 481 1255 497 1241 479 1110 c 2
 465 1008 l 2
 450 898 479 766 602 725 c 0
 608 723 611 716 610 710 c 0
 609 704 605 697 598 695 c 0
 459 658 397 524 381 412 c 2
 366 310 l 2
 348 181 328 165 208 141 c 0
 159 132 132 104 125 52 c 2
 111 -49 l 2
 105 -91 133 -123 172 -123 c 2
EndSplineSet
EndChar

StartChar: bracketleft
Encoding: 91 91 146
Width: 1281
VWidth: 0
GlyphClass: 2
Flags: HW
LayerCount: 2
Fore
SplineSet
194 -174 m 2
 1069 -174 l 2
 1109 -174 1143 -143 1149 -100 c 2
 1177 102 l 2
 1183 145 1158 176 1118 176 c 2
 767 176 l 2
 748 176 736 192 739 212 c 2
 885 1251 l 2
 888 1271 904 1286 923 1286 c 2
 1274 1286 l 2
 1314 1286 1348 1317 1354 1360 c 2
 1383 1564 l 2
 1389 1607 1363 1638 1323 1638 c 2
 448 1638 l 2
 408 1638 372 1604 366 1561 c 2
 133 -97 l 2
 127 -140 154 -174 194 -174 c 2
EndSplineSet
EndChar

StartChar: bracketright
Encoding: 93 93 147
Width: 1282
VWidth: 0
GlyphClass: 2
Flags: HW
LayerCount: 2
Fore
SplineSet
165 -174 m 2
 1040 -174 l 2
 1080 -174 1116 -140 1122 -97 c 2
 1355 1561 l 2
 1361 1604 1334 1638 1294 1638 c 2
 419 1638 l 2
 379 1638 344 1607 338 1564 c 2
 310 1362 l 2
 304 1319 330 1288 370 1288 c 2
 721 1288 l 2
 740 1288 751 1272 748 1252 c 2
 602 213 l 2
 599 193 584 178 565 178 c 2
 214 178 l 2
 174 178 139 147 133 104 c 2
 104 -100 l 2
 98 -143 125 -174 165 -174 c 2
EndSplineSet
EndChar

StartChar: breve
Encoding: 728 728 148
Width: 1258
VWidth: 0
GlyphClass: 4
Flags: W
HStem: 1192 159<724.695 906.38>
VStem: 476 233<1371.4 1505> 949 232<1400.31 1505>
AnchorPoint: "top" 678 1043 mark 0
LayerCount: 2
Fore
SplineSet
786 1192 m 0
 939 1192 1139 1223 1181 1505 c 1
 949 1505 l 1
 932 1399 882 1351 808 1351 c 0
 733 1351 696 1400 709 1505 c 1
 476 1505 l 1
 439 1223 632 1192 786 1192 c 0
EndSplineSet
EndChar

StartChar: brokenbar
Encoding: 166 166 149
Width: 567
VWidth: 0
GlyphClass: 2
Flags: HW
LayerCount: 2
Fore
SplineSet
330 819 m 2
 468 819 l 2
 508 819 542 853 548 896 c 2
 630 1478 l 2
 636 1521 612 1555 572 1555 c 2
 433 1555 l 2
 393 1555 359 1521 353 1478 c 2
 272 896 l 2
 266 853 290 819 330 819 c 2
193 -150 m 2
 332 -150 l 2
 372 -150 406 -116 412 -73 c 2
 493 509 l 2
 499 552 475 586 435 586 c 2
 297 586 l 2
 257 586 223 552 217 509 c 2
 135 -73 l 2
 129 -116 153 -150 193 -150 c 2
EndSplineSet
EndChar

StartChar: c
Encoding: 99 99 150
Width: 1615
VWidth: 0
GlyphClass: 2
Flags: W
HStem: -41 272<807.246 1282.09> 778 275<859.214 1343.26>
AnchorPoint: "top" 994 1024 basechar 0
AnchorPoint: "bot" 1034 0 basechar 0
LayerCount: 2
Fore
SplineSet
899 -41 m 0
 1085 -41 1287 -6 1439 49 c 0
 1469 59 1489 86 1493 115 c 0
 1494 123 1494 131 1493 139 c 0
 1491 149 1475 246 1473 253 c 0
 1468 284 1448 301 1421 301 c 0
 1413 301 1405 300 1396 297 c 0
 1297 265 1153 231 1022 231 c 0
 828 231 668 300 697 509 c 0
 725 710 895 778 1072 778 c 0
 1210 778 1348 738 1444 699 c 0
 1452 696 1461 694 1469 694 c 0
 1495 694 1520 709 1536 741 c 1
 1552 775 1573 818 1589 852 c 0
 1593 860 1595 868 1596 876 c 0
 1600 906 1588 936 1563 949 c 0
 1432 1013 1238 1053 1042 1053 c 0
 664 1053 246 910 190 509 c 0
 132 96 510 -41 899 -41 c 0
EndSplineSet
EndChar

StartChar: caron
Encoding: 711 711 152
Width: 923
VWidth: 0
GlyphClass: 4
Flags: W
HStem: 1174 213<588.5 731.203>
AnchorPoint: "top" 457 1051 mark 0
LayerCount: 2
Fore
SplineSet
583 1174 m 2
 666 1174 l 2
 712 1174 767 1203 808 1250 c 2
 1003 1469 l 2
 1012 1479 1016 1490 1018 1501 c 0
 1021 1523 1012 1545 994 1545 c 2
 945 1545 l 2
 899 1545 854 1523 810 1490 c 2
 687 1398 l 2
 677 1390 665 1387 654 1387 c 0
 643 1387 633 1390 623 1398 c 1
 527 1490 l 2
 492 1523 452 1545 406 1545 c 2
 359 1545 l 2
 341 1545 326 1523 323 1501 c 0
 321 1490 323 1479 329 1469 c 2
 460 1250 l 2
 488 1203 536 1174 583 1174 c 2
EndSplineSet
EndChar

StartChar: cedilla
Encoding: 184 184 157
Width: 660
VWidth: 0
GlyphClass: 4
Flags: W
HStem: -642 110<249.911 365.924> -254 98<291.094 312 334 380.581>
AnchorPoint: "bot" 410 -150 mark 0
LayerCount: 2
Fore
SplineSet
162 -373 m 2
 123 -373 109 -422 103 -464 c 0
 88 -572 175 -642 281 -642 c 0
 415 -642 525 -569 550 -391 c 0
 566 -280 507 -156 407 -156 c 2
 312 -156 l 2
 300 -156 296 -163 295 -173 c 2
 285 -244 l 2
 283 -255 298 -254 298 -254 c 1
 334 -254 l 2
 380 -254 399 -331 388 -407 c 0
 375 -499 347 -532 303 -532 c 0
 257 -532 241 -493 247 -451 c 0
 249 -436 255 -419 257 -404 c 0
 259 -386 257 -373 234 -373 c 2
 162 -373 l 2
EndSplineSet
EndChar

StartChar: cent
Encoding: 162 162 158
Width: 1635
VWidth: 0
GlyphClass: 2
Flags: HW
LayerCount: 2
Fore
SplineSet
903 257 m 1
 775 284 686 359 707 506 c 0
 728 654 839 726 972 749 c 1
 903 257 l 1
901 -204 m 2
 950 -204 l 2
 990 -204 1014 -190 1020 -147 c 2
 1040 -3 l 1
 1190 8 1341 38 1462 77 c 0
 1492 86 1513 113 1517 141 c 0
 1518 148 1518 155 1517 162 c 0
 1510 197 1503 233 1497 266 c 0
 1491 294 1469 311 1441 311 c 0
 1433 311 1426 310 1417 307 c 0
 1327 280 1198 251 1075 245 c 1
 1147 756 l 1
 1267 747 1378 715 1460 683 c 0
 1468 680 1478 679 1486 679 c 0
 1513 679 1539 693 1554 723 c 0
 1569 753 1590 794 1606 825 c 0
 1610 832 1612 840 1613 848 c 0
 1617 876 1604 904 1579 916 c 0
 1475 963 1332 995 1182 1007 c 1
 1211 1214 l 2
 1217 1257 1197 1271 1157 1271 c 2
 1108 1271 l 2
 1068 1271 1044 1257 1038 1214 c 2
 1009 1012 l 1
 636 1002 239 865 189 506 c 0
 137 138 488 6 866 -5 c 1
 846 -147 l 2
 840 -190 861 -204 901 -204 c 2
EndSplineSet
EndChar

StartChar: circumflex
Encoding: 710 710 159
Width: 867
VWidth: 0
GlyphClass: 4
Flags: W
HStem: 1326 213<536.156 678.5>
AnchorPoint: "top" 428 1007 mark 0
LayerCount: 2
Fore
SplineSet
274 1168 m 2
 322 1168 l 2
 368 1168 413 1190 458 1223 c 2
 580 1315 l 2
 590 1323 603 1326 614 1326 c 0
 625 1326 635 1323 644 1315 c 2
 740 1223 l 2
 775 1190 815 1168 861 1168 c 2
 909 1168 l 2
 927 1168 941 1190 944 1212 c 0
 946 1223 944 1234 939 1244 c 2
 807 1463 l 2
 779 1510 732 1539 684 1539 c 2
 601 1539 l 2
 555 1539 500 1510 459 1463 c 2
 264 1244 l 2
 255 1234 252 1223 250 1212 c 0
 247 1190 255 1168 274 1168 c 2
EndSplineSet
EndChar

StartChar: colon
Encoding: 58 58 160
Width: 617
VWidth: 0
GlyphClass: 2
Flags: HW
LayerCount: 2
Fore
SplineSet
303 671 m 2
 501 671 l 2
 541 671 578 705 584 748 c 2
 610 936 l 2
 616 979 589 1013 549 1013 c 2
 351 1013 l 2
 311 1013 275 979 269 936 c 2
 243 748 l 2
 237 705 263 671 303 671 c 2
209 0 m 2
 407 0 l 2
 447 0 484 34 490 77 c 2
 516 265 l 2
 522 308 495 342 455 342 c 2
 257 342 l 2
 217 342 181 308 175 265 c 2
 148 77 l 2
 142 34 169 0 209 0 c 2
EndSplineSet
EndChar

StartChar: comma
Encoding: 44 44 161
Width: 597
VWidth: 0
GlyphClass: 4
Flags: W
AnchorPoint: "bot" 296 432 mark 0
LayerCount: 2
Fore
SplineSet
142 -336 m 0
 274 -313 451 -202 484 36 c 2
 517 268 l 2
 523 311 496 345 456 345 c 2
 223 345 l 2
 183 345 163 313 157 270 c 2
 129 67 l 2
 124 29 140 0 175 0 c 2
 248 0 l 2
 262 0 262 -11 260 -27 c 0
 257 -51 230 -128 160 -171 c 0
 116 -198 93 -192 85 -246 c 2
 78 -291 l 2
 74 -322 99 -337 127 -337 c 0
 132 -337 137 -337 142 -336 c 0
EndSplineSet
EndChar

StartChar: copyright
Encoding: 169 169 162
Width: 1767
VWidth: 0
GlyphClass: 2
Flags: HW
LayerCount: 2
Fore
SplineSet
877 -41 m 0
 1383 -41 1686 318 1742 717 c 0
 1798 1116 1596 1475 1090 1475 c 0
 584 1475 281 1116 225 717 c 0
 169 318 371 -41 877 -41 c 0
903 124 m 0
 485 124 373 440 411 713 c 0
 451 998 651 1307 1069 1307 c 0
 1487 1307 1599 998 1559 713 c 0
 1521 440 1321 124 903 124 c 0
964 330 m 0
 1070 330 1183 356 1269 394 c 0
 1285 401 1298 422 1301 444 c 0
 1302 450 1302 456 1301 462 c 0
 1299 491 1296 517 1293 546 c 1
 1292 568 1281 583 1266 583 c 0
 1262 583 1257 582 1253 580 c 0
 1193 556 1112 535 1041 535 c 0
 934 535 848 581 869 731 c 0
 889 872 981 920 1082 920 c 0
 1154 920 1230 893 1284 864 c 0
 1288 862 1292 861 1296 861 c 0
 1312 861 1329 876 1339 900 c 1
 1348 928 1369 969 1374 1003 c 0
 1377 1024 1374 1042 1357 1053 c 0
 1286 1098 1180 1127 1068 1127 c 0
 860 1127 624 1022 583 731 c 0
 541 432 743 330 964 330 c 0
EndSplineSet
EndChar

StartChar: currency
Encoding: 164 164 163
Width: 1260
VWidth: 0
GlyphClass: 2
Flags: HW
LayerCount: 2
Fore
SplineSet
711 580 m 0
 468 580 404 769 427 931 c 0
 451 1102 567 1285 810 1285 c 0
 1052 1285 1117 1102 1093 931 c 0
 1070 769 953 580 711 580 c 0
689 426 m 0
 814 426 916 459 1004 515 c 1
 1029 484 l 2
 1045 463 1058 445 1076 445 c 0
 1083 445 1092 449 1101 457 c 2
 1136 490 l 2
 1147 500 1152 509 1153 518 c 0
 1156 537 1142 554 1125 575 c 2
 1106 599 l 1
 1190 689 1244 805 1262 931 c 0
 1280 1059 1258 1177 1197 1268 c 1
 1226 1295 l 2
 1248 1316 1268 1334 1271 1352 c 0
 1272 1360 1269 1368 1263 1377 c 2
 1237 1409 l 2
 1229 1419 1221 1423 1213 1423 c 0
 1195 1423 1176 1406 1154 1385 c 2
 1119 1352 l 1
 1048 1407 955 1440 832 1440 c 0
 709 1440 607 1407 520 1352 c 1
 493 1386 l 2
 477 1406 464 1423 446 1423 c 0
 438 1423 428 1419 417 1409 c 2
 383 1377 l 2
 374 1369 369 1360 368 1352 c 0
 365 1334 379 1316 396 1295 c 2
 417 1268 l 1
 331 1177 276 1059 258 931 c 0
 240 805 261 688 321 599 c 1
 295 574 l 2
 274 554 255 537 252 518 c 0
 251 509 253 499 261 489 c 2
 286 457 l 2
 292 448 301 445 308 445 c 0
 325 445 345 463 367 484 c 2
 400 515 l 1
 471 459 564 426 689 426 c 0
EndSplineSet
EndChar

StartChar: d
Encoding: 100 100 164
Width: 1825
VWidth: 0
GlyphClass: 2
Flags: W
HStem: -41 272<613 1059.28> 794 259<855.369 1151.89>
DStem2: 1266 513 1691 76 0.138829 0.990316<-169.47 151.329 400.168 932.698>
LayerCount: 2
Fore
SplineSet
941 231 m 0
 763 231 680 362 701 513 c 0
 723 667 843 794 1019 794 c 0
 1202 794 1287 665 1266 513 c 0
 1245 361 1125 231 941 231 c 0
776 -41 m 0
 1000 -41 1239 41 1382 201 c 0
 1388 207 1395 211 1401 212 c 1
 1408 211 1414 206 1418 198 c 1
 1419 192 1469 71 1471 65 c 0
 1487 26 1504 0 1543 0 c 2
 1615 0 l 2
 1653 0 1685 33 1691 76 c 2
 1871 1360 l 2
 1877 1403 1853 1436 1815 1436 c 2
 1464 1436 l 2
 1426 1436 1392 1403 1386 1360 c 2
 1325 930 l 2
 1324 920 1316 911 1309 911 c 1
 1306 912 1303 913 1300 916 c 0
 1212 1005 1064 1053 901 1053 c 0
 596 1053 245 889 190 499 c 0
 138 129 450 -41 776 -41 c 0
EndSplineSet
EndChar

StartChar: dagger
Encoding: 8224 8224 165
Width: 1798
VWidth: 0
GlyphClass: 2
Flags: HW
LayerCount: 2
Fore
SplineSet
744 0 m 2
 1053 0 l 2
 1093 0 1124 29 1130 72 c 2
 1295 1243 l 2
 1298 1263 1310 1274 1329 1274 c 2
 1641 1274 l 2
 1681 1274 1713 1308 1719 1351 c 2
 1734 1459 l 2
 1740 1502 1718 1536 1678 1536 c 2
 1337 1536 l 1
 1388 1901 l 2
 1394 1944 1372 1973 1332 1973 c 2
 1022 1973 l 2
 982 1973 951 1944 945 1901 c 2
 894 1536 l 1
 549 1536 l 2
 509 1536 478 1502 472 1459 c 2
 457 1351 l 2
 451 1308 473 1274 513 1274 c 2
 826 1274 l 2
 845 1274 854 1263 851 1243 c 2
 687 72 l 2
 681 29 704 0 744 0 c 2
EndSplineSet
EndChar

StartChar: daggerdbl
Encoding: 8225 8225 166
Width: 1798
VWidth: 0
GlyphClass: 2
Flags: HW
LayerCount: 2
Fore
SplineSet
744 0 m 2
 1053 0 l 2
 1093 0 1124 29 1130 72 c 2
 1196 541 l 1
 1538 541 l 2
 1578 541 1609 575 1615 618 c 2
 1631 726 l 2
 1637 769 1615 803 1575 803 c 2
 1233 803 l 1
 1295 1243 l 2
 1298 1263 1310 1274 1329 1274 c 2
 1641 1274 l 2
 1681 1274 1713 1308 1719 1351 c 2
 1734 1459 l 2
 1740 1502 1718 1536 1678 1536 c 2
 1337 1536 l 1
 1388 1901 l 2
 1394 1944 1372 1973 1332 1973 c 2
 1022 1973 l 2
 982 1973 951 1944 945 1901 c 2
 894 1536 l 1
 549 1536 l 2
 509 1536 478 1502 472 1459 c 2
 457 1351 l 2
 451 1308 473 1274 513 1274 c 2
 826 1274 l 2
 845 1274 854 1263 851 1243 c 2
 790 803 l 1
 446 803 l 2
 406 803 375 769 369 726 c 2
 353 618 l 2
 347 575 370 541 410 541 c 2
 753 541 l 1
 687 72 l 2
 681 29 704 0 744 0 c 2
EndSplineSet
EndChar

StartChar: dcroat
Encoding: 273 273 168
Width: 1824
VWidth: 0
GlyphClass: 2
Flags: HW
LayerCount: 2
Fore
SplineSet
941 231 m 0
 763 231 680 362 701 513 c 0
 723 667 843 794 1019 794 c 0
 1202 794 1287 665 1266 513 c 0
 1245 361 1125 231 941 231 c 0
776 -41 m 0
 1000 -41 1239 41 1382 201 c 0
 1388 207 1395 211 1401 212 c 1
 1408 211 1414 206 1418 198 c 1
 1419 192 1469 71 1471 65 c 0
 1487 26 1522 0 1561 0 c 2
 1615 0 l 2
 1653 0 1685 33 1691 76 c 2
 1839 1130 l 1
 1939 1130 l 2
 1976 1130 1994 1156 2000 1199 c 2
 2006 1241 l 2
 2012 1284 2001 1310 1964 1310 c 2
 1864 1310 l 1
 1871 1360 l 2
 1877 1403 1853 1436 1815 1436 c 2
 1464 1436 l 2
 1426 1436 1392 1403 1386 1360 c 2
 1379 1310 l 1
 1111 1310 l 2
 1074 1310 1056 1284 1050 1241 c 2
 1044 1199 l 2
 1038 1156 1049 1130 1086 1130 c 2
 1353 1130 l 1
 1325 930 l 2
 1324 920 1316 911 1309 911 c 1
 1306 912 1303 913 1300 916 c 0
 1212 1005 1064 1053 901 1053 c 0
 596 1053 245 889 190 499 c 0
 138 129 450 -41 776 -41 c 0
EndSplineSet
EndChar

StartChar: degree
Encoding: 176 176 169
Width: 1252
VWidth: 0
GlyphClass: 2
Flags: HW
LayerCount: 2
Fore
SplineSet
675 362 m 0
 1004 362 1212 596 1251 870 c 0
 1290 1145 1147 1381 818 1381 c 0
 489 1381 281 1145 242 870 c 0
 203 596 346 362 675 362 c 0
697 519 m 0
 454 519 391 707 414 870 c 0
 438 1041 553 1224 796 1224 c 0
 1038 1224 1104 1041 1080 870 c 0
 1057 707 939 519 697 519 c 0
EndSplineSet
EndChar

StartChar: dieresis
Encoding: 168 168 170
Width: 1170
VWidth: 0
GlyphClass: 4
Flags: W
HStem: 1200 284<346.796 418 512 582.027 965.78 1036 1130 1200.22>
AnchorPoint: "top" 610 983 mark 0
LayerCount: 2
Fore
SplineSet
996 1200 m 2
 1130 1200 l 2
 1170 1200 1206 1234 1212 1277 c 2
 1231 1407 l 2
 1237 1450 1210 1484 1170 1484 c 2
 1036 1484 l 2
 996 1484 960 1450 954 1407 c 2
 935 1277 l 2
 929 1234 956 1200 996 1200 c 2
378 1200 m 2
 512 1200 l 2
 552 1200 588 1234 594 1277 c 2
 612 1407 l 2
 618 1450 592 1484 552 1484 c 2
 418 1484 l 2
 378 1484 341 1450 335 1407 c 2
 317 1277 l 2
 311 1234 338 1200 378 1200 c 2
EndSplineSet
EndChar

StartChar: divide
Encoding: 247 247 171
Width: 1195
VWidth: 0
GlyphClass: 2
Flags: HW
LayerCount: 2
Fore
SplineSet
647 757 m 2
 773 757 l 2
 813 757 850 791 856 834 c 2
 876 978 l 2
 882 1021 855 1055 815 1055 c 2
 689 1055 l 2
 649 1055 612 1021 606 978 c 2
 586 834 l 2
 580 791 607 757 647 757 c 2
238 428 m 2
 1079 428 l 2
 1119 428 1144 452 1150 495 c 2
 1163 587 l 2
 1169 630 1151 654 1111 654 c 2
 270 654 l 2
 230 654 204 630 198 587 c 2
 185 495 l 2
 179 452 198 428 238 428 c 2
541 1 m 2
 667 1 l 2
 707 1 744 35 750 78 c 2
 770 222 l 2
 776 265 749 299 709 299 c 2
 583 299 l 2
 543 299 506 265 500 222 c 2
 480 78 l 2
 474 35 501 1 541 1 c 2
EndSplineSet
EndChar

StartChar: dollar
Encoding: 36 36 172
Width: 2344
VWidth: 0
GlyphClass: 2
Flags: HW
LayerCount: 2
Fore
SplineSet
1210 931 m 1
 987 948 931 971 940 1035 c 0
 950 1108 1077 1124 1237 1124 c 1
 1210 931 l 1
1247 315 m 1
 1275 516 l 1
 1449 514 1513 485 1502 410 c 0
 1492 340 1404 316 1262 315 c 1
 1247 315 l 1
1083 -197 m 2
 1143 -197 l 2
 1161 -197 1180 -163 1186 -117 c 2
 1197 -40 l 1
 1881 -27 2146 118 2194 456 c 0
 2249 846 1791 903 1332 923 c 1
 1360 1122 l 1
 1539 1115 1765 1083 1952 1016 c 0
 1959 1014 1967 1013 1974 1013 c 0
 2007 1013 2037 1034 2055 1062 c 0
 2055 1064 2160 1238 2160 1239 c 0
 2165 1247 2168 1256 2169 1265 c 0
 2173 1293 2161 1320 2138 1331 c 0
 1944 1417 1706 1462 1409 1472 c 1
 1422 1563 l 2
 1429 1610 1420 1643 1402 1643 c 2
 1342 1643 l 2
 1324 1643 1306 1610 1299 1563 c 2
 1287 1475 l 1
 798 1475 338 1427 276 989 c 0
 220 594 672 550 1153 523 c 1
 1124 317 l 1
 823 326 605 372 385 443 c 0
 378 445 371 446 364 446 c 0
 334 446 303 428 285 397 c 2
 285 397 171 197 171 196 c 0
 167 188 164 180 163 171 c 0
 159 143 171 114 195 105 c 0
 472 -9 768 -40 1074 -41 c 1
 1063 -117 l 2
 1057 -163 1065 -197 1083 -197 c 2
EndSplineSet
EndChar

StartChar: dotaccent
Encoding: 729 729 173
Width: 561
VWidth: 0
GlyphClass: 4
Flags: HW
AnchorPoint: "top" 14 6 mark 0
LayerCount: 2
Fore
SplineSet
115 49 m 2
 313 49 l 2
 353 49 389 83 395 126 c 2
 422 314 l 2
 428 357 401 391 361 391 c 2
 163 391 l 2
 123 391 87 357 81 314 c 2
 54 126 l 2
 48 83 75 49 115 49 c 2
EndSplineSet
EndChar

StartChar: dotlessi
Encoding: 305 305 174
Width: 767
VWidth: 0
GlyphClass: 2
Flags: W
DStem2: 150 76 639 76 0.138989 0.990294<-9.90586 940.81>
AnchorPoint: "top" 431 1006 basechar 0
LayerCount: 2
Fore
SplineSet
207 0 m 2
 561 0 l 2
 599 0 633 33 639 76 c 2
 759 931 l 2
 765 974 740 1006 702 1006 c 2
 348 1006 l 2
 310 1006 276 974 270 931 c 2
 150 76 l 2
 144 33 169 0 207 0 c 2
EndSplineSet
EndChar

StartChar: dotlessj
Encoding: 567 567 175
Width: 1064
VWidth: 0
GlyphClass: 2
Flags: W
HStem: -446 300<30.1968 354.321>
DStem2: 425 14 920 11 0.138859 0.990312<-120.931 1002.72>
AnchorPoint: "top" 718 1006 basechar 0
LayerCount: 2
Fore
SplineSet
920 11 m 1
 1049 931 l 2
 1055 974 1031 1006 992 1006 c 2
 632 1006 l 2
 593 1006 560 974 554 931 c 2
 425 14 l 2
 408 -110 311 -146 205 -146 c 0
 170 -146 123 -139 93 -139 c 0
 60 -139 31 -168 26 -206 c 2
 6 -344 l 2
 0 -388 23 -424 61 -429 c 0
 119 -438 193 -446 268 -446 c 0
 577 -446 871 -334 920 11 c 1
EndSplineSet
EndChar

StartChar: e
Encoding: 101 101 176
Width: 1701
VWidth: 0
GlyphClass: 2
Flags: W
HStem: -41 251<789.074 1294.53> 835 218<844.87 1156.99>
AnchorPoint: "top" 1005 1010 basechar 0
AnchorPoint: "bot" 1085 0 basechar 0
LayerCount: 2
Fore
SplineSet
728 615 m 2
 717 615 720 631 722 644 c 1
 746 753 872 835 1008 835 c 0
 1158 835 1232 747 1230 639 c 1
 1228 628 1228 615 1217 615 c 2
 728 615 l 2
927 -41 m 0
 1052 -41 1336 1 1478 50 c 0
 1511 61 1525 86 1529 114 c 0
 1534 153 1522 199 1517 232 c 0
 1512 262 1492 279 1465 279 c 0
 1457 279 1450 278 1441 275 c 0
 1342 243 1164 210 1021 210 c 0
 842 210 667 262 689 419 c 0
 691 434 702 449 715 449 c 2
 1597 449 l 2
 1627 449 1644 469 1649 490 c 0
 1650 500 1654 521 1656 533 c 0
 1704 918 1357 1053 1030 1053 c 0
 685 1053 254 954 191 504 c 0
 126 44 578 -41 927 -41 c 0
EndSplineSet
EndChar

StartChar: eight
Encoding: 56 56 184
Width: 2101
VWidth: 0
GlyphClass: 2
Flags: HW
LayerCount: 2
Fore
SplineSet
1420 861 m 1
 1309 874 1202 889 1148 899 c 0
 959 931 889 987 903 1088 c 0
 923 1232 1063 1277 1231 1277 c 0
 1398 1277 1525 1214 1504 1067 c 0
 1493 991 1443 894 1420 861 c 1
1081 205 m 0
 850 205 754 280 781 474 c 0
 793 559 823 627 870 671 c 1
 936 656 1009 643 1075 633 c 1
 1270 600 1470 564 1450 422 c 0
 1428 265 1321 205 1081 205 c 0
1046 -41 m 0
 1477 -41 1985 49 2040 437 c 0
 2066 625 1931 724 1768 789 c 1
 1882 830 2021 947 2039 1075 c 0
 2085 1402 1638 1475 1259 1475 c 0
 878 1475 388 1425 342 1099 c 0
 320 941 458 847 562 797 c 1
 402 752 214 627 188 440 c 0
 129 20 614 -41 1046 -41 c 0
EndSplineSet
EndChar

StartChar: emdash
Encoding: 8212 8212 187
Width: 1899
VWidth: 0
GlyphClass: 2
Flags: HW
LayerCount: 2
Fore
SplineSet
240 422 m 2
 1775 422 l 2
 1810 422 1844 456 1850 498 c 2
 1875 676 l 2
 1881 716 1856 748 1821 748 c 2
 286 748 l 2
 252 748 220 717 214 677 c 2
 189 495 l 2
 183 454 206 422 240 422 c 2
EndSplineSet
EndChar

StartChar: endash
Encoding: 8211 8211 188
Width: 947
VWidth: 0
GlyphClass: 2
Flags: HW
LayerCount: 2
Fore
SplineSet
229 422 m 2
 844 422 l 2
 877 422 910 453 915 492 c 2
 941 680 l 2
 946 718 923 748 890 748 c 2
 275 748 l 2
 242 748 209 717 204 678 c 2
 178 493 l 2
 173 454 196 422 229 422 c 2
EndSplineSet
EndChar

StartChar: eng
Encoding: 331 331 189
Width: 1827
VWidth: 0
GlyphClass: 2
Flags: HW
LayerCount: 2
Fore
SplineSet
837 -429 m 0
 895 -438 969 -446 1044 -446 c 0
 1075 -446 1105 -444 1135 -441 c 0
 1403 -419 1651 -305 1695 11 c 1
 1701 50 1725 211 1768 518 c 0
 1819 881 1582 1053 1194 1053 c 0
 981 1053 757 973 617 812 c 0
 611 805 604 801 597 801 c 0
 590 801 583 806 580 814 c 2
 528 942 l 2
 512 983 477 1006 435 1006 c 2
 347 1006 l 2
 308 1006 276 972 270 929 c 2
 150 76 l 2
 144 33 169 0 208 0 c 2
 566 0 l 2
 605 0 638 33 644 76 c 2
 705 513 l 2
 724 646 860 781 1037 781 c 0
 1204 781 1292 658 1272 513 c 2
 1201 14 l 2
 1184 -110 1087 -146 981 -146 c 0
 950 -146 903 -143 876 -140 c 0
 873 -140 872 -139 869 -139 c 0
 836 -139 806 -168 801 -206 c 2
 782 -344 l 2
 776 -388 799 -424 837 -429 c 0
EndSplineSet
EndChar

StartChar: equal
Encoding: 61 61 191
Width: 1061
VWidth: 0
GlyphClass: 2
Flags: HW
LayerCount: 2
Fore
SplineSet
287 621 m 2
 949 621 l 2
 989 621 1023 652 1029 695 c 2
 1042 788 l 2
 1048 831 1023 862 983 862 c 2
 321 862 l 2
 281 862 248 831 242 788 c 2
 229 695 l 2
 223 652 247 621 287 621 c 2
232 228 m 2
 894 228 l 2
 934 228 967 259 973 302 c 2
 986 394 l 2
 992 437 968 468 928 468 c 2
 266 468 l 2
 226 468 192 437 186 394 c 2
 173 302 l 2
 167 259 192 228 232 228 c 2
EndSplineSet
EndChar

StartChar: eth
Encoding: 240 240 192
Width: 1843
VWidth: 0
GlyphClass: 2
Flags: HW
LayerCount: 2
Fore
SplineSet
952 249 m 0
 769 249 644 290 668 462 c 0
 689 611 777 683 993 683 c 0
 1169 683 1317 618 1297 478 c 0
 1271 296 1134 249 952 249 c 0
900 -40 m 0
 1445 -40 1744 182 1805 613 c 0
 1850 936 1647 1189 1323 1358 c 1
 1356 1391 1404 1441 1433 1470 c 0
 1443 1480 1448 1493 1450 1505 c 0
 1452 1518 1451 1531 1443 1541 c 0
 1442 1541 1435 1550 1397 1598 c 0
 1389 1608 1378 1613 1366 1613 c 0
 1353 1613 1342 1608 1331 1597 c 0
 1293 1560 1219 1483 1166 1429 c 1
 1092 1459 1013 1486 933 1508 c 0
 924 1511 916 1512 909 1512 c 0
 887 1512 874 1502 860 1477 c 2
 782 1337 l 2
 777 1328 774 1317 773 1310 c 0
 771 1294 776 1283 788 1277 c 1
 847 1253 901 1229 950 1205 c 1
 921 1175 870 1123 846 1100 c 0
 836 1090 830 1077 828 1064 c 0
 826 1053 829 1039 835 1030 c 1
 881 973 l 2
 889 963 900 958 912 958 c 0
 925 958 936 963 947 974 c 0
 992 1019 1062 1088 1097 1123 c 1
 1256 1021 1318 923 1340 811 c 1
 1263 874 1074 903 929 903 c 0
 479 903 221 721 182 444 c 0
 135 110 379 -40 900 -40 c 0
EndSplineSet
EndChar

StartChar: exclam
Encoding: 33 33 193
Width: 787
VWidth: 0
GlyphClass: 2
Flags: HW
LayerCount: 2
Fore
SplineSet
401 515 m 2
 538 515 l 2
 578 515 605 549 616 591 c 2
 854 1442 l 1
 861 1485 836 1521 796 1521 c 2
 426 1521 l 2
 386 1521 350 1489 344 1446 c 1
 344 591 l 2
 345 549 361 515 401 515 c 2
206 0 m 2
 579 0 l 2
 619 0 655 33 661 76 c 2
 690 287 l 2
 696 330 670 363 630 363 c 2
 257 363 l 2
 217 363 182 330 176 287 c 2
 146 76 l 2
 140 33 166 0 206 0 c 2
EndSplineSet
EndChar

StartChar: f
Encoding: 102 102 195
Width: 1423
VWidth: 0
GlyphClass: 2
Flags: W
HStem: 799 207<252.591 318 426 439.001 1330 1396.65> 1199 276<1053.5 1440.7>
DStem2: 342 77 853 77 0.139732 0.990189<-7.92 723.065>
LayerCount: 2
Fore
SplineSet
400 0 m 2
 774 0 l 2
 812 0 847 34 853 77 c 2
 950 762 l 2
 953 782 957 799 975 799 c 2
 1330 799 l 2
 1369 799 1392 808 1398 851 c 2
 1412 951 l 2
 1418 994 1398 1006 1359 1006 c 2
 990 1006 l 2
 986 1006 985 1010 985 1013 c 2
 992 1062 l 2
 1005 1158 1097 1199 1245 1199 c 0
 1304 1199 1425 1181 1429 1181 c 0
 1460 1181 1468 1193 1473 1230 c 2
 1493 1377 l 2
 1497 1405 1481 1431 1457 1438 c 1
 1365 1456 1244 1475 1126 1475 c 0
 836 1475 543 1367 479 1044 c 0
 475 1022 473 1006 453 1006 c 2
 318 1006 l 2
 279 1006 255 988 249 945 c 2
 236 851 l 2
 230 808 250 799 289 799 c 2
 426 799 l 2
 444 799 442 782 439 762 c 2
 342 77 l 2
 336 34 362 0 400 0 c 2
EndSplineSet
EndChar

StartChar: five
Encoding: 53 53 196
Width: 2075
VWidth: 0
GlyphClass: 2
Flags: HW
LayerCount: 2
Fore
SplineSet
968 -40 m 1
 971 -40 l 2
 1534 -40 1961 56 2016 447 c 0
 2055 728 1892 934 1283 934 c 0
 1117 934 1000 903 894 863 c 1
 919 1057 l 2
 928 1119 952 1129 994 1129 c 2
 1902 1126 l 2
 1926 1126 1941 1139 1949 1170 c 0
 1953 1188 1998 1360 2001 1380 c 0
 2005 1410 1995 1438 1960 1438 c 2
 417 1438 l 2
 353 1438 327 1393 316 1318 c 1
 286 680 l 2
 284 639 287 598 349 598 c 2
 772 598 l 2
 913 598 913 699 1144 699 c 0
 1377 699 1413 591 1398 487 c 0
 1372 300 1169 270 1012 270 c 0
 701 270 327 361 292 368 c 0
 284 370 279 371 272 371 c 0
 248 371 232 358 224 327 c 0
 222 317 175 133 174 129 c 0
 170 99 183 82 216 72 c 0
 316 39 744 -39 968 -40 c 1
EndSplineSet
EndChar

StartChar: four
Encoding: 52 52 198
Width: 1925
VWidth: 0
GlyphClass: 2
Flags: HW
LayerCount: 2
Fore
SplineSet
1196 -151 m 2
 1491 -151 l 2
 1531 -151 1567 -118 1573 -75 c 2
 1607 172 l 1
 1759 172 l 2
 1799 172 1833 204 1839 247 c 2
 1869 456 l 2
 1875 499 1849 531 1809 531 c 2
 1658 531 l 1
 1775 1363 l 2
 1781 1406 1755 1438 1715 1438 c 2
 1419 1438 l 2
 1379 1438 1345 1406 1339 1363 c 2
 1222 531 l 1
 918 531 l 2
 900 531 887 546 889 563 c 0
 889 564 889 567 890 568 c 2
 1167 1363 l 2
 1168 1366 1168 1369 1169 1373 c 0
 1174 1410 1143 1438 1106 1438 c 2
 688 1438 l 2
 648 1438 623 1405 607 1363 c 1
 149 247 l 2
 148 243 147 239 146 235 c 0
 141 199 174 172 209 172 c 2
 1171 172 l 1
 1136 -75 l 2
 1130 -118 1156 -151 1196 -151 c 2
EndSplineSet
EndChar

StartChar: fraction
Encoding: 8260 8260 199
Width: 1303
VWidth: 0
GlyphClass: 2
Flags: HW
LayerCount: 2
Fore
SplineSet
73 -204 m 0
 85 -205 336 -206 338 -206 c 0
 367 -206 386 -188 397 -171 c 2
 1452 1594 l 2
 1455 1599 1460 1610 1461 1620 c 0
 1463 1634 1459 1647 1437 1647 c 2
 1191 1647 l 2
 1163 1647 1139 1638 1119 1605 c 2
 55 -171 l 2
 53 -174 52 -177 52 -181 c 0
 50 -192 56 -203 73 -204 c 0
EndSplineSet
EndChar

StartChar: g
Encoding: 103 103 200
Width: 1577
VWidth: 0
GlyphClass: 2
Flags: W
HStem: -732 295<467.79 1049.02> -204 334<509.705 707 956 1084.18> 275 243<666.923 1007.82> 832 221<701.56 1034.39>
AnchorPoint: "top" 699 1024 basechar 0
LayerCount: 2
Fore
SplineSet
829 518 m 0
 667 518 612 592 624 679 c 0
 635 758 708 832 873 832 c 0
 1034 832 1091 754 1079 667 c 0
 1068 588 996 518 829 518 c 0
699 -437 m 0
 504 -437 428 -389 435 -340 c 0
 440 -302 551 -204 575 -204 c 2
 956 -204 l 2
 1061 -204 1117 -262 1110 -314 c 0
 1101 -375 1075 -437 699 -437 c 0
671 -732 m 0
 1245 -732 1405 -534 1441 -281 c 0
 1471 -69 1382 130 979 130 c 2
 707 130 l 2
 538 130 457 143 466 204 c 0
 469 222 484 261 497 278 c 1
 508 294 534 308 550 304 c 0
 622 286 718 275 830 275 c 0
 1280 275 1441 465 1471 675 c 0
 1489 804 1408 913 1274 976 c 1
 1260 984 1256 1005 1267 1021 c 2
 1476 1316 l 2
 1481 1323 1484 1330 1485 1338 c 0
 1488 1360 1476 1380 1454 1380 c 2
 1261 1380 l 2
 1222 1380 1184 1348 1170 1306 c 2
 1088 1070 l 2
 1082 1051 1061 1036 1044 1039 c 0
 1003 1044 959 1053 906 1053 c 0
 443 1053 253 875 225 675 c 0
 211 577 252 474 331 397 c 0
 337 392 339 386 338 379 c 0
 337 371 332 363 323 358 c 0
 239 305 166 207 152 105 c 0
 138 8 198 -85 299 -138 c 0
 305 -142 309 -147 308 -154 c 0
 307 -159 302 -166 296 -169 c 0
 171 -248 94 -388 82 -472 c 0
 61 -621 242 -732 671 -732 c 0
EndSplineSet
EndChar

StartChar: germandbls
Encoding: 223 223 205
Width: 1834
VWidth: 0
GlyphClass: 2
Flags: HW
LayerCount: 2
Fore
SplineSet
209 0 m 2xf0
 555 0 l 2
 618 0 643 43 651 103 c 2
 765 920 l 2
 787 1077 865 1147 1029 1147 c 0
 1217 1147 1341 1136 1321 997 c 0xf0
 1307 897 1239 865 1067 861 c 1
 971 861 l 2
 929 861 918 832 915 811 c 2
 898 689 l 2
 895 670 905 646 941 646 c 2
 1022 646 l 2
 1240 646 1319 623 1301 497 c 0
 1281 356 1173 334 963 334 c 2
 901 334 l 2
 899 334 898 334 896 334 c 0
 855 334 838 299 835 277 c 2
 807 73 l 2
 802 37 808 0 851 0 c 2
 910 0 l 2
 1356 0 1728 96 1774 424 c 0xe8
 1797 590 1712 697 1579 758 c 0
 1566 764 1567 779 1580 787 c 0
 1683 847 1732 929 1748 1040 c 0
 1790 1339 1511 1438 1128 1438 c 2
 945 1438 l 2
 417 1438 315 1232 278 969 c 2
 153 77 l 2
 147 34 170 0 209 0 c 2xf0
EndSplineSet
EndChar

StartChar: grave
Encoding: 96 96 206
Width: 1596
VWidth: 0
GlyphClass: 4
Flags: W
HStem: 1172 446<934.047 983 1084 1133.6>
AnchorPoint: "top" 974 1024 mark 0
LayerCount: 2
Fore
SplineSet
983 1172 m 2
 1106 1172 l 2
 1107 1172 1109 1172 1110 1172 c 0
 1131 1172 1143 1179 1146 1202 c 0
 1147 1210 1147 1221 1146 1234 c 2
 1135 1563 l 2
 1133 1601 1120 1614 1084 1615 c 1
 1083 1618 861 1618 858 1618 c 0
 842 1618 811 1608 809 1594 c 1
 806 1591 805 1588 804 1584 c 0
 803 1576 806 1566 811 1555 c 2
 936 1211 l 1
 943 1195 949 1172 983 1172 c 2
EndSplineSet
EndChar

StartChar: greater
Encoding: 62 62 207
Width: 1193
VWidth: 0
GlyphClass: 2
Flags: HW
LayerCount: 2
Fore
SplineSet
169 -89 m 0
 176 -89 184 -87 192 -82 c 2
 1058 380 l 2
 1099 402 1130 445 1136 491 c 2
 1188 862 l 2
 1194 908 1177 953 1142 974 c 1
 406 1447 l 2
 398 1452 391 1455 384 1455 c 0
 364 1455 342 1436 338 1410 c 2
 291 1074 l 2
 285 1029 304 987 340 967 c 2
 802 713 l 2
 808 710 810 703 809 697 c 0
 808 691 805 686 798 682 c 2
 264 423 l 1
 222 404 191 364 185 318 c 2
 134 -43 l 2
 130 -70 147 -89 169 -89 c 0
EndSplineSet
EndChar

StartChar: greaterequal
Encoding: 8805 8805 208
Width: 1164
VWidth: 0
GlyphClass: 2
Flags: HW
LayerCount: 2
Fore
SplineSet
171 -2 m 0
 179 -2 189 1 200 7 c 2
 1037 399 l 1
 1077 422 1108 461 1114 504 c 2
 1151 767 l 2
 1157 811 1141 858 1104 877 c 2
 375 1260 l 2
 364 1267 355 1272 347 1272 c 0
 328 1272 312 1256 308 1230 c 2
 276 998 l 2
 270 954 288 918 325 896 c 1
 855 665 l 2
 861 662 863 656 862 651 c 0
 861 645 858 639 851 636 c 2
 253 386 l 1
 211 365 182 334 176 290 c 2
 141 42 l 2
 137 15 151 -2 171 -2 c 0
EndSplineSet
EndChar

StartChar: guillemotleft
Encoding: 171 171 209
Width: 1352
VWidth: 0
GlyphClass: 2
Flags: HW
LayerCount: 2
Fore
SplineSet
1169 29 m 0
 1203 29 1224 60 1227 80 c 2
 1241 182 l 2
 1250 246 1247 272 1206 323 c 1
 1000 501 l 1
 991 513 987 521 989 536 c 0
 991 550 995 556 1009 568 c 1
 1266 746 l 1
 1323 798 1331 825 1340 888 c 2
 1354 987 l 2
 1357 1006 1344 1036 1310 1036 c 0
 1295 1036 1276 1030 1252 1016 c 1
 862 768 l 1
 790 721 758 671 749 606 c 2
 728 453 l 2
 719 389 739 350 797 303 c 2
 1117 49 l 1
 1136 35 1154 29 1169 29 c 0
625 29 m 0
 659 29 681 60 684 80 c 2
 698 182 l 2
 707 246 704 272 663 323 c 1
 456 501 l 1
 447 513 444 521 446 536 c 0
 448 550 452 556 465 568 c 1
 722 746 l 1
 778 798 788 825 797 888 c 2
 811 987 l 2
 814 1006 801 1036 767 1036 c 0
 752 1036 733 1030 710 1016 c 2
 319 768 l 1
 247 721 215 671 206 606 c 2
 185 453 l 2
 176 389 196 350 254 303 c 2
 574 49 l 1
 593 35 611 29 625 29 c 0
EndSplineSet
EndChar

StartChar: guillemotright
Encoding: 187 187 210
Width: 1352
VWidth: 0
GlyphClass: 2
Flags: HW
LayerCount: 2
Fore
SplineSet
736 29 m 0
 751 29 770 36 793 49 c 1
 1184 297 l 1
 1256 344 1287 394 1296 459 c 2
 1317 613 l 2
 1326 677 1307 716 1249 763 c 2
 928 1016 l 2
 909 1031 891 1036 877 1036 c 0
 843 1036 821 1006 818 986 c 2
 804 883 l 2
 795 820 799 794 840 743 c 1
 1046 564 l 1
 1056 553 1059 545 1057 530 c 0
 1055 515 1051 509 1037 497 c 1
 780 320 l 1
 723 268 714 241 705 177 c 2
 691 79 l 2
 688 60 702 29 736 29 c 0
192 29 m 0
 206 29 225 36 248 49 c 1
 640 297 l 1
 712 344 743 394 752 459 c 2
 773 613 l 2
 782 677 763 716 705 763 c 2
 384 1016 l 2
 365 1031 347 1036 333 1036 c 0
 298 1036 277 1006 274 986 c 2
 260 883 l 2
 251 820 255 794 296 743 c 1
 502 564 l 1
 512 553 515 545 513 530 c 0
 511 515 507 509 493 497 c 1
 236 320 l 1
 179 268 169 241 160 177 c 2
 147 79 l 2
 144 60 157 29 192 29 c 0
EndSplineSet
EndChar

StartChar: guilsinglleft
Encoding: 8249 8249 211
Width: 716
VWidth: 0
GlyphClass: 2
Flags: HW
LayerCount: 2
Fore
SplineSet
586 29 m 0
 620 29 642 60 645 80 c 2
 659 182 l 2
 668 246 665 272 624 323 c 1
 417 501 l 1
 408 513 404 521 406 536 c 0
 408 550 413 556 427 568 c 1
 683 746 l 1
 740 798 749 825 758 888 c 2
 772 987 l 2
 775 1006 762 1036 728 1036 c 0
 713 1036 694 1030 671 1016 c 2
 280 768 l 1
 208 721 176 671 167 606 c 2
 146 453 l 2
 137 389 157 350 215 303 c 2
 535 49 l 1
 554 35 572 29 586 29 c 0
EndSplineSet
EndChar

StartChar: guilsinglright
Encoding: 8250 8250 212
Width: 697
VWidth: 0
GlyphClass: 2
Flags: HW
LayerCount: 2
Fore
SplineSet
131 29 m 0
 145 29 165 36 188 49 c 1
 579 297 l 1
 651 344 682 394 691 459 c 2
 712 613 l 2
 721 677 702 716 644 763 c 2
 323 1016 l 2
 304 1031 286 1036 272 1036 c 0
 237 1036 216 1006 213 986 c 2
 199 883 l 2
 190 820 194 794 235 743 c 1
 441 564 l 1
 451 553 454 545 452 530 c 0
 450 515 446 509 432 497 c 1
 175 320 l 1
 118 268 108 241 99 177 c 2
 86 79 l 2
 83 60 96 29 131 29 c 0
EndSplineSet
EndChar

StartChar: h
Encoding: 104 104 213
Width: 1817
VWidth: 0
GlyphClass: 2
Flags: W
HStem: 781 125<776 1029>
DStem2: 155 76 645 76 0.139373 0.99024<-9.90566 660.278 908.402 1376.87>
AnchorPoint: "top" 1224 997 basechar 0
LayerCount: 2
Fore
SplineSet
212 0 m 2
 567 0 l 2
 605 0 639 33 645 76 c 2
 706 513 l 2
 725 646 852 781 1029 781 c 0
 1196 781 1273 658 1253 513 c 2
 1191 76 l 2
 1185 33 1209 0 1248 0 c 2
 1620 0 l 2
 1659 0 1692 33 1698 76 c 2
 1760 518 l 2
 1809 868 1549 1053 1236 1053 c 0
 1080 1053 918 1006 786 909 c 0
 783 907 779 906 776 906 c 0
 768 906 762 912 764 923 c 2
 826 1362 l 2
 832 1405 807 1438 769 1438 c 2
 414 1438 l 2
 376 1438 342 1405 336 1362 c 2
 155 76 l 2
 149 33 174 0 212 0 c 2
EndSplineSet
EndChar

StartChar: hbar
Encoding: 295 295 214
Width: 1815
VWidth: 0
GlyphClass: 2
Flags: HW
LayerCount: 2
Fore
SplineSet
211 0 m 2
 565 0 l 2
 603 0 637 33 643 76 c 2
 705 513 l 2
 724 646 851 781 1028 781 c 0
 1195 781 1271 658 1251 513 c 2
 1190 76 l 2
 1184 33 1207 0 1246 0 c 2
 1618 0 l 2
 1657 0 1690 33 1696 76 c 2
 1758 518 l 2
 1807 868 1547 1053 1234 1053 c 0
 1078 1053 917 1006 785 909 c 0
 773 901 760 908 762 923 c 2
 791 1128 l 1
 1062 1128 l 2
 1100 1128 1118 1153 1124 1196 c 2
 1130 1242 l 2
 1136 1285 1126 1311 1088 1311 c 2
 817 1311 l 1
 824 1362 l 2
 830 1405 805 1438 767 1438 c 2
 413 1438 l 2
 375 1438 341 1405 335 1362 c 2
 327 1311 l 1
 237 1311 l 2
 199 1311 181 1285 175 1242 c 2
 169 1196 l 2
 163 1153 174 1128 212 1128 c 2
 302 1128 l 1
 154 76 l 2
 148 33 173 0 211 0 c 2
EndSplineSet
EndChar

StartChar: hungarumlaut
Encoding: 733 733 216
Width: 1411
VWidth: 0
GlyphClass: 4
Flags: W
HStem: 1170 448<624.852 694.938 1085.85 1153.95>
AnchorPoint: "top" 665 983 mark 0
LayerCount: 2
Fore
SplineSet
1003 1170 m 2
 1093 1170 l 2
 1128 1170 1138 1191 1150 1209 c 1
 1403 1553 l 2
 1411 1565 1417 1579 1419 1590 c 0
 1421 1606 1416 1618 1397 1618 c 2
 1156 1618 l 2
 1115 1618 1095 1606 1082 1563 c 2
 977 1237 l 2
 972 1223 970 1211 969 1202 c 0
 965 1175 976 1170 1003 1170 c 2
543 1170 m 2
 633 1170 l 2
 668 1170 678 1191 691 1209 c 2
 943 1553 l 2
 951 1565 957 1579 959 1590 c 0
 961 1606 956 1618 937 1618 c 2
 695 1618 l 2
 654 1618 634 1606 621 1563 c 2
 517 1237 l 2
 512 1223 509 1211 508 1202 c 0
 504 1175 516 1170 543 1170 c 2
EndSplineSet
EndChar

StartChar: hyphen
Encoding: 45 45 217
Width: 979
VWidth: 0
GlyphClass: 2
Flags: HW
LayerCount: 2
Fore
SplineSet
248 422 m 2
 850 422 l 2
 890 422 923 453 929 496 c 2
 954 674 l 2
 960 717 936 748 896 748 c 2
 294 748 l 2
 254 748 220 717 214 674 c 2
 189 496 l 2
 183 453 208 422 248 422 c 2
EndSplineSet
EndChar

StartChar: i
Encoding: 105 105 218
Width: 779
VWidth: 0
GlyphClass: 2
Flags: W
DStem2: 156 76 645 76 0.139288 0.990252<-9.9057 940.946 1157.53 1455.88>
AnchorPoint: "bot" 438 0 basechar 0
LayerCount: 2
Fore
SplineSet
376 1156 m 2
 730 1156 l 2
 768 1156 801 1189 807 1232 c 2
 837 1441 l 2
 843 1484 819 1516 781 1516 c 2
 426 1516 l 2
 388 1516 354 1484 348 1441 c 2
 319 1232 l 2
 313 1189 338 1156 376 1156 c 2
213 0 m 2
 567 0 l 2
 605 0 639 33 645 76 c 2
 765 931 l 2
 771 974 747 1006 709 1006 c 2
 355 1006 l 2
 317 1006 282 974 276 931 c 2
 156 76 l 2
 150 33 175 0 213 0 c 2
EndSplineSet
EndChar

StartChar: j
Encoding: 106 106 228
Width: 1058
VWidth: 0
GlyphClass: 2
Flags: W
HStem: -446 300<30.1968 353.505>
DStem2: 425 14 915 11 0.137153 0.99055<-111.532 1001.19 1219.9 1517.31>
LayerCount: 2
Fore
SplineSet
651 1156 m 2
 1005 1156 l 2
 1043 1156 1078 1189 1084 1232 c 2
 1113 1441 l 2
 1119 1484 1094 1516 1056 1516 c 2
 702 1516 l 2
 664 1516 630 1484 624 1441 c 2
 595 1232 l 2
 589 1189 613 1156 651 1156 c 2
915 11 m 1
 1044 931 l 2
 1050 974 1025 1006 987 1006 c 2
 632 1006 l 2
 594 1006 560 974 554 931 c 2
 425 14 l 2
 408 -110 311 -146 205 -146 c 0
 173 -146 128 -143 101 -140 c 0
 98 -140 96 -139 93 -139 c 0
 60 -139 31 -168 26 -206 c 2
 6 -344 l 2
 0 -388 23 -424 61 -429 c 0
 119 -438 193 -446 268 -446 c 0
 574 -446 866 -334 915 11 c 1
EndSplineSet
EndChar

StartChar: k
Encoding: 107 107 230
Width: 1808
VWidth: 0
GlyphClass: 2
Flags: W
DStem2: 156 76 650 76 0.139384 0.990238<-9.90558 292.536 700.217 1382.56>
AnchorPoint: "top" 979 1010 basechar 0
AnchorPoint: "bot" 926 -3 basechar 0
LayerCount: 2
Fore
SplineSet
214 0 m 2
 572 0 l 2
 611 0 644 33 650 76 c 2
 670 219 l 2
 673 241 686 261 702 274 c 0
 703 275 826 371 836 377 c 1
 843 383 852 386 859 386 c 0
 867 386 874 381 880 374 c 2
 1118 59 l 2
 1145 24 1163 0 1204 0 c 2
 1660 0 l 2
 1678 0 1691 15 1693 31 c 0
 1694 39 1692 48 1686 56 c 2
 1273 570 l 2
 1268 576 1267 583 1268 590 c 0
 1269 599 1273 608 1282 613 c 1
 1766 958 l 2
 1777 965 1784 974 1785 982 c 0
 1787 995 1779 1006 1764 1006 c 2
 1255 1006 l 2
 1214 1006 1163 986 1123 957 c 2
 764 703 l 2
 760 701 756 699 754 699 c 0
 745 699 738 706 740 717 c 2
 832 1369 l 2
 838 1412 814 1444 775 1444 c 2
 417 1444 l 2
 378 1444 344 1412 338 1369 c 2
 156 76 l 2
 150 33 175 0 214 0 c 2
EndSplineSet
EndChar

StartChar: kgreenlandic
Encoding: 312 312 232
Width: 1808
VWidth: 0
GlyphClass: 2
Flags: HW
LayerCount: 2
Fore
SplineSet
214 0 m 2
 572 0 l 2
 611 0 644 33 650 76 c 2
 670 219 l 2
 673 241 686 261 702 274 c 0
 703 275 826 371 836 377 c 1
 843 383 852 386 859 386 c 0
 867 386 874 381 880 374 c 2
 1118 59 l 2
 1145 24 1163 0 1204 0 c 2
 1660 0 l 2
 1678 0 1691 15 1693 31 c 0
 1694 39 1692 48 1686 56 c 2
 1273 570 l 2
 1268 576 1267 583 1268 590 c 0
 1269 599 1273 608 1282 613 c 1
 1766 958 l 2
 1777 965 1784 974 1785 982 c 0
 1787 995 1779 1006 1764 1006 c 2
 1255 1006 l 2
 1214 1006 1163 986 1123 957 c 2
 764 703 l 2
 760 701 756 699 754 699 c 0
 745 699 738 706 740 717 c 2
 771 931 l 2
 777 974 753 1006 714 1006 c 2
 355 1006 l 2
 316 1006 282 974 276 931 c 2
 156 76 l 2
 150 33 175 0 214 0 c 2
EndSplineSet
EndChar

StartChar: l
Encoding: 108 108 233
Width: 782
VWidth: 0
GlyphClass: 2
Flags: W
DStem2: 157 76 646 76 0.139384 0.990238<-9.90807 1383.79>
AnchorPoint: "top" 880 1007 basechar 0
LayerCount: 2
Fore
SplineSet
213 0 m 2
 568 0 l 2
 606 0 640 33 646 76 c 2
 828 1369 l 2
 834 1412 809 1444 771 1444 c 2
 416 1444 l 2
 378 1444 345 1412 339 1369 c 2
 157 76 l 2
 151 33 175 0 213 0 c 2
EndSplineSet
EndChar

StartChar: less
Encoding: 60 60 238
Width: 1192
VWidth: 0
GlyphClass: 2
Flags: HW
LayerCount: 2
Fore
SplineSet
1001 -89 m 0
 1021 -89 1043 -71 1047 -44 c 2
 1094 292 l 2
 1100 338 1081 379 1045 400 c 2
 583 654 l 2
 577 657 575 663 576 669 c 0
 577 675 580 681 587 685 c 2
 1121 943 l 2
 1163 963 1194 1003 1200 1048 c 2
 1251 1409 l 2
 1255 1436 1238 1455 1217 1455 c 0
 1209 1455 1202 1453 1193 1449 c 2
 327 986 l 2
 286 964 255 921 249 876 c 2
 197 505 l 2
 191 459 208 414 243 392 c 2
 979 -81 l 2
 987 -85 994 -89 1001 -89 c 0
EndSplineSet
EndChar

StartChar: lessequal
Encoding: 8804 8804 239
Width: 1163
VWidth: 0
GlyphClass: 2
Flags: HW
LayerCount: 2
Fore
SplineSet
995 -2 m 0
 1013 -2 1028 14 1032 40 c 2
 1065 273 l 2
 1071 317 1054 353 1016 375 c 1
 486 606 l 2
 481 608 479 615 480 620 c 0
 481 626 483 632 490 635 c 2
 1088 885 l 1
 1130 906 1159 937 1165 981 c 2
 1199 1228 l 2
 1203 1256 1191 1272 1171 1272 c 0
 1163 1272 1153 1270 1142 1264 c 2
 305 872 l 2
 262 852 234 810 228 767 c 2
 191 504 l 2
 185 460 201 415 237 394 c 1
 966 10 l 2
 978 4 987 -2 995 -2 c 0
EndSplineSet
EndChar

StartChar: logicalnot
Encoding: 172 172 240
Width: 1206
VWidth: 0
GlyphClass: 2
Flags: HW
LayerCount: 2
Fore
SplineSet
874 129 m 2
 1026 129 l 2
 1066 129 1099 163 1105 206 c 2
 1177 717 l 2
 1183 760 1156 792 1116 792 c 2
 297 792 l 2
 257 792 223 761 217 718 c 2
 198 580 l 2
 192 537 216 506 256 506 c 2
 824 506 l 2
 843 506 856 489 853 469 c 2
 816 206 l 2
 810 163 834 129 874 129 c 2
EndSplineSet
EndChar

StartChar: lslash
Encoding: 322 322 241
Width: 838
VWidth: 0
GlyphClass: 2
Flags: HW
LayerCount: 2
Fore
SplineSet
258 0 m 2
 616 0 l 2
 655 0 688 33 694 76 c 2
 797 808 l 1
 929 844 l 1
 949 844 968 867 972 896 c 2
 995 1056 l 2
 999 1083 986 1104 966 1104 c 1
 834 1068 l 1
 876 1369 l 2
 882 1412 858 1444 819 1444 c 2
 461 1444 l 2
 422 1444 388 1412 382 1369 c 2
 320 931 l 1
 200 898 l 1
 181 894 163 873 159 843 c 2
 138 695 l 2
 134 666 143 638 160 638 c 0
 161 638 163 638 164 638 c 2
 284 671 l 1
 200 76 l 2
 194 33 219 0 258 0 c 2
EndSplineSet
EndChar

StartChar: m
Encoding: 109 109 242
Width: 2661
VWidth: 0
GlyphClass: 2
Flags: W
HStem: 781 272<890.704 1225.5 1836.23 2241>
DStem2: 150 76 639 76 0.139308 0.990249<-9.90569 658.066>
AnchorPoint: "top" 1630 1022 basechar 0
LayerCount: 2
Fore
SplineSet
207 0 m 2
 561 0 l 2
 599 0 633 33 639 76 c 2
 687 420 l 2
 712 598 792 781 976 781 c 0
 1111 781 1171 658 1151 513 c 2
 1089 76 l 2
 1083 33 1107 0 1146 0 c 2
 1507 0 l 2
 1546 0 1580 33 1586 76 c 2
 1644 485 l 2
 1678 729 1810 781 1915 781 c 0
 2063 781 2124 703 2097 513 c 2
 2035 76 l 2
 2029 33 2054 0 2093 0 c 2
 2465 0 l 2
 2504 0 2537 33 2543 76 c 2
 2605 518 l 2
 2655 877 2396 1053 2086 1053 c 0
 1917 1053 1741 993 1613 874 c 0
 1603 864 1595 861 1587 861 c 0
 1579 861 1571 865 1565 873 c 0
 1474 994 1316 1053 1135 1053 c 0
 940 1053 740 973 612 813 c 0
 606 805 600 802 593 802 c 0
 586 802 580 806 577 814 c 2
 525 942 l 2
 509 983 475 1006 433 1006 c 2
 346 1006 l 2
 308 1006 276 972 270 929 c 2
 150 76 l 2
 144 33 169 0 207 0 c 2
EndSplineSet
EndChar

StartChar: macron
Encoding: 175 175 243
Width: 986
VWidth: 0
GlyphClass: 4
Flags: W
HStem: 1242 244<331.296 401 973 1041.88>
AnchorPoint: "top" 552 1033 mark 0
LayerCount: 2
Fore
SplineSet
366 1242 m 2
 973 1242 l 2
 1013 1242 1046 1275 1052 1318 c 2
 1065 1410 l 2
 1071 1453 1047 1486 1007 1486 c 2
 401 1486 l 2
 361 1486 327 1453 321 1410 c 2
 308 1318 l 2
 302 1275 326 1242 366 1242 c 2
EndSplineSet
EndChar

StartChar: minus
Encoding: 8722 8722 244
Width: 1200
VWidth: 0
GlyphClass: 2
Flags: HW
LayerCount: 2
Fore
SplineSet
259 504 m 2
 1082 504 l 2
 1122 504 1157 536 1163 579 c 2
 1182 715 l 2
 1188 758 1162 791 1122 791 c 2
 299 791 l 2
 259 791 225 758 219 715 c 2
 200 579 l 2
 194 536 219 504 259 504 c 2
EndSplineSet
EndChar

StartChar: mu
Encoding: 956 956 245
Width: 1838
VWidth: 0
GlyphClass: 2
Flags: HW
LayerCount: 2
Fore
SplineSet
167 -299 m 2
 480 -299 l 2
 519 -299 551 -267 557 -224 c 2
 587 -12 l 1
 644 -33 714 -42 784 -42 c 0
 997 -42 1222 38 1361 198 c 0
 1367 205 1375 210 1382 210 c 0
 1389 210 1396 205 1399 197 c 2
 1452 64 l 2
 1467 24 1503 0 1545 0 c 2
 1632 0 l 2
 1671 0 1704 34 1710 77 c 2
 1831 941 l 2
 1837 984 1812 1016 1773 1016 c 2
 1414 1016 l 2
 1375 1016 1342 984 1336 941 c 2
 1274 499 l 2
 1255 366 1127 231 951 231 c 0
 783 231 707 354 727 499 c 2
 789 941 l 2
 795 984 770 1016 731 1016 c 2
 350 1016 l 2
 311 1016 278 984 272 941 c 2
 109 -224 l 2
 103 -267 128 -299 167 -299 c 2
EndSplineSet
EndChar

StartChar: multiply
Encoding: 215 215 246
Width: 1101
VWidth: 0
GlyphClass: 2
Flags: HW
LayerCount: 2
Fore
SplineSet
332 193 m 0
 351 193 369 201 386 216 c 0
 388 219 592 409 611 427 c 1
 627 408 777 218 778 217 c 0
 790 202 807 195 825 195 c 0
 844 195 864 202 880 217 c 2
 996 326 l 2
 1012 341 1021 361 1024 380 c 0
 1027 400 1025 419 1011 435 c 2
 845 646 l 1
 865 666 1069 857 1070 858 c 0
 1086 873 1096 893 1099 912 c 0
 1102 932 1097 952 1085 967 c 2
 999 1076 l 2
 987 1092 971 1099 952 1099 c 0
 933 1099 915 1092 898 1076 c 0
 897 1074 692 884 672 864 c 1
 657 883 506 1074 505 1074 c 0
 493 1090 477 1097 458 1097 c 0
 439 1097 421 1089 404 1074 c 2
 286 964 l 2
 270 949 260 930 257 910 c 0
 254 890 259 871 271 855 c 0
 274 853 424 664 438 646 c 1
 419 627 214 436 213 435 c 0
 197 420 188 401 185 381 c 0
 182 361 185 342 197 326 c 2
 285 216 l 2
 297 201 314 193 332 193 c 0
EndSplineSet
EndChar

StartChar: n
Encoding: 110 110 247
Width: 1824
VWidth: 0
GlyphClass: 2
Flags: W
HStem: 781 272<922.655 1388.5>
DStem2: 150 76 644 76 0.139308 0.990249<-9.90563 660.801>
AnchorPoint: "top" 1149 1010 basechar 0
LayerCount: 2
Fore
SplineSet
208 0 m 2
 566 0 l 2
 605 0 638 33 644 76 c 2
 705 513 l 2
 724 646 851 781 1028 781 c 0
 1195 781 1283 658 1263 513 c 2
 1201 76 l 2
 1195 33 1219 0 1258 0 c 2
 1627 0 l 2
 1666 0 1699 33 1705 76 c 2
 1767 518 l 2
 1818 881 1583 1053 1194 1053 c 0
 981 1053 757 973 617 812 c 0
 611 805 604 801 597 801 c 0
 590 801 583 806 580 814 c 2
 528 942 l 2
 512 983 477 1006 435 1006 c 2
 347 1006 l 2
 308 1006 276 972 270 929 c 2
 150 76 l 2
 144 33 169 0 208 0 c 2
EndSplineSet
EndChar

StartChar: nine
Encoding: 57 57 252
Width: 2138
VWidth: 0
GlyphClass: 2
Flags: HW
LayerCount: 2
Fore
SplineSet
1109 752 m 0
 890 752 845 824 866 973 c 0
 890 1146 1006 1187 1195 1187 c 0
 1387 1187 1504 1138 1474 924 c 2
 1456 794 l 1
 1324 767 1206 752 1109 752 c 0
979 -40 m 0
 1724 -40 2041 208 2119 765 c 0
 2186 1241 1825 1475 1249 1475 c 0
 707 1475 312 1367 257 979 c 0
 218 702 431 507 1034 507 c 0
 1162 507 1284 530 1419 552 c 1
 1416 529 l 1
 1384 297 1234 274 968 274 c 0
 688 274 423 354 383 366 c 0
 376 368 370 369 363 369 c 0
 341 369 326 357 318 328 c 2
 266 138 l 2
 264 133 264 128 263 124 c 0
 259 96 271 80 301 70 c 0
 402 35 765 -40 979 -40 c 0
EndSplineSet
EndChar

StartChar: numbersign
Encoding: 35 35 255
Width: 1690
VWidth: 0
GlyphClass: 2
Flags: HW
LayerCount: 2
Fore
SplineSet
722 580 m 1
 799 793 l 1
 1147 793 l 1
 1070 580 l 1
 722 580 l 1
210 -205 m 2
 403 -205 l 2
 423 -205 444 -191 454 -170 c 1
 647 369 l 1
 995 369 l 1
 802 -170 l 1
 794 -187 802 -205 819 -205 c 2
 1012 -205 l 2
 1032 -205 1053 -191 1063 -170 c 1
 1256 369 l 1
 1483 369 l 2
 1523 369 1547 383 1553 426 c 2
 1567 523 l 2
 1573 566 1553 580 1513 580 c 2
 1331 580 l 1
 1408 793 l 1
 1612 793 l 2
 1652 793 1677 807 1683 850 c 2
 1697 949 l 2
 1703 992 1682 1006 1642 1006 c 2
 1484 1006 l 1
 1702 1612 l 1
 1710 1629 1701 1647 1684 1647 c 2
 1492 1647 l 2
 1472 1647 1450 1633 1440 1612 c 1
 1223 1006 l 1
 875 1006 l 1
 1092 1612 l 1
 1100 1629 1092 1647 1075 1647 c 2
 883 1647 l 2
 863 1647 841 1633 831 1612 c 1
 614 1006 l 1
 399 1006 l 2
 359 1006 335 992 329 949 c 2
 315 850 l 2
 309 807 329 793 369 793 c 2
 537 793 l 1
 461 580 l 1
 269 580 l 2
 229 580 205 566 199 523 c 2
 185 426 l 2
 179 383 200 369 240 369 c 2
 386 369 l 1
 193 -170 l 1
 185 -187 193 -205 210 -205 c 2
EndSplineSet
EndChar

StartChar: o
Encoding: 111 111 256
Width: 1793
VWidth: 0
GlyphClass: 2
Flags: W
HStem: -41 256<759.279 1106.99> 798 255<838.264 1168.23>
AnchorPoint: "top" 1013 1010 basechar 0
AnchorPoint: "bot" 1004 0 basechar 0
LayerCount: 2
Fore
SplineSet
891 -41 m 0
 1223 -41 1676 16 1745 507 c 0
 1813 992 1355 1053 1045 1053 c 0
 735 1053 259 992 191 507 c 0
 122 16 559 -41 891 -41 c 0
927 215 m 0
 746 215 649 308 677 507 c 0
 701 681 826 798 1009 798 c 0
 1192 798 1283 681 1259 507 c 0
 1231 308 1107 215 927 215 c 0
EndSplineSet
EndChar

StartChar: oe
Encoding: 339 339 261
Width: 2915
VWidth: 0
GlyphClass: 2
Flags: HW
LayerCount: 2
Fore
SplineSet
934 215 m 0xd8
 753 215 657 308 685 507 c 0
 709 681 832 798 1016 798 c 0
 1199 798 1289 681 1265 507 c 0
 1237 308 1114 215 934 215 c 0xd8
1740 615 m 2
 1729 615 1732 631 1734 644 c 1
 1758 753 1883 835 2019 835 c 0xb8
 2169 835 2244 747 2242 639 c 1
 2240 628 2240 615 2229 615 c 2
 1740 615 l 2
2596 449 m 2
 2650 449 2662 483 2669 533 c 1
 2716 918 2368 1053 2040 1053 c 0xb8
 1881 1053 1703 1025 1559 933 c 1
 1421 1033 1216 1053 1054 1053 c 0xd8
 743 1053 267 992 199 507 c 0
 130 16 567 -41 900 -41 c 0
 1076 -41 1287 -23 1450 80 c 1
 1580 -16 1771 -41 1937 -41 c 0
 2063 -41 2348 1 2490 50 c 0
 2524 61 2537 86 2541 114 c 0
 2546 153 2534 199 2529 232 c 0
 2524 262 2504 279 2477 279 c 0
 2469 279 2462 278 2453 275 c 0
 2354 243 2213 210 2070 210 c 0
 1891 210 1679 262 1701 419 c 0
 1703 434 1714 449 1727 449 c 2
 2596 449 l 2
EndSplineSet
EndChar

StartChar: ogonek
Encoding: 731 731 262
Width: 657
VWidth: 0
GlyphClass: 4
Flags: W
HStem: -371 98<321.18 386 390 410.75> 0 96<334.006 398>
AnchorPoint: "bot" 430 0 mark 0
LayerCount: 2
Fore
SplineSet
328 -371 m 2
 390 -371 l 2
 402 -371 406 -364 407 -354 c 2
 417 -283 l 2
 419 -272 403 -273 403 -273 c 1
 386 -273 l 2
 303 -273 302 -196 313 -120 c 0
 326 -31 354 0 398 0 c 1
 418 96 l 1
 284 96 169 27 144 -153 c 0
 130 -254 181 -371 328 -371 c 2
EndSplineSet
EndChar

StartChar: one
Encoding: 49 49 266
Width: 1209
VWidth: 0
GlyphClass: 2
Flags: HW
LayerCount: 2
Fore
SplineSet
478 0 m 2
 994 0 l 2
 1034 0 1069 33 1075 76 c 2
 1256 1363 l 2
 1262 1406 1236 1438 1196 1438 c 1
 367 1358 l 1
 327 1358 293 1326 287 1283 c 2
 259 1083 l 2
 253 1040 278 1008 318 1008 c 1
 518 1028 l 1
 537 1028 550 1011 547 991 c 2
 418 76 l 2
 412 33 438 0 478 0 c 2
EndSplineSet
EndChar

StartChar: onehalf
Encoding: 189 189 267
Width: 3398
VWidth: 0
GlyphClass: 2
Flags: HW
LayerCount: 2
Fore
SplineSet
1087 -206 m 0
 1105 -206 1141 -195 1152 -178 c 1
 1158 -178 2233 1620 2228 1620 c 1
 2234 1632 2217 1645 2194 1646 c 0
 2182 1647 1954 1648 1953 1648 c 0
 1935 1648 1899 1637 1888 1620 c 1
 1883 1620 807 -176 813 -176 c 1
 806 -188 822 -202 845 -203 c 0
 857 -204 1086 -206 1087 -206 c 0
515 431 m 2
 876 431 l 2
 904 431 928 454 932 484 c 2
 1059 1384 l 2
 1063 1415 1045 1437 1017 1437 c 1
 437 1381 l 1
 409 1381 385 1359 381 1329 c 2
 361 1189 l 2
 357 1159 375 1136 403 1136 c 1
 543 1151 l 1
 556 1151 565 1139 563 1125 c 2
 473 484 l 2
 469 454 487 431 515 431 c 2
2285 0 m 0
 2292 0 3091 3 3092 13 c 1
 3112 13 3124 50 3127 74 c 0
 3128 84 3139 184 3132 184 c 1
 3135 207 2903 216 2887 216 c 0
 2880 216 2424 219 2424 223 c 1
 2407 228 2401 239 2406 254 c 1
 2479 352 2674 285 2696 427 c 1
 2873 546 3070 545 3091 691 c 0
 3096 727 3091 773 3071 831 c 1
 3036 986 2849 1019 2622 1019 c 0
 2575 1019 2527 1018 2478 1016 c 0
 2350 1013 2168 973 2091 931 c 0
 2082 927 2076 915 2074 899 c 0
 2073 890 2072 879 2073 867 c 0
 2074 860 2083 787 2102 754 c 1
 2106 743 2117 740 2138 741 c 1
 2150 743 2233 767 2303 770 c 0
 2370 773 2499 791 2621 791 c 0
 2670 791 2719 788 2761 780 c 1
 2785 765 2794 755 2793 748 c 0
 2789 720 2629 727 2584 556 c 1
 2568 445 2023 568 1922 129 c 1
 1920 112 1913 51 1924 46 c 1
 1920 18 2254 0 2285 0 c 0
EndSplineSet
EndChar

StartChar: onequarter
Encoding: 188 188 268
Width: 3019
VWidth: 0
GlyphClass: 2
Flags: HW
LayerCount: 2
Fore
SplineSet
974 -207 m 0
 992 -207 1029 -196 1039 -179 c 1
 1045 -179 2120 1619 2114 1619 c 1
 2121 1630 2100 1644 2075 1645 c 0
 2065 1646 1840 1646 1839 1646 c 0
 1821 1646 1786 1636 1776 1619 c 1
 1770 1619 693 -178 700 -178 c 1
 692 -189 710 -203 733 -204 c 0
 745 -205 973 -207 974 -207 c 0
447 449 m 0
 455 449 751 455 752 464 c 1
 772 464 828 755 831 776 c 0
 832 785 917 1429 909 1429 c 1
 912 1451 759 1453 739 1453 c 0
 731 1453 284 1405 283 1396 c 1
 263 1396 242 1351 239 1330 c 0
 238 1321 227 1201 235 1201 c 1
 232 1180 292 1168 312 1168 c 0
 315 1168 369 1171 396 1171 c 0
 405 1171 411 1171 411 1170 c 1
 420 1170 396 947 395 937 c 0
 394 928 338 488 346 488 c 1
 343 466 427 449 447 449 c 0
2446 -106 m 2
 2653 -105 l 2
 2681 -105 2705 -83 2709 -53 c 2
 2733 120 l 1
 2839 120 l 2
 2868 120 2892 143 2896 173 c 2
 2916 319 l 2
 2920 349 2904 372 2875 372 c 2
 2769 372 l 1
 2850 954 l 2
 2854 984 2837 1007 2809 1007 c 2
 2602 1007 l 2
 2574 1007 2549 984 2545 954 c 2
 2464 372 l 1
 2251 372 l 2
 2239 372 2228 382 2230 394 c 2
 2231 397 l 1
 2425 953 l 2
 2425 956 2427 958 2427 961 c 0
 2431 987 2410 1007 2384 1007 c 2
 2091 1007 l 2
 2063 1007 2045 983 2034 954 c 1
 1713 173 l 2
 1713 170 1711 167 1711 164 c 0
 1707 139 1730 120 1755 120 c 2
 2428 120 l 1
 2404 -53 l 2
 2400 -83 2418 -106 2446 -106 c 2
EndSplineSet
EndChar

StartChar: ordfeminine
Encoding: 170 170 270
Width: 1814
VWidth: 0
GlyphClass: 2
Flags: HW
LayerCount: 2
Fore
SplineSet
651 718 m 0xe0
 566 718 530 749 537 802 c 0
 549 886 706 924 956 958 c 0
 960 959 983 960 986 960 c 0
 1007 960 1006 944 1004 932 c 0
 987 813 829 718 651 718 c 0xe0
547 533 m 0
 821 533 1018 622 1120 753 c 0
 1126 761 1130 766 1134 766 c 0
 1138 766 1142 760 1143 750 c 0
 1146 730 1169 663 1181 625 c 0
 1191 589 1218 568 1248 568 c 2
 1340 568 l 2
 1367 568 1390 593 1395 626 c 2
 1462 1103 l 2xe8
 1504 1401 1209 1474 844 1474 c 0
 480 1474 288 1419 222 1296 c 0
 216 1285 210 1271 208 1258 c 0
 206 1243 216 1227 229 1226 c 2
 515 1197 l 2
 522 1196 527 1195 531 1195 c 0
 547 1195 560 1202 580 1220 c 0
 648 1279 761 1298 825 1298 c 0
 989 1298 1037 1237 1022 1130 c 2
 1020 1118 l 2xf0
 1015 1081 168 1127 118 774 c 0
 97 621 270 533 547 533 c 0
EndSplineSet
EndChar

StartChar: ordmasculine
Encoding: 186 186 271
Width: 1581
VWidth: 0
GlyphClass: 2
Flags: HW
LayerCount: 2
Fore
SplineSet
867 545 m 0
 1149 545 1533 593 1592 1011 c 0
 1650 1422 1261 1474 998 1474 c 0
 734 1474 330 1422 272 1011 c 0
 213 593 585 545 867 545 c 0
898 762 m 0
 744 762 662 841 686 1011 c 0
 707 1158 811 1258 967 1258 c 0
 1122 1258 1200 1158 1179 1011 c 0
 1155 841 1050 762 898 762 c 0
EndSplineSet
EndChar

StartChar: oslash
Encoding: 248 248 272
Width: 1793
VWidth: 0
GlyphClass: 2
Flags: HW
LayerCount: 2
Fore
SplineSet
927 215 m 0
 912 215 896 216 883 217 c 1
 1162 760 l 1
 1240 713 1275 623 1259 507 c 0
 1231 308 1107 215 927 215 c 0
773 248 m 1
 695 291 659 376 678 507 c 1
 702 681 826 798 1009 798 c 0
 1025 798 1040 797 1054 795 c 1
 773 248 l 1
640 -202 m 2
 656 -202 675 -189 685 -169 c 2
 753 -37 l 1
 800 -40 846 -41 890 -41 c 0
 1223 -41 1676 16 1745 507 c 0
 1796 868 1555 994 1302 1035 c 1
 1368 1164 l 2
 1376 1179 1370 1197 1357 1197 c 2
 1288 1197 l 2
 1271 1197 1254 1184 1244 1164 c 2
 1184 1048 l 1
 1136 1052 1091 1053 1046 1053 c 0
 736 1053 259 992 191 507 c 0
 139 138 373 16 634 -24 c 1
 560 -167 l 2
 552 -182 558 -200 571 -200 c 2
 640 -202 l 2
EndSplineSet
EndChar

StartChar: p
Encoding: 112 112 274
Width: 1824
VWidth: 0
GlyphClass: 2
Flags: W
HStem: -41 254<792.707 1110.32> 781 272<920.377 1353.5>
DStem2: 105 -246 593 -246 0.138814 0.990318<-7.93248 398.995 665.613 982.421>
LayerCount: 2
Fore
SplineSet
947 213 m 0
 762 213 676 344 698 498 c 0
 719 649 841 781 1026 781 c 0
 1202 781 1286 648 1265 498 c 0
 1243 341 1121 213 947 213 c 0
157 -318 m 2
 519 -318 l 2
 557 -318 587 -289 593 -246 c 2
 636 61 l 2
 638 72 646 80 654 80 c 0
 658 80 662 78 664 76 c 0
 754 -3 903 -41 1065 -41 c 0
 1372 -41 1722 119 1777 511 c 0
 1829 883 1518 1053 1189 1053 c 0
 976 1053 748 971 611 809 c 0
 605 803 596 792 591 792 c 0
 583 792 579 803 576 811 c 0
 575 816 524 926 523 932 c 1
 505 975 470 999 430 999 c 2
 345 999 l 2
 307 999 275 967 269 924 c 2
 105 -246 l 2
 99 -289 119 -318 157 -318 c 2
EndSplineSet
EndChar

StartChar: paragraph
Encoding: 182 182 275
Width: 1614
VWidth: 0
GlyphClass: 2
Flags: HW
LayerCount: 2
Fore
SplineSet
800 -1 m 2
 942 -1 l 2
 982 -1 1016 33 1022 76 c 2
 1089 554 l 1
 1250 554 l 2
 1259 554 1267 545 1265 533 c 2
 1200 76 l 2
 1194 33 1218 -1 1258 -1 c 2
 1401 -1 l 2
 1441 -1 1474 33 1480 76 c 2
 1656 1327 l 2
 1662 1370 1635 1400 1596 1404 c 0
 1520 1412 1216 1438 988 1438 c 0
 636 1438 308 1355 260 1013 c 0
 209 652 463 554 774 554 c 2
 809 554 l 1
 742 76 l 2
 736 33 760 -1 800 -1 c 2
EndSplineSet
EndChar

StartChar: parenleft
Encoding: 40 40 276
Width: 927
VWidth: 0
GlyphClass: 2
Flags: HW
LayerCount: 2
Fore
SplineSet
721 -143 m 0
 723 -143 725 -143 727 -143 c 0
 761 -143 798 -109 803 -73 c 2
 815 15 l 2
 825 84 810 101 758 132 c 0
 639 205 607 432 644 698 c 0
 681 964 783 1198 917 1266 c 0
 979 1298 997 1315 1007 1384 c 2
 1019 1470 l 2
 1024 1506 997 1540 963 1540 c 0
 961 1540 960 1540 958 1540 c 0
 540 1490 281 1098 225 698 c 0
 169 297 314 -93 721 -143 c 0
EndSplineSet
EndChar

StartChar: parenright
Encoding: 41 41 277
Width: 930
VWidth: 0
GlyphClass: 2
Flags: HW
LayerCount: 2
Fore
SplineSet
167 -143 m 0
 590 -97 844 297 900 698 c 0
 956 1098 814 1493 404 1540 c 0
 402 1540 400 1540 398 1540 c 0
 364 1540 327 1506 322 1470 c 2
 310 1384 l 2
 300 1315 314 1297 367 1266 c 0
 480 1200 520 974 481 698 c 0
 442 423 341 198 208 132 c 0
 146 102 128 84 118 15 c 2
 105 -73 l 2
 100 -109 127 -143 161 -143 c 0
 163 -143 165 -143 167 -143 c 0
EndSplineSet
EndChar

StartChar: percent
Encoding: 37 37 278
Width: 2463
VWidth: 0
GlyphClass: 2
Flags: HW
LayerCount: 2
Fore
SplineSet
1921 -40 m 0
 2197 -40 2371 194 2404 431 c 0
 2437 667 2332 897 2052 897 c 0
 1772 897 1602 667 1569 431 c 0
 1536 194 1645 -40 1921 -40 c 0
1945 134 m 0
 1832 134 1790 241 1816 425 c 0
 1842 613 1918 723 2028 723 c 0
 2140 723 2182 613 2156 425 c 0
 2130 241 2058 134 1945 134 c 0
614 560 m 0
 890 560 1063 793 1096 1031 c 0
 1129 1267 1025 1497 745 1497 c 0
 465 1497 295 1267 262 1031 c 0
 229 793 338 560 614 560 c 0
638 734 m 0
 525 734 483 840 509 1024 c 0
 535 1212 610 1323 721 1323 c 0
 832 1323 875 1212 849 1024 c 0
 823 840 751 734 638 734 c 0
811 -82 m 2
 947 -82 l 2
 990 -82 1033 -54 1057 -12 c 2
 1873 1466 l 2
 1877 1473 1879 1480 1880 1487 c 0
 1884 1513 1867 1536 1840 1536 c 2
 1705 1536 l 2
 1662 1536 1618 1508 1595 1466 c 2
 778 -12 l 2
 774 -19 772 -26 771 -33 c 0
 767 -59 784 -82 811 -82 c 2
EndSplineSet
EndChar

StartChar: period
Encoding: 46 46 279
Width: 576
VWidth: 0
GlyphClass: 2
Flags: HW
LayerCount: 2
Fore
SplineSet
189 0 m 2
 387 0 l 2
 427 0 464 34 470 77 c 2
 496 265 l 2
 502 308 475 342 435 342 c 2
 237 342 l 2
 197 342 161 308 155 265 c 2
 128 77 l 2
 122 34 149 0 189 0 c 2
EndSplineSet
EndChar

StartChar: periodcentered
Encoding: 183 183 280
Width: 576
VWidth: 0
GlyphClass: 2
Flags: W
HStem: 651 342<257.796 329 479 549.397>
LayerCount: 2
Fore
SplineSet
280 651 m 2
 479 651 l 2
 519 651 555 685 561 728 c 2
 587 916 l 2
 593 959 567 993 527 993 c 2
 329 993 l 2
 289 993 252 959 246 916 c 2
 220 728 l 2
 214 685 240 651 280 651 c 2
EndSplineSet
EndChar

StartChar: perthousand
Encoding: 8240 8240 281
Width: 3291
VWidth: 0
GlyphClass: 2
Flags: HW
LayerCount: 2
Fore
SplineSet
2805 -40 m 0
 3081 -40 3256 194 3289 431 c 0
 3322 667 3217 897 2937 897 c 0
 2657 897 2487 667 2454 431 c 0
 2421 194 2529 -40 2805 -40 c 0
2830 134 m 0
 2717 134 2674 241 2700 425 c 0
 2726 613 2803 723 2913 723 c 0
 3025 723 3067 613 3041 425 c 0
 3015 241 2943 134 2830 134 c 0
1833 -40 m 0
 2109 -40 2284 194 2317 431 c 0
 2350 667 2245 897 1965 897 c 0
 1685 897 1515 667 1482 431 c 0
 1449 194 1557 -40 1833 -40 c 0
1858 134 m 0
 1745 134 1703 241 1729 425 c 0
 1755 613 1831 723 1941 723 c 0
 2053 723 2095 613 2069 425 c 0
 2043 241 1971 134 1858 134 c 0
560 560 m 0
 836 560 1010 793 1043 1031 c 0
 1076 1267 972 1497 692 1497 c 0
 412 1497 242 1267 209 1031 c 0
 176 793 284 560 560 560 c 0
584 734 m 0
 471 734 429 840 455 1024 c 0
 481 1212 557 1323 667 1323 c 0
 778 1323 821 1212 795 1024 c 0
 769 840 697 734 584 734 c 0
740 -82 m 2
 876 -82 l 2
 919 -82 962 -54 986 -12 c 2
 1802 1466 l 2
 1806 1473 1808 1480 1809 1487 c 0
 1813 1513 1796 1536 1769 1536 c 2
 1635 1536 l 2
 1592 1536 1547 1508 1524 1466 c 2
 707 -12 l 2
 703 -19 701 -26 700 -33 c 0
 696 -59 713 -82 740 -82 c 2
EndSplineSet
EndChar

StartChar: plus
Encoding: 43 43 282
Width: 1188
VWidth: 0
GlyphClass: 2
Flags: HW
LayerCount: 2
Fore
SplineSet
536 97 m 2
 683 97 l 2
 723 97 756 129 762 172 c 2
 800 444 l 2
 803 464 819 481 838 481 c 2
 1069 481 l 2
 1109 481 1143 512 1149 555 c 2
 1168 696 l 2
 1174 739 1150 770 1110 770 c 2
 878 770 l 2
 859 770 848 787 851 807 c 2
 890 1080 l 2
 896 1123 871 1156 831 1156 c 2
 684 1156 l 2
 644 1156 611 1123 605 1080 c 2
 567 807 l 2
 564 787 547 770 528 770 c 2
 294 770 l 2
 254 770 220 739 214 696 c 2
 194 555 l 2
 188 512 213 481 253 481 c 2
 487 481 l 2
 506 481 519 464 516 444 c 2
 477 172 l 2
 471 129 496 97 536 97 c 2
EndSplineSet
EndChar

StartChar: plusminus
Encoding: 177 177 283
Width: 1193
VWidth: 0
GlyphClass: 2
Flags: HW
LayerCount: 2
Fore
SplineSet
165 -133 m 2
 988 -133 l 2
 1028 -133 1062 -101 1068 -58 c 2
 1087 78 l 2
 1093 121 1068 154 1028 154 c 2
 205 154 l 2
 165 154 130 121 124 78 c 2
 105 -58 l 2
 99 -101 125 -133 165 -133 c 2
559 253 m 2
 705 253 l 2
 745 253 779 285 785 328 c 2
 823 600 l 2
 826 620 842 637 861 637 c 2
 1092 637 l 2
 1132 637 1166 668 1172 711 c 2
 1191 852 l 2
 1197 895 1173 926 1133 926 c 2
 901 926 l 2
 882 926 871 943 874 963 c 2
 912 1236 l 2
 918 1279 894 1312 854 1312 c 2
 707 1312 l 2
 667 1312 634 1279 628 1236 c 2
 589 963 l 2
 586 943 570 926 551 926 c 2
 316 926 l 2
 276 926 243 895 237 852 c 2
 217 711 l 2
 211 668 236 637 276 637 c 2
 510 637 l 2
 529 637 541 620 538 600 c 2
 500 328 l 2
 494 285 519 253 559 253 c 2
EndSplineSet
EndChar

StartChar: q
Encoding: 113 113 284
Width: 1827
VWidth: 0
GlyphClass: 2
Flags: HW
LayerCount: 2
Fore
SplineSet
939 213 m 0
 765 213 679 341 701 498 c 0
 722 648 843 781 1020 781 c 0
 1205 781 1289 649 1268 498 c 0
 1246 344 1123 213 939 213 c 0
1220 -318 m 2
 1575 -318 l 2
 1613 -318 1646 -286 1652 -243 c 2
 1816 924 l 2
 1822 967 1800 999 1762 999 c 2
 1677 999 l 2
 1638 999 1595 975 1566 933 c 1
 1564 927 1480 816 1478 811 c 1
 1472 803 1465 799 1459 799 c 0
 1453 799 1447 803 1442 809 c 0
 1350 971 1146 1053 933 1053 c 0
 604 1053 244 883 192 511 c 0
 137 119 443 -41 749 -41 c 0
 911 -41 1072 -3 1184 76 c 0
 1187 78 1190 80 1194 80 c 0
 1202 80 1209 72 1207 61 c 2
 1164 -243 l 2
 1158 -286 1182 -318 1220 -318 c 2
EndSplineSet
EndChar

StartChar: question
Encoding: 63 63 285
Width: 1742
VWidth: 0
GlyphClass: 2
Flags: HW
LayerCount: 2
Fore
SplineSet
581 0 m 2
 785 0 l 2
 825 0 858 31 864 74 c 2
 890 260 l 2
 896 303 872 334 832 334 c 2
 628 334 l 2
 588 334 555 303 549 260 c 2
 523 74 l 2
 517 31 541 0 581 0 c 2
702 451 m 0
 767 491 795 550 974 564 c 0
 1331 591 1706 599 1762 999 c 0
 1811 1350 1459 1475 959 1475 c 0
 716 1475 438 1383 326 1342 c 0
 298 1331 277 1305 273 1277 c 0
 272 1268 272 1259 275 1250 c 2
 321 1079 l 2
 330 1048 353 1029 383 1029 c 0
 391 1029 400 1030 409 1033 c 0
 601 1095 799 1141 1032 1141 c 0
 1253 1141 1304 1079 1290 978 c 0
 1276 879 1185 838 1050 828 c 0
 828 812 743 771 626 679 c 1
 613 670 591 657 587 627 c 0
 585 616 587 602 592 585 c 1
 600 568 627 512 640 489 c 1
 651 458 669 446 685 446 c 0
 691 446 697 448 702 451 c 0
EndSplineSet
EndChar

StartChar: quotedbl
Encoding: 34 34 287
Width: 1225
VWidth: 0
GlyphClass: 2
Flags: HW
LayerCount: 2
Fore
SplineSet
953 689 m 2
 1026 689 l 2
 1066 689 1092 722 1104 764 c 2
 1318 1443 l 1
 1325 1486 1300 1521 1260 1521 c 2
 952 1521 l 2
 912 1521 876 1486 871 1443 c 1
 896 764 l 2
 897 722 913 689 953 689 c 2
389 689 m 2
 463 689 l 2
 503 689 529 722 540 764 c 1
 755 1443 l 1
 762 1486 736 1521 696 1521 c 2
 389 1521 l 2
 349 1521 312 1486 307 1443 c 1
 332 764 l 2
 333 722 349 689 389 689 c 2
EndSplineSet
EndChar

StartChar: quotedblleft
Encoding: 8220 8220 289
Width: 982
VWidth: 0
GlyphClass: 2
Flags: HW
LayerCount: 2
Fore
SplineSet
800 801 m 2
 1043 801 l 2
 1083 801 1104 833 1110 876 c 2
 1138 1079 l 2
 1143 1117 1127 1146 1092 1146 c 2
 1020 1146 l 2
 1006 1146 1006 1157 1008 1173 c 0
 1011 1197 1037 1274 1107 1317 c 0
 1151 1344 1174 1338 1182 1392 c 2
 1188 1436 l 2
 1192 1467 1167 1482 1139 1482 c 0
 1134 1482 1130 1482 1125 1481 c 0
 993 1458 816 1347 783 1110 c 2
 750 878 l 2
 744 835 760 801 800 801 c 2
305 801 m 2
 549 801 l 2
 589 801 609 833 615 876 c 2
 644 1079 l 2
 649 1117 632 1146 597 1146 c 2
 526 1146 l 2
 512 1146 511 1157 513 1173 c 0
 516 1197 542 1274 612 1317 c 0
 656 1344 679 1338 687 1392 c 2
 694 1436 l 2
 698 1467 673 1482 645 1482 c 0
 640 1482 635 1482 630 1481 c 0
 498 1458 321 1347 288 1110 c 2
 255 878 l 2
 249 835 265 801 305 801 c 2
EndSplineSet
EndChar

StartChar: quotedblright
Encoding: 8221 8221 290
Width: 1106
VWidth: 0
GlyphClass: 2
Flags: HW
LayerCount: 2
Fore
SplineSet
793 803 m 0
 925 826 1104 938 1137 1175 c 2
 1169 1407 l 2
 1175 1450 1160 1484 1120 1484 c 2
 876 1484 l 2
 836 1484 816 1452 810 1409 c 2
 781 1206 l 2
 776 1168 793 1139 828 1139 c 2
 899 1139 l 2
 913 1139 913 1128 911 1112 c 0
 908 1088 882 1011 812 968 c 0
 768 941 745 947 737 893 c 2
 731 848 l 2
 727 817 751 802 779 802 c 0
 784 802 788 802 793 803 c 0
319 803 m 0
 451 826 629 938 662 1175 c 2
 694 1407 l 2
 700 1450 685 1484 645 1484 c 2
 401 1484 l 2
 361 1484 341 1452 335 1409 c 2
 306 1206 l 2
 301 1168 317 1139 352 1139 c 2
 425 1139 l 2
 439 1139 439 1128 437 1112 c 0
 434 1088 408 1011 338 968 c 0
 294 941 270 947 262 893 c 2
 256 848 l 2
 252 817 277 802 305 802 c 0
 310 802 314 802 319 803 c 0
EndSplineSet
EndChar

StartChar: quoteleft
Encoding: 8216 8216 291
Width: 619
VWidth: 0
GlyphClass: 2
Flags: HW
LayerCount: 2
Fore
SplineSet
300 801 m 2
 543 801 l 2
 583 801 604 833 610 876 c 2
 638 1079 l 2
 643 1117 627 1146 592 1146 c 2
 519 1146 l 2
 505 1146 505 1157 507 1173 c 0
 510 1197 536 1274 606 1317 c 0
 650 1344 674 1338 682 1392 c 2
 688 1436 l 2
 692 1467 667 1482 639 1482 c 0
 634 1482 630 1482 625 1481 c 0
 493 1458 315 1347 282 1110 c 2
 250 878 l 2
 244 835 260 801 300 801 c 2
EndSplineSet
EndChar

StartChar: quoteright
Encoding: 8217 8217 292
Width: 606
VWidth: 0
GlyphClass: 2
Flags: HW
LayerCount: 2
Fore
SplineSet
312 803 m 0
 444 826 621 938 654 1175 c 2
 687 1407 l 2
 693 1450 677 1484 637 1484 c 2
 394 1484 l 2
 354 1484 333 1452 327 1409 c 2
 299 1206 l 2
 294 1168 310 1139 345 1139 c 2
 418 1139 l 2
 432 1139 432 1128 430 1112 c 0
 427 1088 400 1011 330 968 c 0
 286 941 263 947 255 893 c 2
 248 848 l 2
 244 817 270 802 298 802 c 0
 303 802 307 802 312 803 c 0
EndSplineSet
EndChar

StartChar: quotesingle
Encoding: 39 39 294
Width: 692
VWidth: 0
GlyphClass: 2
Flags: HW
LayerCount: 2
Fore
SplineSet
405 689 m 2
 478 689 l 2
 518 689 544 722 556 764 c 2
 770 1443 l 1
 777 1486 751 1521 711 1521 c 2
 404 1521 l 2
 364 1521 328 1486 323 1443 c 1
 347 764 l 2
 348 722 365 689 405 689 c 2
EndSplineSet
EndChar

StartChar: r
Encoding: 114 114 295
Width: 1228
VWidth: 0
GlyphClass: 2
Flags: W
HStem: 742 311<882.252 1214.47>
AnchorPoint: "top" 707 1010 basechar 0
LayerCount: 2
Fore
SplineSet
208 0 m 2
 566 0 l 2
 605 0 638 33 644 76 c 2
 699 466 l 2
 714 572 808 742 1003 742 c 2
 1169 742 l 2
 1202 742 1216 774 1221 807 c 2
 1247 990 l 2
 1252 1026 1233 1053 1124 1053 c 0
 943 1053 780 995 618 813 c 0
 612 806 604 801 597 801 c 0
 590 801 583 806 580 814 c 2
 528 942 l 2
 512 983 500 1006 458 1006 c 2
 332 1006 l 2
 293 1006 276 972 270 929 c 2
 150 76 l 2
 144 33 169 0 208 0 c 2
EndSplineSet
EndChar

StartChar: registered
Encoding: 174 174 299
Width: 1767
VWidth: 0
GlyphClass: 2
Flags: HW
LayerCount: 2
Fore
SplineSet
877 -41 m 0
 1383 -41 1686 318 1742 717 c 0
 1798 1116 1596 1475 1090 1475 c 0
 584 1475 281 1116 225 717 c 0
 169 318 371 -41 877 -41 c 0
903 124 m 0
 485 124 373 440 411 713 c 0
 451 998 651 1307 1069 1307 c 0
 1487 1307 1599 998 1559 713 c 0
 1521 440 1321 124 903 124 c 0
882 756 m 2
 875 756 868 764 869 773 c 2
 883 866 l 2
 884 875 893 883 900 883 c 2
 1055 883 l 2
 1100 883 1158 881 1149 818 c 0
 1144 783 1113 756 1081 756 c 2
 882 756 l 2
575 387 m 2
 785 387 l 2
 802 387 817 403 820 422 c 2
 845 602 l 2
 846 612 856 620 863 620 c 2
 1012 620 l 2
 1058 620 1070 620 1082 587 c 0
 1097 548 1092 464 1092 418 c 1
 1093 394 1102 387 1126 387 c 2
 1344 387 l 2
 1355 387 1361 397 1363 409 c 0
 1364 419 1364 444 1365 472 c 0
 1368 589 1347 668 1253 688 c 0
 1252 688 1252 689 1252 690 c 0
 1252 691 1252 692 1253 692 c 0
 1339 705 1415 755 1429 853 c 0
 1456 1047 1302 1049 1106 1049 c 2
 668 1049 l 2
 651 1049 637 1034 634 1014 c 2
 550 422 l 2
 547 403 558 387 575 387 c 2
EndSplineSet
EndChar

StartChar: ring
Encoding: 730 730 300
Width: 1573
VWidth: 0
GlyphClass: 4
Flags: W
HStem: 1638 115<934.511 1144.44> 2046 116<960.531 1173.7>
AnchorPoint: "top" 860 1536 mark 0
LayerCount: 2
Fore
SplineSet
1019 1638 m 0
 1131 1638 1292 1709 1319 1900 c 0
 1347 2096 1216 2162 1092 2162 c 0
 966 2162 817 2096 789 1900 c 0
 762 1708 904 1638 1019 1638 c 0
1034 1753 m 0
 956 1753 898 1802 914 1900 c 1
 927 2005 1002 2046 1075 2046 c 0
 1146 2046 1209 2005 1194 1900 c 0
 1180 1801 1108 1753 1034 1753 c 0
EndSplineSet
EndChar

StartChar: s
Encoding: 115 115 301
Width: 1642
VWidth: 0
GlyphClass: 2
Flags: W
HStem: -41 259<477.861 1112.66> 803 250<666.878 1320.91>
AnchorPoint: "bot" 921 0 basechar 0
AnchorPoint: "top" 900 1010 basechar 0
LayerCount: 2
Fore
SplineSet
803 -41 m 0
 1208 -41 1536 30 1575 307 c 0
 1620 630 1273 642 988 662 c 0
 753 678 640 677 648 733 c 0
 654 775 716 803 936 803 c 0
 1150 803 1275 782 1389 736 c 0
 1398 733 1407 731 1416 731 c 0
 1445 731 1474 747 1491 776 c 2
 1545 870 l 2
 1550 879 1554 888 1555 898 c 0
 1559 926 1548 954 1526 964 c 0
 1347 1047 1155 1053 940 1053 c 0
 718 1053 278 1020 233 703 c 0
 195 432 572 408 847 387 c 0
 1100 368 1143 362 1133 294 c 0
 1125 239 1064 218 922 218 c 0
 702 218 511 240 328 306 c 0
 320 309 313 310 305 310 c 0
 276 310 246 291 227 259 c 2
 165 154 l 2
 161 146 158 137 157 128 c 0
 153 99 164 69 187 59 c 0
 356 -18 621 -41 803 -41 c 0
EndSplineSet
EndChar

StartChar: section
Encoding: 167 167 307
Width: 1723
VWidth: 0
GlyphClass: 2
Flags: HW
LayerCount: 2
Fore
SplineSet
1298 639 m 1
 1216 651 1111 654 1026 662 c 0
 676 692 615 707 622 760 c 0
 628 806 659 837 666 844 c 1
 735 827 850 815 938 809 c 0
 1200 790 1349 784 1339 716 c 0
 1334 677 1298 639 1298 639 c 1
835 -41 m 0
 1254 -41 1593 31 1632 307 c 0
 1646 407 1623 477 1573 526 c 1
 1636 577 1680 644 1692 729 c 0
 1737 1052 1379 1064 1085 1084 c 0
 841 1100 724 1099 732 1155 c 0
 738 1197 801 1225 1029 1225 c 0
 1250 1225 1380 1204 1498 1158 c 0
 1507 1155 1517 1153 1526 1153 c 0
 1556 1153 1586 1169 1603 1198 c 2
 1658 1292 l 2
 1663 1301 1667 1311 1668 1321 c 0
 1672 1348 1661 1376 1638 1386 c 0
 1452 1469 1253 1475 1030 1475 c 0
 799 1475 344 1443 299 1126 c 0
 286 1035 323 971 387 926 c 1
 311 874 254 801 240 704 c 0
 202 432 594 408 879 387 c 0
 1141 368 1187 362 1177 294 c 0
 1169 239 1106 218 958 218 c 0
 729 218 531 240 340 306 c 0
 332 309 324 310 316 310 c 0
 286 310 255 291 236 259 c 2
 173 154 l 2
 168 146 165 136 164 127 c 0
 160 98 172 69 195 59 c 0
 370 -18 646 -41 835 -41 c 0
EndSplineSet
EndChar

StartChar: semicolon
Encoding: 59 59 308
Width: 633
VWidth: 0
GlyphClass: 2
Flags: HW
LayerCount: 2
Fore
SplineSet
306 671 m 2
 504 671 l 2
 544 671 581 705 587 748 c 2
 613 936 l 2
 619 979 592 1013 552 1013 c 2
 354 1013 l 2
 314 1013 278 979 272 936 c 2
 245 748 l 2
 239 705 266 671 306 671 c 2
161 -336 m 0
 293 -313 470 -202 503 36 c 2
 536 268 l 2
 542 311 515 345 475 345 c 2
 243 345 l 2
 203 345 182 313 176 270 c 2
 148 67 l 2
 143 29 159 0 194 0 c 2
 266 0 l 2
 280 0 280 -11 278 -27 c 0
 275 -51 249 -128 179 -171 c 0
 135 -198 112 -192 104 -246 c 2
 97 -291 l 2
 93 -322 119 -337 147 -337 c 0
 152 -337 156 -337 161 -336 c 0
EndSplineSet
EndChar

StartChar: seven
Encoding: 55 55 309
Width: 1412
VWidth: 0
GlyphClass: 2
Flags: HW
LayerCount: 2
Fore
SplineSet
426 0 m 2
 903 0 l 2
 943 0 975 33 983 76 c 1
 1504 1363 l 1
 1510 1406 1483 1438 1443 1438 c 2
 369 1438 l 2
 329 1438 295 1406 289 1363 c 2
 261 1163 l 2
 255 1120 280 1087 320 1087 c 2
 752 1087 l 2
 771 1087 784 1071 780 1051 c 1
 367 76 l 1
 359 33 386 0 426 0 c 2
EndSplineSet
EndChar

StartChar: six
Encoding: 54 54 310
Width: 2152
VWidth: 0
GlyphClass: 2
Flags: HW
LayerCount: 2
Fore
SplineSet
1144 249 m 0
 953 249 834 297 864 512 c 2
 882 641 l 1
 1014 668 1132 683 1229 683 c 0
 1449 683 1493 611 1472 462 c 0
 1448 290 1333 249 1144 249 c 0
1089 -40 m 0
 1632 -40 2039 57 2093 444 c 0
 2132 721 1907 928 1304 928 c 0
 1176 928 1054 905 919 884 c 1
 923 907 l 1
 954 1135 1100 1162 1365 1162 c 0
 1647 1162 1915 1081 1955 1069 c 0
 1962 1067 1968 1066 1975 1066 c 0
 1997 1066 2012 1078 2021 1108 c 2
 2073 1298 l 2
 2075 1303 2075 1307 2076 1311 c 0
 2080 1339 2067 1356 2037 1365 c 1
 1936 1401 1573 1475 1359 1475 c 0
 614 1475 298 1227 220 670 c 0
 153 194 513 -40 1089 -40 c 0
EndSplineSet
EndChar

StartChar: slash
Encoding: 47 47 311
Width: 1297
VWidth: 0
GlyphClass: 2
Flags: HW
LayerCount: 2
Fore
SplineSet
448 -219 m 1
 466 -219 515 -209 523 -194 c 1
 537 -194 1163 1061 1168 1072 c 0
 1173 1084 1412 1584 1417 1617 c 0
 1417 1618 1416 1619 1416 1619 c 1
 1426 1637 1075 1647 1061 1647 c 0
 1043 1647 986 1637 978 1623 c 1
 974 1623 346 373 341 364 c 0
 336 352 89 -165 84 -198 c 0
 84 -199 85 -200 85 -200 c 1
 77 -214 435 -218 448 -219 c 1
EndSplineSet
EndChar

StartChar: sterling
Encoding: 163 163 313
Width: 2041
VWidth: 0
GlyphClass: 2
Flags: HW
LayerCount: 2
Fore
SplineSet
202 0 m 2
 1845 0 l 2
 1875 0 1905 19 1910 54 c 2
 1930 195 l 2
 1936 237 1911 256 1881 256 c 2
 1129 256 l 2
 1022 256 1021 270 1033 356 c 2
 1068 603 l 1
 1441 603 l 2
 1481 603 1515 635 1521 678 c 2
 1533 768 l 2
 1539 811 1515 843 1475 843 c 2
 1103 843 l 1
 1112 906 l 1
 1143 1135 1270 1164 1511 1164 c 0
 1680 1164 1946 1105 1981 1098 c 0
 1989 1096 1995 1095 2002 1095 c 0
 2026 1095 2040 1108 2049 1139 c 0
 2066 1203 2091 1270 2100 1336 c 0
 2104 1366 2091 1383 2058 1393 c 0
 1958 1426 1701 1475 1479 1475 c 0
 826 1475 557 1265 445 843 c 1
 320 843 l 2
 280 843 247 811 241 768 c 2
 228 678 l 2
 222 635 246 603 286 603 c 2
 396 603 l 2
 419 603 424 587 420 560 c 2
 385 314 l 2
 379 271 374 256 347 256 c 2
 238 256 l 2
 198 256 164 224 158 181 c 2
 143 75 l 2
 137 32 162 0 202 0 c 2
EndSplineSet
EndChar

StartChar: t
Encoding: 116 116 314
Width: 1446
VWidth: 0
GlyphClass: 4
Flags: W
HStem: -41 295<920.488 1263.44> 797 209<228.103 296 380 405.75 963.719 990 1296 1363.9>
AnchorPoint: "bot" 1017 0 mark 0
AnchorPoint: "top" 684 1431 basechar 0
LayerCount: 2
Fore
SplineSet
939 -41 m 0
 1054 -41 1167 -25 1258 -2 c 0
 1296 8 1331 46 1335 88 c 1
 1354 232 l 1
 1357 266 1340 290 1312 290 c 0
 1307 290 1301 289 1295 287 c 0
 1230 269 1150 254 1076 254 c 0
 954 254 858 295 877 433 c 2
 923 762 l 2
 926 782 943 797 961 797 c 2
 1296 797 l 2
 1335 797 1368 830 1374 873 c 2
 1382 931 l 2
 1388 974 1364 1006 1325 1006 c 2
 990 1006 l 2
 972 1006 960 1022 963 1042 c 2
 1009 1374 l 2
 1015 1417 992 1450 953 1450 c 2
 633 1450 l 2
 594 1450 562 1417 555 1374 c 1
 446 1042 l 2
 440 1022 428 1006 410 1006 c 2
 296 1006 l 2
 257 1006 224 974 218 931 c 2
 210 873 l 2
 204 830 228 797 267 797 c 2
 380 797 l 2
 398 797 410 782 407 762 c 2
 367 475 l 2
 312 84 620 -41 939 -41 c 0
EndSplineSet
EndChar

StartChar: tbar
Encoding: 359 359 315
Width: 1466
VWidth: 0
GlyphClass: 2
Flags: HW
LayerCount: 2
Fore
SplineSet
936 -41 m 0xf0
 1051 -41 1162 -25 1253 -2 c 0
 1291 8 1325 46 1329 88 c 1
 1348 232 l 1
 1351 266 1334 290 1306 290 c 0
 1301 290 1295 289 1289 287 c 0
 1224 269 1144 254 1070 254 c 0
 948 254 852 295 871 433 c 2xf0
 877 469 l 1
 1121 469 l 2
 1160 469 1184 488 1190 531 c 2
 1198 589 l 2
 1204 632 1185 647 1146 647 c 2
 902 647 l 1xe8
 918 762 l 2
 921 782 937 797 955 797 c 2
 1290 797 l 2
 1329 797 1362 830 1368 873 c 2
 1376 931 l 2
 1382 974 1358 1006 1319 1006 c 2
 984 1006 l 2
 966 1006 954 1022 957 1042 c 2xf0
 1004 1374 l 2
 1010 1417 986 1450 948 1450 c 2
 596 1450 l 2
 558 1450 526 1417 519 1374 c 1xe8
 446 1042 l 1
 443 1022 428 1006 410 1006 c 2
 296 1006 l 2
 257 1006 224 974 218 931 c 2
 210 873 l 2
 204 830 228 797 267 797 c 2
 380 797 l 2
 398 797 410 782 407 762 c 2
 391 647 l 1
 280 647 l 2
 241 647 218 632 212 589 c 2
 203 531 l 2
 197 488 216 469 255 469 c 2
 366 469 l 1
 364 455 l 2
 309 63 619 -41 936 -41 c 0xf0
EndSplineSet
EndChar

StartChar: thorn
Encoding: 254 254 317
Width: 1831
VWidth: 0
GlyphClass: 2
Flags: HW
LayerCount: 2
Fore
SplineSet
954 213 m 0
 769 213 684 347 705 498 c 0
 726 650 847 781 1032 781 c 0
 1208 781 1292 648 1271 498 c 0
 1249 341 1127 213 954 213 c 0
164 -318 m 2
 528 -318 l 2
 566 -318 597 -289 603 -246 c 2
 647 62 l 2
 649 73 657 81 665 81 c 0
 669 81 672 79 674 77 c 0
 763 -2 911 -41 1073 -41 c 0
 1380 -41 1729 119 1784 511 c 0
 1836 883 1524 1053 1195 1053 c 0
 1047 1053 914 1012 787 931 c 0
 781 927 779 926 775 926 c 0
 765 926 766 943 770 975 c 2
 824 1356 l 2
 831 1406 807 1438 768 1438 c 2
 414 1438 l 2
 376 1438 343 1406 337 1363 c 2
 111 -246 l 2
 105 -289 126 -318 164 -318 c 2
EndSplineSet
EndChar

StartChar: three
Encoding: 51 51 318
Width: 2047
VWidth: 0
GlyphClass: 2
Flags: HW
LayerCount: 2
Fore
SplineSet
960 -40 m 0
 1523 -40 1925 72 1973 413 c 0
 1998 591 1913 697 1722 723 c 1
 1911 743 2030 844 2055 1022 c 0
 2103 1360 1741 1474 1178 1474 c 0
 941 1474 483 1395 374 1362 c 0
 338 1352 321 1335 317 1305 c 0
 316 1301 316 1297 316 1292 c 2
 312 1108 l 2
 311 1077 323 1064 347 1064 c 0
 354 1064 360 1065 369 1067 c 0
 406 1074 817 1165 1133 1165 c 0
 1258 1165 1451 1162 1429 1005 c 0
 1416 916 1369 848 1162 848 c 2
 942 848 l 2
 912 848 908 819 906 805 c 2
 883 640 l 2
 881 626 877 597 907 597 c 2
 1126 597 l 2
 1334 597 1366 529 1353 438 c 0
 1332 288 1144 269 1003 269 c 0
 692 269 305 360 270 367 c 0
 262 369 256 370 249 370 c 0
 225 370 210 357 202 326 c 2
 155 142 l 2
 153 137 153 133 152 129 c 0
 148 99 160 82 193 72 c 0
 293 39 714 -40 960 -40 c 0
EndSplineSet
EndChar

StartChar: tilde
Encoding: 732 732 321
Width: 1359
VWidth: 0
GlyphClass: 4
Flags: W
HStem: 869 240<441.216 779.212> 984 242<863.489 1229.9>
AnchorPoint: "top" 726 686 mark 0
LayerCount: 2
Fore
SplineSet
558 869 m 0x80
 740 869 897 984 1069 984 c 0
 1142 984 1220 951 1297 902 c 0
 1307 895 1317 891 1327 891 c 0
 1355 891 1372 918 1384 945 c 0
 1390 958 1441 1045 1444 1068 c 0
 1447 1092 1434 1106 1412 1119 c 0
 1294 1192 1188 1226 1086 1226 c 0x40
 893 1226 748 1109 591 1109 c 0
 519 1109 447 1142 364 1203 c 0
 353 1210 343 1216 331 1216 c 0
 312 1216 298 1204 283 1180 c 1
 217 1080 l 2
 210 1071 207 1063 206 1055 c 0
 203 1035 215 1016 235 1001 c 1
 344 912 445 869 558 869 c 0x80
EndSplineSet
EndChar

StartChar: trademark
Encoding: 8482 8482 322
Width: 3118
VWidth: 0
GlyphClass: 2
Flags: HW
LayerCount: 2
Fore
SplineSet
603 530 m 2
 907 530 l 2
 933 530 957 551 961 580 c 2
 1052 1226 l 2
 1054 1239 1064 1249 1076 1249 c 2
 1390 1249 l 2
 1416 1249 1438 1272 1442 1300 c 2
 1459 1417 l 2
 1463 1445 1446 1467 1420 1467 c 2
 353 1467 l 2
 327 1467 304 1445 300 1417 c 2
 284 1300 l 2
 280 1272 296 1249 322 1249 c 2
 637 1249 l 2
 649 1249 658 1239 656 1226 c 2
 565 580 l 2
 561 551 577 530 603 530 c 2
1535 530 m 2
 1807 530 l 2
 1833 530 1855 551 1859 580 c 1
 1955 1054 l 2
 1956 1059 1964 1062 1965 1057 c 2
 2160 574 l 2
 2170 547 2194 530 2222 530 c 2
 2362 530 l 2
 2390 530 2418 547 2436 574 c 2
 2769 1058 l 2
 2772 1063 2780 1061 2779 1055 c 2
 2740 580 l 2
 2737 551 2753 530 2779 530 c 2
 3051 530 l 2
 3077 530 3100 551 3104 580 c 1
 3170 1418 l 2
 3173 1446 3157 1467 3132 1467 c 2
 2749 1467 l 2
 2721 1467 2693 1450 2675 1424 c 2
 2362 952 l 2
 2357 944 2345 944 2341 952 c 2
 2162 1424 l 2
 2152 1450 2128 1467 2100 1467 c 2
 1718 1467 l 2
 1693 1467 1671 1446 1666 1418 c 2
 1497 580 l 1
 1493 551 1509 530 1535 530 c 2
EndSplineSet
EndChar

StartChar: two
Encoding: 50 50 323
Width: 2041
VWidth: 0
GlyphClass: 2
Flags: HW
LayerCount: 2
Fore
SplineSet
219 1 m 2
 1790 1 l 2
 1829 1 1846 21 1853 69 c 2
 1877 242 l 2
 1883 288 1865 306 1834 306 c 2
 879 306 l 2
 846 306 829 322 833 350 c 0
 838 387 851 393 868 399 c 1
 1255 598 1946 439 2022 978 c 0
 2083 1415 1697 1476 1158 1476 c 1
 916 1475 554 1401 409 1336 c 0
 381 1324 369 1304 364 1267 c 0
 363 1263 374 1141 398 1074 c 1
 400 1053 417 1044 450 1044 c 0
 464 1044 478 1048 497 1054 c 0
 521 1062 918 1165 1216 1165 c 0
 1513 1165 1524 1105 1514 1036 c 0
 1478 778 380 1096 164 207 c 0
 162 196 138 103 137 93 c 0
 129 37 159 1 219 1 c 2
EndSplineSet
EndChar

StartChar: u
Encoding: 117 117 325
Width: 1829
VWidth: 0
GlyphClass: 2
Flags: W
HStem: -42 273<609.5 1048.05>
DStem2: 1267 499 1702 77 0.138693 0.990335<-150.8 522.8>
AnchorPoint: "top" 1028 997 basechar 0
AnchorPoint: "bot" 1748 3 basechar 0
LayerCount: 2
Fore
SplineSet
776 -42 m 0
 989 -42 1215 38 1354 198 c 0
 1360 205 1368 210 1375 210 c 0
 1382 210 1388 205 1391 197 c 2
 1444 64 l 2
 1459 24 1495 0 1537 0 c 2
 1624 0 l 2
 1663 0 1696 34 1702 77 c 2
 1823 941 l 2
 1829 984 1804 1016 1765 1016 c 2
 1407 1016 l 2
 1368 1016 1335 984 1329 941 c 2
 1267 499 l 2
 1248 366 1119 231 943 231 c 0
 775 231 699 354 719 499 c 2
 781 941 l 2
 787 984 763 1016 724 1016 c 2
 343 1016 l 2
 304 1016 270 984 264 941 c 2
 201 493 l 2
 150 131 443 -42 776 -42 c 0
EndSplineSet
EndChar

StartChar: underscore
Encoding: 95 95 333
Width: 1078
VWidth: 0
GlyphClass: 2
Flags: HW
LayerCount: 2
Fore
SplineSet
112 -277 m 2
 885 -277 l 2
 925 -277 949 -246 955 -203 c 2
 974 -73 l 2
 980 -30 964 0 924 0 c 2
 151 0 l 2
 111 0 87 -30 81 -73 c 2
 62 -203 l 2
 56 -246 72 -277 112 -277 c 2
EndSplineSet
EndChar

StartChar: uni00AD
Encoding: 173 173 334
Width: 947
VWidth: 0
GlyphClass: 2
Flags: HW
LayerCount: 2
Fore
SplineSet
225 449 m 2
 847 449 l 2
 873 449 898 478 903 513 c 2
 922 648 l 2
 927 682 910 709 884 709 c 2
 262 709 l 2
 236 709 211 683 207 651 c 2
 189 519 l 2
 184 480 199 449 225 449 c 2
EndSplineSet
EndChar

StartChar: uni0307
Encoding: 775 775 375
Width: 561
VWidth: 0
GlyphClass: 4
Flags: W
HStem: 872 342<287.603 358 508 578.598>
AnchorPoint: "top" 308 693 mark 0
LayerCount: 2
Fore
SplineSet
310 872 m 2
 508 872 l 2
 548 872 585 906 591 949 c 2
 617 1137 l 2
 623 1180 596 1214 556 1214 c 2
 358 1214 l 2
 318 1214 282 1180 276 1137 c 2
 249 949 l 2
 243 906 270 872 310 872 c 2
EndSplineSet
EndChar

StartChar: uni030F
Encoding: 783 783 376
Width: 1411
VWidth: 0
GlyphClass: 4
Flags: W
HStem: 1170 448<633.562 683 746 804.29 1093.56 1143 1206 1263.28>
AnchorPoint: "top" 860 983 mark 0
LayerCount: 2
Fore
SplineSet
1143 1170 m 2
 1232 1170 l 2
 1259 1170 1272 1175 1276 1202 c 0
 1277 1211 1278 1223 1277 1237 c 2
 1264 1563 l 2
 1263 1606 1247 1618 1206 1618 c 2
 964 1618 l 2
 945 1618 936 1606 934 1590 c 0
 932 1579 935 1565 940 1553 c 2
 1096 1209 l 2
 1104 1191 1108 1170 1143 1170 c 2
683 1170 m 2
 773 1170 l 2
 800 1170 812 1175 816 1202 c 0
 817 1211 818 1223 817 1237 c 2
 805 1563 l 2
 804 1606 787 1618 746 1618 c 2
 504 1618 l 2
 485 1618 476 1606 474 1590 c 0
 472 1579 475 1565 480 1553 c 2
 636 1209 l 2
 644 1191 648 1170 683 1170 c 2
EndSplineSet
EndChar

StartChar: uni0311
Encoding: 785 785 377
Width: 1258
VWidth: 0
GlyphClass: 4
Flags: W
HStem: 1346 160<703.327 885.057>
VStem: 428 233<1192 1296.74> 901 232<1192 1325.69>
AnchorPoint: "top" 669 1043 mark 0
LayerCount: 2
Fore
SplineSet
428 1192 m 1
 661 1192 l 1
 678 1298 727 1346 801 1346 c 0
 876 1346 914 1297 901 1192 c 1
 1133 1192 l 1
 1170 1474 978 1506 824 1506 c 0
 671 1506 470 1474 428 1192 c 1
EndSplineSet
EndChar

StartChar: uni0326
Encoding: 806 806 378
Width: 894
VWidth: 0
GlyphClass: 4
Flags: W
HStem: -642 448<276.852 344.953>
AnchorPoint: "bot" 535 0 mark 0
LayerCount: 2
Fore
SplineSet
195 -642 m 2
 284 -642 l 2
 319 -642 329 -621 341 -603 c 1
 594 -259 l 2
 602 -247 609 -233 611 -222 c 0
 613 -206 608 -194 589 -194 c 2
 347 -194 l 2
 306 -194 286 -206 273 -249 c 2
 169 -575 l 2
 164 -589 161 -601 160 -610 c 0
 156 -637 168 -642 195 -642 c 2
EndSplineSet
EndChar

StartChar: uniFB00
Encoding: 65536 -1 393
Width: 2542
VWidth: 0
GlyphClass: 2
Flags: HW
LayerCount: 2
Fore
SplineSet
410 0 m 2
 801 0 l 2
 841 0 877 34 883 77 c 2
 980 762 l 2
 983 782 987 799 1006 799 c 2
 1507 799 l 2
 1526 799 1523 782 1520 762 c 2
 1424 77 l 2
 1418 34 1445 0 1485 0 c 2
 1875 0 l 2
 1915 0 1952 34 1958 77 c 2
 2054 762 l 2
 2057 782 2061 799 2080 799 c 2
 2447 799 l 2
 2487 799 2510 808 2516 851 c 2
 2530 951 l 2
 2536 994 2516 1006 2476 1006 c 2
 2095 1006 l 2
 2091 1006 2089 1010 2089 1013 c 2
 2096 1062 l 2
 2109 1158 2204 1199 2357 1199 c 0
 2418 1199 2542 1181 2547 1181 c 0
 2579 1181 2587 1193 2592 1230 c 2
 2613 1377 l 2
 2617 1405 2600 1431 2575 1438 c 1
 2479 1456 2355 1475 2233 1475 c 0
 1931 1475 1625 1367 1561 1044 c 0
 1557 1022 1554 1006 1534 1006 c 2
 1020 1006 l 2
 1016 1006 1015 1010 1015 1013 c 2
 1022 1062 l 2
 1035 1158 1130 1199 1283 1199 c 0
 1344 1199 1468 1181 1473 1181 c 0
 1505 1181 1513 1193 1518 1230 c 2
 1539 1377 l 2
 1543 1405 1526 1431 1501 1438 c 1
 1406 1456 1281 1475 1159 1475 c 0
 857 1475 551 1367 486 1044 c 0
 482 1022 480 1006 460 1006 c 2
 320 1006 l 2
 280 1006 255 988 249 945 c 2
 236 851 l 2
 230 808 251 799 291 799 c 2
 432 799 l 2
 451 799 449 782 446 762 c 2
 350 77 l 2
 344 34 370 0 410 0 c 2
EndSplineSet
EndChar

StartChar: uniFB01
Encoding: 64257 64257 394
Width: 2104
VWidth: 0
GlyphClass: 3
Flags: HW
LayerCount: 2
Fore
SplineSet
1694 1156 m 2
 2053 1156 l 2
 2092 1156 2126 1189 2132 1232 c 2
 2161 1441 l 2
 2167 1484 2142 1516 2103 1516 c 2
 1745 1516 l 2
 1706 1516 1672 1484 1666 1441 c 2
 1637 1232 l 2
 1631 1189 1655 1156 1694 1156 c 2
400 0 m 2
 774 0 l 2
 812 0 847 34 853 77 c 2
 950 762 l 2
 953 782 957 799 975 799 c 2
 1576 799 l 1
 1474 76 l 2
 1468 33 1493 0 1532 0 c 2
 1890 0 l 2
 1929 0 1963 33 1969 76 c 2
 2089 931 l 2
 2095 974 2070 1006 2031 1006 c 2
 990 1006 l 2
 986 1006 985 1010 985 1013 c 2
 992 1062 l 2
 1005 1158 1097 1199 1245 1199 c 0
 1304 1199 1425 1181 1429 1181 c 0
 1460 1181 1468 1193 1473 1230 c 2
 1493 1377 l 2
 1497 1405 1481 1431 1457 1438 c 1
 1365 1456 1244 1475 1126 1475 c 0
 836 1475 543 1367 479 1044 c 0
 475 1022 473 1006 453 1006 c 2
 318 1006 l 2
 279 1006 255 988 249 945 c 2
 236 851 l 2
 230 808 250 799 289 799 c 2
 426 799 l 2
 444 799 442 782 439 762 c 2
 342 77 l 2
 336 34 362 0 400 0 c 2
EndSplineSet
Ligature2: "ligaStandardLigatureslookup0 subtable" f i
EndChar

StartChar: uniFB02
Encoding: 64258 64258 395
Width: 2049
VWidth: 0
GlyphClass: 3
Flags: HW
LayerCount: 2
Fore
SplineSet
400 0 m 2
 774 0 l 2
 812 0 847 34 853 77 c 2
 950 762 l 2
 953 782 957 799 975 799 c 2
 1330 799 l 2
 1369 799 1392 808 1398 851 c 2
 1412 951 l 2
 1418 994 1398 1006 1359 1006 c 2
 990 1006 l 2
 986 1006 985 1010 985 1013 c 2
 992 1062 l 2
 1005 1158 1122 1199 1312 1199 c 0
 1388 1199 1527 1187 1576 1183 c 1
 1420 76 l 2
 1414 33 1439 0 1478 0 c 2
 1836 0 l 2
 1875 0 1908 33 1914 76 c 2
 2088 1313 l 2
 2094 1356 2069 1381 2031 1389 c 0
 1759 1442 1508 1475 1193 1475 c 0
 871 1475 545 1367 479 1044 c 0
 475 1022 473 1006 453 1006 c 2
 318 1006 l 2
 279 1006 255 988 249 945 c 2
 236 851 l 2
 230 808 250 799 289 799 c 2
 426 799 l 2
 444 799 442 782 439 762 c 2
 342 77 l 2
 336 34 362 0 400 0 c 2
EndSplineSet
Ligature2: "ligaStandardLigatureslookup0 subtable" f l
EndChar

StartChar: uniFB03
Encoding: 65537 -1 396
Width: 3231
VWidth: 0
GlyphClass: 2
Flags: HW
LayerCount: 2
Fore
SplineSet
2808 1156 m 2
 3178 1156 l 2
 3218 1156 3253 1189 3259 1232 c 2
 3288 1441 l 2
 3294 1484 3268 1516 3228 1516 c 2
 2858 1516 l 2
 2818 1516 2783 1484 2777 1441 c 2
 2748 1232 l 2
 2742 1189 2768 1156 2808 1156 c 2
410 0 m 2
 801 0 l 2
 841 0 877 34 883 77 c 2
 980 762 l 2
 983 782 987 799 1006 799 c 2
 1548 799 l 2
 1567 799 1565 782 1562 762 c 2
 1466 77 l 2
 1460 34 1486 0 1526 0 c 2
 1917 0 l 2
 1957 0 1993 34 1999 77 c 2
 2096 762 l 2
 2099 782 2103 799 2122 799 c 2
 2687 799 l 1
 2585 76 l 2
 2579 33 2605 0 2645 0 c 2
 3015 0 l 2
 3055 0 3091 33 3097 76 c 2
 3217 931 l 2
 3223 974 3197 1006 3157 1006 c 2
 2136 1006 l 2
 2132 1006 2131 1010 2131 1013 c 2
 2138 1062 l 2
 2151 1158 2240 1199 2386 1199 c 0
 2437 1199 2541 1181 2545 1181 c 0
 2577 1181 2585 1193 2590 1230 c 2
 2611 1377 l 2
 2615 1405 2598 1431 2573 1438 c 1
 2490 1456 2381 1475 2275 1475 c 0
 1973 1475 1666 1367 1602 1044 c 0
 1598 1022 1596 1006 1576 1006 c 2
 1020 1006 l 2
 1016 1006 1015 1010 1015 1013 c 2
 1022 1062 l 2
 1035 1158 1130 1199 1283 1199 c 0
 1337 1199 1445 1181 1450 1181 c 0
 1482 1181 1489 1193 1494 1230 c 2
 1514 1377 l 2
 1518 1405 1501 1431 1476 1438 c 1
 1388 1456 1272 1475 1159 1475 c 0
 857 1475 551 1367 486 1044 c 0
 482 1022 480 1006 460 1006 c 2
 320 1006 l 2
 280 1006 255 988 249 945 c 2
 236 851 l 2
 230 808 251 799 291 799 c 2
 432 799 l 2
 451 799 449 782 446 762 c 2
 350 77 l 2
 344 34 370 0 410 0 c 2
EndSplineSet
EndChar

StartChar: uniFB04
Encoding: 65538 -1 397
Width: 3152
VWidth: 0
GlyphClass: 2
Flags: HW
LayerCount: 2
Fore
SplineSet
411 0 m 2
 801 0 l 2
 841 0 878 34 884 77 c 2
 981 762 l 2
 984 782 987 799 1006 799 c 2
 1507 799 l 2
 1526 799 1523 782 1520 762 c 2
 1424 77 l 2
 1418 34 1445 0 1485 0 c 2
 1875 0 l 2
 1915 0 1952 34 1958 77 c 2
 2054 762 l 2
 2057 782 2061 799 2080 799 c 2
 2410 799 l 2
 2450 799 2473 808 2479 851 c 2
 2493 951 l 2
 2499 994 2479 1006 2439 1006 c 2
 2095 1006 l 2
 2091 1006 2089 1010 2089 1013 c 2
 2096 1062 l 2
 2109 1158 2215 1199 2389 1199 c 0
 2468 1199 2612 1187 2663 1183 c 1
 2507 76 l 2
 2501 33 2526 0 2566 0 c 2
 2936 0 l 2
 2976 0 3012 33 3018 76 c 2
 3191 1313 l 2
 3197 1356 3171 1381 3131 1389 c 0
 2862 1442 2615 1475 2302 1475 c 0
 1967 1475 1627 1367 1561 1044 c 0
 1557 1022 1554 1006 1534 1006 c 2
 1021 1006 l 2
 1017 1006 1016 1010 1016 1013 c 2
 1023 1062 l 2
 1036 1158 1131 1199 1284 1199 c 0
 1341 1199 1455 1181 1460 1181 c 0
 1492 1181 1501 1193 1506 1230 c 2
 1526 1377 l 2
 1530 1405 1513 1431 1488 1438 c 1
 1396 1456 1277 1475 1160 1475 c 0
 858 1475 551 1367 487 1044 c 0
 483 1022 480 1006 460 1006 c 2
 320 1006 l 2
 280 1006 256 988 250 945 c 2
 237 851 l 2
 231 808 251 799 291 799 c 2
 432 799 l 2
 451 799 449 782 446 762 c 2
 350 77 l 2
 344 34 371 0 411 0 c 2
EndSplineSet
EndChar

StartChar: v
Encoding: 118 118 401
Width: 1746
VWidth: 0
GlyphClass: 2
Flags: HW
LayerCount: 2
Fore
SplineSet
641 0 m 2
 1100 0 l 2
 1141 0 1185 27 1211 67 c 2
 1765 939 l 2
 1772 948 1775 957 1776 964 c 0
 1779 986 1765 1006 1741 1006 c 2
 1388 1006 l 2
 1347 1006 1306 979 1281 937 c 1
 975 393 l 2
 971 386 965 383 960 383 c 0
 955 383 950 386 947 393 c 2
 782 937 l 2
 770 979 737 1006 697 1006 c 2
 287 1006 l 2
 263 1006 243 986 240 963 c 0
 239 954 239 947 242 938 c 2
 551 68 l 2
 566 27 600 0 641 0 c 2
EndSplineSet
EndChar

StartChar: w
Encoding: 119 119 402
Width: 2416
VWidth: 0
GlyphClass: 2
Flags: W
AnchorPoint: "top" 1370 1004 basechar 0
LayerCount: 2
Fore
SplineSet
514 0 m 2
 975 0 l 2
 1015 0 1056 30 1074 73 c 1
 1255 480 l 2
 1257 485 1261 488 1265 488 c 0
 1269 488 1272 485 1273 480 c 2
 1337 73 l 1
 1343 30 1374 0 1414 0 c 2
 1875 0 l 2
 1915 0 1958 28 1980 70 c 2
 2429 936 l 2
 2434 944 2436 952 2437 959 c 0
 2441 984 2425 1006 2399 1006 c 2
 2060 1006 l 2
 2020 1006 1982 977 1964 933 c 2
 1745 396 l 2
 1743 391 1738 388 1734 388 c 0
 1730 388 1726 390 1726 395 c 2
 1634 934 l 2
 1627 977 1597 1006 1558 1006 c 2
 1185 1006 l 2
 1145 1006 1105 978 1086 934 c 2
 846 395 l 2
 845 391 840 387 836 387 c 0
 832 387 829 390 828 396 c 2
 764 932 l 1
 760 976 732 1006 692 1006 c 2
 297 1006 l 2
 270 1006 249 983 245 957 c 0
 244 950 243 942 245 935 c 2
 432 71 l 2
 441 29 474 0 514 0 c 2
EndSplineSet
EndChar

StartChar: x
Encoding: 120 120 407
Width: 1974
VWidth: 0
GlyphClass: 2
Flags: HW
LayerCount: 2
Fore
SplineSet
167 0 m 2
 614 0 l 2
 656 0 708 18 745 47 c 0
 756 55 923 182 950 204 c 0
 959 211 969 214 976 214 c 0
 985 214 993 210 999 203 c 0
 1020 181 1134 57 1141 50 c 0
 1168 20 1213 0 1255 0 c 2
 1838 0 l 2
 1853 0 1865 13 1867 27 c 0
 1868 35 1867 43 1861 48 c 0
 1836 74 1403 523 1385 542 c 0
 1380 547 1378 555 1379 562 c 0
 1380 571 1385 578 1392 583 c 0
 1423 608 1876 943 1897 960 c 0
 1905 966 1909 973 1910 981 c 0
 1912 993 1904 1006 1890 1006 c 2
 1472 1006 l 2
 1430 1006 1383 987 1346 958 c 0
 1336 950 1195 838 1165 814 c 0
 1158 809 1150 806 1142 806 c 0
 1132 806 1124 809 1119 815 c 0
 1095 840 996 948 987 956 c 1
 959 987 917 1006 875 1006 c 2
 291 1006 l 2
 276 1006 264 993 262 979 c 0
 261 971 262 963 268 958 c 0
 277 948 686 525 714 497 c 0
 720 492 721 483 720 476 c 0
 719 468 715 461 707 456 c 1
 680 434 187 68 159 46 c 0
 152 40 148 33 147 26 c 0
 145 13 153 0 167 0 c 2
EndSplineSet
EndChar

StartChar: y
Encoding: 121 121 408
Width: 1656
VWidth: 0
GlyphClass: 2
Flags: W
HStem: -657 286<272.881 631.521>
AnchorPoint: "top" 991 1010 basechar 0
LayerCount: 2
Fore
SplineSet
458 -657 m 0
 734 -657 876 -508 1009 -269 c 1
 1679 936 l 2
 1684 943 1686 950 1687 957 c 0
 1691 983 1675 1006 1649 1006 c 2
 1349 1006 l 2
 1308 1006 1268 979 1247 934 c 2
 1247 934 983 397 979 390 c 0
 974 381 968 377 963 377 c 0
 957 377 952 381 951 387 c 2
 774 937 l 1
 762 980 728 1006 688 1006 c 2
 277 1006 l 2
 254 1006 235 987 232 964 c 0
 231 957 232 948 235 940 c 2
 648 -113 l 2
 660 -146 688 -207 684 -233 c 1
 658 -342 577 -371 493 -371 c 0
 465 -371 377 -361 333 -344 c 0
 327 -342 319 -340 313 -340 c 0
 291 -340 265 -352 253 -375 c 2
 189 -498 l 2
 183 -510 180 -522 178 -534 c 0
 174 -563 180 -586 197 -596 c 0
 261 -638 354 -657 458 -657 c 0
EndSplineSet
EndChar

StartChar: yen
Encoding: 165 165 412
Width: 2080
VWidth: 0
GlyphClass: 2
Flags: HW
LayerCount: 2
Fore
SplineSet
798 0 m 2
 1292 0 l 2
 1332 0 1366 33 1372 76 c 2
 1392 216 l 1
 1665 216 l 2
 1705 216 1713 247 1719 290 c 2
 1723 321 l 2
 1729 364 1730 395 1690 395 c 2
 1417 395 l 1
 1509 555 l 1
 1742 555 l 2
 1782 555 1790 586 1796 629 c 2
 1801 660 l 2
 1807 703 1807 734 1767 734 c 2
 1641 734 l 1
 2187 1375 l 2
 2195 1384 2200 1393 2201 1402 c 0
 2204 1421 2190 1438 2169 1438 c 2
 1734 1438 l 2
 1690 1438 1644 1413 1612 1374 c 2
 1212 889 l 1
 940 1375 l 2
 918 1414 877 1438 834 1438 c 2
 309 1438 l 2
 288 1438 272 1421 269 1403 c 0
 268 1395 271 1385 276 1376 c 2
 649 734 l 1
 511 734 l 2
 471 734 463 703 457 660 c 2
 452 629 l 2
 446 586 446 555 486 555 c 2
 734 555 l 1
 783 395 l 1
 523 395 l 2
 483 395 475 364 469 321 c 2
 464 290 l 2
 458 247 457 216 497 216 c 2
 758 216 l 1
 738 76 l 2
 732 33 758 0 798 0 c 2
EndSplineSet
EndChar

StartChar: z
Encoding: 122 122 414
Width: 1501
VWidth: 0
GlyphClass: 2
Flags: W
AnchorPoint: "top" 904 1006 basechar 0
LayerCount: 2
Fore
SplineSet
172 0 m 2
 1337 0 l 2
 1355 0 1373 17 1376 37 c 2
 1401 220 l 2
 1404 240 1391 257 1373 257 c 2
 833 257 l 1
 1411 722 l 2
 1429 737 1442 760 1445 783 c 2
 1471 969 l 2
 1474 989 1457 1006 1439 1006 c 2
 314 1006 l 2
 296 1006 278 989 275 969 c 2
 250 786 l 2
 247 766 260 749 278 749 c 2
 796 749 l 1
 201 280 l 2
 183 266 170 243 167 220 c 2
 141 37 l 2
 138 17 154 0 172 0 c 2
EndSplineSet
EndChar

StartChar: zero
Encoding: 48 48 418
Width: 2152
VWidth: 0
GlyphClass: 2
Flags: HW
LayerCount: 2
Fore
SplineSet
1074 -41 m 0
 1557 -41 2038 84 2128 723 c 0
 2211 1314 1770 1475 1287 1475 c 0
 803 1475 309 1314 226 723 c 0
 136 84 590 -41 1074 -41 c 0
1125 323 m 0
 916 323 831 415 874 723 c 0
 916 1020 1026 1117 1237 1117 c 0
 1447 1117 1523 1020 1481 723 c 0
 1438 415 1333 323 1125 323 c 0
EndSplineSet
EndChar
